<svg id="tfnsw_airplane" data-name="tfnsw_airplane" xmlns="http://www.w3.org/2000/svg" viewBox="0 0 500 500">
    <defs>
        <style> .cls-1 { fill-rule: evenodd; } </style>
    </defs>
    <path class="cls-1"
          d="M455.47,475.51,372.94,188.77a3.28,3.28,0,0,0-.88-1.76C437.14,118.17,500,37.09,500,13.57A13.07,13.07,0,0,0,496.06,4c-5.24-5.23-14-13.94-82.94,38.8a1272.58,1272.58,0,0,0-100.43,85.84c-.42-.42-1.3-.42-1.72-.88L24.53,45.38,2.68,67.19A9.34,9.34,0,0,0,0,74.6a11.25,11.25,0,0,0,4,7L215.32,227.15,119.67,337.39,51.11,323.88,31.49,343.46a9.37,9.37,0,0,0,2.13,14.82L105.24,394,141,465.46a9.39,9.39,0,0,0,1.71,2.64,10.2,10.2,0,0,0,5.24,2.64c3.07.41,6.13-.42,7.84-2.64l19.67-19.59-13.54-66.67c0-.46-.42-.88-.42-1.34l111.75-95.42L419.1,496c1.76,2.17,3.94,3.93,7,3.93a9.2,9.2,0,0,0,7.43-2.64l21.94-21.8Z" />
</svg>
