<?xml version="1.0" encoding="UTF-8" standalone="no"?>
<!-- Created with Inkscape (http://www.inkscape.org/) -->

<svg
   xmlns:dc="http://purl.org/dc/elements/1.1/"
   xmlns:cc="http://creativecommons.org/ns#"
   xmlns:rdf="http://www.w3.org/1999/02/22-rdf-syntax-ns#"
   xmlns:svg="http://www.w3.org/2000/svg"
   xmlns="http://www.w3.org/2000/svg"
   xmlns:sodipodi="http://sodipodi.sourceforge.net/DTD/sodipodi-0.dtd"
   xmlns:inkscape="http://www.inkscape.org/namespaces/inkscape"
   width="52.916668mm"
   height="52.916668mm"
   viewBox="0 0 52.916668 52.916668"
   version="1.1"
   id="svg8"
   inkscape:version="0.92.3 (2405546, 2018-03-11)"
   sodipodi:docname="Buses.svg">
  <defs
     id="defs2" />
  <sodipodi:namedview
     id="base"
     pagecolor="#ffffff"
     bordercolor="#666666"
     borderopacity="1.0"
     inkscape:pageopacity="0.0"
     inkscape:pageshadow="2"
     inkscape:zoom="4.0204442"
     inkscape:cx="78.551435"
     inkscape:cy="56.031262"
     inkscape:document-units="mm"
     inkscape:current-layer="layer1"
     showgrid="false"
     inkscape:pagecheckerboard="true"
     fit-margin-top="0"
     fit-margin-left="0"
     fit-margin-right="0"
     fit-margin-bottom="0"
     inkscape:window-width="743"
     inkscape:window-height="614"
     inkscape:window-x="826"
     inkscape:window-y="32"
     inkscape:window-maximized="0" />
  <metadata
     id="metadata5">
    <rdf:RDF>
      <cc:Work
         rdf:about="">
        <dc:format>image/svg+xml</dc:format>
        <dc:type
           rdf:resource="http://purl.org/dc/dcmitype/StillImage" />
        <dc:title></dc:title>
      </cc:Work>
    </rdf:RDF>
  </metadata>
  <g
     inkscape:label="Layer 1"
     inkscape:groupmode="layer"
     id="layer1"
     transform="translate(-85.049933,-110.7416)">
    <g
       id="g4610"
       transform="matrix(4.0302627,0,0,4.0333896,-275.49403,-440.43243)">
      <path
         style="fill:#00a6e5;fill-opacity:1;stroke-width:0.01564039"
         d="m 95.57627,148.72628 c -0.70783,-0.0628 -1.392892,-0.25359 -1.996145,-0.55577 -2.761783,-1.38342 -3.867784,-4.6943 -2.483993,-7.43597 0.279331,-0.55343 0.562586,-0.94058 1.030534,-1.40853 0.467948,-0.46795 0.855101,-0.7512 1.408533,-1.03053 2.388337,-1.20546 5.271313,-0.5345 6.892421,1.60408 0.53615,0.7073 0.89916,1.55513 1.04391,2.43812 0.0508,0.30974 0.0632,0.48168 0.0633,0.87587 1.3e-4,0.39579 -0.0138,0.59168 -0.0632,0.8915 -0.26041,1.5794 -1.17002,2.9383 -2.552381,3.81309 -0.212081,0.13421 -0.704605,0.37774 -0.950028,0.46975 -0.414876,0.15553 -0.841094,0.25896 -1.305973,0.31691 -0.230551,0.0287 -0.864236,0.0413 -1.087008,0.0215 z m 1.382817,-2.07785 c 0.973812,-0.1797 1.555302,-0.7208 1.674335,-1.55804 0.02011,-0.1414 0.02003,-0.51632 -1.4e-4,-0.65689 -0.08705,-0.60688 -0.42829,-1.04131 -0.960031,-1.22221 -0.05957,-0.0203 -0.121156,-0.0368 -0.136854,-0.0368 -0.05348,0 -0.02785,-0.0234 0.07697,-0.0703 0.396147,-0.1771 0.67616,-0.52194 0.789333,-0.97208 0.0304,-0.12091 0.03489,-0.18026 0.03529,-0.46696 3.06e-4,-0.21548 -0.0066,-0.36073 -0.02014,-0.42229 -0.157352,-0.71669 -0.633,-1.13407 -1.473051,-1.29261 -0.174686,-0.033 -0.221632,-0.0341 -1.630511,-0.0402 l -1.450647,-0.006 v 3.3958 3.3958 l 1.450647,-0.006 c 1.43314,-0.005 1.452989,-0.006 1.644793,-0.0414 z m -1.754276,-1.13652 c -0.0065,-0.007 -0.01173,-0.40568 -0.01173,-0.88653 v -0.87427 l 0.699907,0.006 c 0.613696,0.005 0.71243,0.009 0.80157,0.0341 0.421661,0.11668 0.61319,0.37742 0.615466,0.83787 0.0014,0.29063 -0.06341,0.47932 -0.213501,0.62127 -0.135577,0.12822 -0.278117,0.1877 -0.558368,0.23299 -0.163367,0.0264 -1.311886,0.0511 -1.333344,0.0286 z m -0.01173,-3.65026 v -0.8143 l 0.543503,3.1e-4 c 0.298927,1.7e-4 0.592771,0.007 0.652987,0.0159 0.434981,0.0621 0.659191,0.2259 0.727009,0.53116 0.01213,0.0546 0.01675,0.166 0.01264,0.30499 -0.0053,0.18052 -0.01271,0.23485 -0.04203,0.30944 -0.05334,0.1357 -0.178656,0.26261 -0.335802,0.34006 -0.217343,0.10712 -0.268139,0.11355 -0.952247,0.12052 l -0.606065,0.006 v -0.81429 z"
         id="path4614"
         inkscape:connector-curvature="0" />
      <path
         style="fill:#ffffff;stroke-width:0.01564039"
         d="m 95.443327,149.76425 c -0.847315,-0.0841 -1.604848,-0.29999 -2.338239,-0.66625 -1.578311,-0.78821 -2.766889,-2.16193 -3.321451,-3.83883 -0.613091,-1.85387 -0.347659,-3.92767 0.714248,-5.58035 0.416703,-0.64854 0.975533,-1.24997 1.590577,-1.71184 0.818783,-0.61487 1.784528,-1.03636 2.77617,-1.21164 0.689166,-0.12182 1.417196,-0.13542 2.087993,-0.039 1.852115,0.26615 3.501295,1.30646 4.535245,2.86084 0.57969,0.87148 0.91434,1.76446 1.05786,2.82281 0.0466,0.34343 0.0578,1.04651 0.0226,1.41574 -0.12547,1.31623 -0.60095,2.48475 -1.43829,3.53473 -0.20667,0.25916 -0.73009,0.7809 -0.99458,0.9914 -0.227688,0.1812 -0.655492,0.47186 -0.88559,0.60168 -0.641718,0.36206 -1.38902,0.6273 -2.117738,0.75165 -0.377167,0.0644 -0.60122,0.0796 -1.128975,0.077 -0.277793,-0.001 -0.529712,-0.005 -0.55982,-0.008 z m 1.219951,-1.05945 c 0.667005,-0.0831 1.197701,-0.24133 1.790825,-0.5338 0.5925,-0.29217 1.051262,-0.62594 1.51743,-1.10401 0.878077,-0.90049 1.394297,-1.99579 1.543397,-3.27475 0.0261,-0.22418 0.026,-0.93484 -2.6e-4,-1.14957 -0.11436,-0.93601 -0.40603,-1.73978 -0.89957,-2.479 -0.32531,-0.48725 -0.745021,-0.93873 -1.206878,-1.29823 -1.688814,-1.31455 -3.960909,-1.53506 -5.873023,-0.56996 -0.553432,0.27933 -0.940585,0.56258 -1.408533,1.03053 -0.467948,0.46795 -0.751203,0.8551 -1.030534,1.40853 -1.179494,2.33691 -0.560935,5.16924 1.485003,6.79972 0.862181,0.6871 1.882685,1.09324 2.995135,1.19202 0.222772,0.0198 0.856457,0.007 1.087008,-0.0215 z m -2.799631,-5.4053 v -3.3958 l 1.450647,0.006 c 1.408879,0.006 1.455825,0.007 1.630511,0.0402 0.840051,0.15854 1.315699,0.57592 1.473054,1.29261 0.01352,0.0616 0.02044,0.20681 0.02014,0.42229 -4.07e-4,0.2867 -0.0049,0.34605 -0.03529,0.46696 -0.113173,0.45014 -0.393186,0.79498 -0.789333,0.97208 -0.10482,0.0469 -0.13045,0.0703 -0.07697,0.0703 0.0157,0 0.07728,0.0166 0.136854,0.0368 0.531741,0.1809 0.872985,0.61533 0.960031,1.22221 0.02016,0.14057 0.02024,0.51549 1.4e-4,0.65689 -0.08779,0.61746 -0.438627,1.08616 -1.017642,1.3595 -0.179113,0.0846 -0.398607,0.15092 -0.656693,0.19854 -0.191804,0.0354 -0.211653,0.0359 -1.644793,0.0414 l -1.450647,0.006 v -3.3958 z m 2.674508,2.18376 c 0.280251,-0.0453 0.422791,-0.10477 0.558368,-0.23299 0.150093,-0.14195 0.214937,-0.33064 0.213501,-0.62127 -0.0023,-0.46045 -0.193805,-0.72119 -0.615466,-0.83787 -0.08914,-0.0247 -0.187874,-0.0289 -0.80157,-0.0341 l -0.699907,-0.006 v 0.87427 c 0,0.48085 0.0053,0.87979 0.01173,0.88653 0.02146,0.0224 1.169977,-0.002 1.333344,-0.0286 z m -0.02346,-2.84548 c 0.175932,-0.0415 0.349727,-0.1359 0.450429,-0.24467 0.128251,-0.13853 0.156091,-0.22223 0.1641,-0.49336 0.0041,-0.13899 -5.11e-4,-0.25038 -0.01264,-0.30499 -0.06782,-0.30526 -0.292028,-0.46907 -0.727009,-0.53116 -0.06022,-0.009 -0.35406,-0.0158 -0.652987,-0.0159 l -0.543503,-3.1e-4 v 0.8143 0.81429 l 0.606065,-0.006 c 0.492608,-0.005 0.626561,-0.011 0.715548,-0.032 z"
         id="path4612"
         inkscape:connector-curvature="0" />
    </g>
  </g>
</svg>
