<?xml version="1.0" encoding="UTF-8" standalone="no"?>
<!-- Created with Inkscape (http://www.inkscape.org/) -->

<svg
   xmlns:dc="http://purl.org/dc/elements/1.1/"
   xmlns:cc="http://creativecommons.org/ns#"
   xmlns:rdf="http://www.w3.org/1999/02/22-rdf-syntax-ns#"
   xmlns:svg="http://www.w3.org/2000/svg"
   xmlns="http://www.w3.org/2000/svg"
   xmlns:sodipodi="http://sodipodi.sourceforge.net/DTD/sodipodi-0.dtd"
   xmlns:inkscape="http://www.inkscape.org/namespaces/inkscape"
   width="52.916668mm"
   height="52.916668mm"
   viewBox="0 0 52.916668 52.916668"
   version="1.1"
   id="svg8"
   inkscape:version="0.92.3 (2405546, 2018-03-11)"
   sodipodi:docname="Trains.svg">
  <defs
     id="defs2" />
  <sodipodi:namedview
     id="base"
     pagecolor="#ffffff"
     bordercolor="#666666"
     borderopacity="1.0"
     inkscape:pageopacity="0.0"
     inkscape:pageshadow="2"
     inkscape:zoom="2.0044786"
     inkscape:cx="113.83665"
     inkscape:cy="105.69653"
     inkscape:document-units="mm"
     inkscape:current-layer="layer1"
     showgrid="false"
     inkscape:pagecheckerboard="true"
     fit-margin-top="0"
     fit-margin-left="0"
     fit-margin-right="0"
     fit-margin-bottom="0"
     inkscape:window-width="781"
     inkscape:window-height="624"
     inkscape:window-x="871"
     inkscape:window-y="37"
     inkscape:window-maximized="0" />
  <metadata
     id="metadata5">
    <rdf:RDF>
      <cc:Work
         rdf:about="">
        <dc:format>image/svg+xml</dc:format>
        <dc:type
           rdf:resource="http://purl.org/dc/dcmitype/StillImage" />
        <dc:title></dc:title>
      </cc:Work>
    </rdf:RDF>
  </metadata>
  <g
     inkscape:label="Layer 1"
     inkscape:groupmode="layer"
     id="layer1"
     transform="translate(-101.32925,-103.89791)">
    <g
       id="g869"
       transform="matrix(6.0032008,0,0,6.001637,-689.32236,-628.64423)">
      <path
         style="fill:#f47913;fill-opacity:1;stroke-width:0.01050021"
         d="m 135.85373,130.17206 c -0.4796,-0.0339 -0.95678,-0.16423 -1.38603,-0.37862 -1.14705,-0.57294 -1.91285,-1.6738 -2.04747,-2.94332 -0.0205,-0.19329 -0.0204,-0.57141 2.4e-4,-0.76779 0.0756,-0.71979 0.34108,-1.36239 0.80569,-1.95012 0.10941,-0.1384 0.42222,-0.44988 0.56953,-0.5671 0.53795,-0.42806 1.16324,-0.69293 1.855,-0.78577 0.20489,-0.0275 0.65029,-0.0331 0.84355,-0.0106 0.86213,0.10041 1.60102,0.44649 2.20534,1.03293 0.54485,0.52872 0.91419,1.20534 1.05935,1.94065 0.0526,0.26657 0.0639,0.39338 0.0639,0.71927 0,0.38055 -0.0236,0.58455 -0.10514,0.90826 -0.23509,0.93349 -0.8172,1.73089 -1.64297,2.25063 -0.15911,0.10014 -0.48371,0.26072 -0.65796,0.32549 -0.49722,0.18481 -1.0385,0.2631 -1.56301,0.22606 z m 0.64439,-1.24775 c 0.0687,-0.0197 0.0637,0.13025 0.064,-1.90881 l 3.4e-4,-1.86116 h 0.6097 c 0.41667,0 0.61641,-0.004 0.6309,-0.0113 0.0458,-0.0245 0.0509,-0.0636 0.0509,-0.38576 0,-0.31264 -0.005,-0.36028 -0.0424,-0.38014 -0.0123,-0.007 -0.62386,-0.0103 -1.70041,-0.0103 H 134.43 l -0.0258,0.0258 -0.0258,0.0258 v 0.33729 0.3373 l 0.0307,0.0307 0.0307,0.0307 h 0.60982 0.60982 v 1.84735 c 0,1.19671 0.004,1.85701 0.0104,1.87476 0.0203,0.0535 0.0474,0.0571 0.43591,0.0575 0.19873,2.3e-4 0.3727,-0.004 0.39231,-0.01 z"
         id="path873"
         inkscape:connector-curvature="0" />
      <path
         style="fill:#ffffff;stroke-width:0.01050021"
         d="m 135.80648,130.86595 c -1.22942,-0.0895 -2.36347,-0.68627 -3.13675,-1.65067 -0.32161,-0.4011 -0.58251,-0.88327 -0.74689,-1.38033 -0.4116,-1.2446 -0.23341,-2.63685 0.47951,-3.74638 0.27975,-0.43539 0.65492,-0.83917 1.06783,-1.14924 0.5497,-0.4128 1.19805,-0.69577 1.86379,-0.81344 0.46267,-0.0818 0.95144,-0.0909 1.40178,-0.0262 1.24342,0.17868 2.3506,0.87709 3.04474,1.92063 0.38918,0.58507 0.61385,1.18457 0.7102,1.8951 0.0313,0.23056 0.0388,0.70257 0.0152,0.95045 -0.0842,0.88366 -0.40345,1.66814 -0.9656,2.37305 -0.13875,0.17399 -0.49015,0.52426 -0.66772,0.66558 -0.15285,0.12165 -0.44006,0.31678 -0.59454,0.40394 -0.43082,0.24307 -0.93252,0.42114 -1.42175,0.50462 -0.30377,0.0518 -0.75322,0.0745 -1.04977,0.0529 z m 0.54076,-0.69293 c 0.50953,-0.0343 0.94184,-0.14948 1.39653,-0.37211 0.60422,-0.29585 1.09643,-0.72766 1.46764,-1.28756 0.33015,-0.49796 0.51896,-1.01528 0.59748,-1.63697 0.0217,-0.17185 0.0187,-0.68367 -0.005,-0.86102 -0.11627,-0.86806 -0.49032,-1.61791 -1.10424,-2.21366 -0.60432,-0.58644 -1.34321,-0.93252 -2.20534,-1.03293 -0.19326,-0.0225 -0.63866,-0.0169 -0.84355,0.0106 -0.69176,0.0928 -1.31705,0.35771 -1.855,0.78577 -0.14731,0.11722 -0.46012,0.4287 -0.56953,0.5671 -0.40171,0.50816 -0.6517,1.05095 -0.76409,1.65904 -0.0763,0.4128 -0.0781,0.91598 -0.005,1.32663 0.29829,1.66884 1.70608,2.93481 3.39633,3.05418 0.18095,0.0128 0.31405,0.013 0.49351,9.6e-4 z m -0.63272,-1.25429 c -0.019,-0.008 -0.0388,-0.027 -0.0446,-0.0423 -0.007,-0.0178 -0.0104,-0.67805 -0.0104,-1.87476 v -1.84735 h -0.60982 -0.60982 l -0.0307,-0.0307 -0.0307,-0.0307 v -0.3373 -0.33729 l 0.0258,-0.0258 0.0258,-0.0258 h 1.6812 c 1.07655,0 1.68811,0.004 1.70041,0.0103 0.0371,0.0199 0.0424,0.0675 0.0424,0.38014 0,0.32218 -0.005,0.36126 -0.0509,0.38576 -0.0145,0.008 -0.21423,0.0113 -0.6309,0.0113 h -0.6097 l -3.4e-4,1.86116 c -3.6e-4,2.03906 0.005,1.8891 -0.064,1.90881 -0.0196,0.006 -0.19358,0.01 -0.39231,0.01 -0.28416,-3.2e-4 -0.36407,-0.003 -0.39129,-0.0153 z"
         id="path871"
         inkscape:connector-curvature="0" />
    </g>
  </g>
</svg>
