<?xml version="1.0" encoding="UTF-8" standalone="no"?>
<!-- Created with Inkscape (http://www.inkscape.org/) -->

<svg
   xmlns:dc="http://purl.org/dc/elements/1.1/"
   xmlns:cc="http://creativecommons.org/ns#"
   xmlns:rdf="http://www.w3.org/1999/02/22-rdf-syntax-ns#"
   xmlns:svg="http://www.w3.org/2000/svg"
   xmlns="http://www.w3.org/2000/svg"
   xmlns:sodipodi="http://sodipodi.sourceforge.net/DTD/sodipodi-0.dtd"
   xmlns:inkscape="http://www.inkscape.org/namespaces/inkscape"
   width="52.916668mm"
   height="52.916767mm"
   viewBox="0 0 52.916668 52.916767"
   version="1.1"
   id="svg8"
   inkscape:version="0.92.3 (2405546, 2018-03-11)"
   sodipodi:docname="T2.svg">
  <defs
     id="defs2" />
  <sodipodi:namedview
     id="base"
     pagecolor="#ffffff"
     bordercolor="#666666"
     borderopacity="1.0"
     inkscape:pageopacity="0.0"
     inkscape:pageshadow="2"
     inkscape:zoom="5.2996274"
     inkscape:cx="60.957793"
     inkscape:cy="67.034386"
     inkscape:document-units="mm"
     inkscape:current-layer="layer1"
     showgrid="false"
     inkscape:pagecheckerboard="true"
     fit-margin-top="0"
     fit-margin-left="0"
     fit-margin-right="0"
     fit-margin-bottom="0"
     inkscape:window-width="932"
     inkscape:window-height="887"
     inkscape:window-x="860"
     inkscape:window-y="52"
     inkscape:window-maximized="0" />
  <metadata
     id="metadata5">
    <rdf:RDF>
      <cc:Work
         rdf:about="">
        <dc:format>image/svg+xml</dc:format>
        <dc:type
           rdf:resource="http://purl.org/dc/dcmitype/StillImage" />
        <dc:title></dc:title>
      </cc:Work>
    </rdf:RDF>
  </metadata>
  <g
     inkscape:label="Layer 1"
     inkscape:groupmode="layer"
     id="layer1"
     transform="translate(-89.704917,-113.65275)">
    <g
       id="g869"
       transform="matrix(7.0809128,0,0,7.0788203,-676.57501,-920.47529)">
      <path
         style="fill:#0697d1;fill-opacity:1;stroke-width:0.01050021"
         d="m 109.33151,152.94934 c -0.18909,-0.0411 -0.36398,-0.17913 -0.45219,-0.35696 -0.0701,-0.14123 -0.0652,0.0782 -0.0622,-2.79479 l 0.003,-2.60214 0.0289,-0.072 c 0.0799,-0.1996 0.23495,-0.34588 0.43316,-0.40868 l 0.0735,-0.0233 h 2.59355 c 2.82247,0 2.6296,-0.004 2.75878,0.0587 0.14237,0.0693 0.2479,0.17359 0.31234,0.30878 0.0738,0.15483 0.0684,-0.0621 0.0684,2.7668 0,2.1148 -0.002,2.57748 -0.0141,2.62506 -0.0453,0.18518 -0.18181,0.35739 -0.34849,0.43956 -0.16319,0.0805 0.0548,0.0747 -2.7822,0.0739 -2.1084,-5.4e-4 -2.55763,-0.003 -2.61219,-0.015 z m 1.67767,-1.45405 c 0.0208,-0.0208 0.021,-0.035 0.021,-1.37553 v -1.35453 h 0.45074 0.45075 l 0.0218,-0.0277 c 0.0206,-0.0261 0.0218,-0.0408 0.0218,-0.26299 v -0.23531 l -0.0258,-0.0258 -0.0258,-0.0258 h -1.22423 -1.22423 l -0.0258,0.0258 -0.0258,0.0258 v 0.23217 c 0,0.2272 0.005,0.26508 0.0357,0.28576 0.006,0.004 0.21355,0.008 0.46044,0.008 l 0.44888,1.6e-4 v 1.35453 c 0,1.34053 2.2e-4,1.35474 0.021,1.37553 0.02,0.02 0.035,0.021 0.30976,0.021 0.27475,0 0.28977,-0.001 0.30975,-0.021 z m 3.41257,0 c 0.0198,-0.0198 0.021,-0.035 0.021,-0.26542 0,-0.20423 -0.003,-0.24826 -0.0163,-0.26776 l -0.0164,-0.0233 h -0.8093 -0.80929 l 0.005,-0.10763 c 0.006,-0.12992 0.0285,-0.18907 0.10075,-0.26352 0.0987,-0.10173 0.2567,-0.19209 0.58401,-0.33406 0.35436,-0.1537 0.56177,-0.27989 0.72106,-0.43871 0.20375,-0.20314 0.28281,-0.41501 0.26863,-0.71987 -0.0275,-0.59085 -0.37425,-0.90425 -1.03606,-0.93632 -0.5297,-0.0257 -0.98586,0.22533 -1.20548,0.66331 -0.0862,0.17199 -0.0899,0.21742 -0.0205,0.25332 0.0535,0.0277 0.41571,0.16144 0.43714,0.16144 0.0346,0 0.0729,-0.041 0.096,-0.10261 0.0778,-0.20808 0.21376,-0.33553 0.41004,-0.38428 0.0859,-0.0214 0.2872,-0.0227 0.3633,-0.002 0.12683,0.0338 0.20266,0.0948 0.25412,0.20456 0.0253,0.0539 0.0277,0.0704 0.0277,0.19026 0,0.12211 -0.002,0.13537 -0.029,0.19039 -0.0387,0.0789 -0.12121,0.16264 -0.22902,0.23264 -0.10837,0.0704 -0.17413,0.10366 -0.36816,0.18643 -0.38216,0.16302 -0.59598,0.29674 -0.76119,0.47603 -0.19119,0.2075 -0.27756,0.4493 -0.29802,0.8344 -0.0116,0.2179 -0.0133,0.45721 -0.003,0.46716 0.004,0.004 0.52124,0.007 1.14977,0.007 1.12877,0 1.14303,-2.6e-4 1.16377,-0.021 z"
         id="path873"
         inkscape:connector-curvature="0" />
      <path
         style="fill:#ffffff;stroke-width:0.01050021"
         d="m 109.26588,153.54835 c -0.51998,-0.0876 -0.93718,-0.49683 -1.03341,-1.01354 -0.0149,-0.0802 -0.0163,-0.3597 -0.0138,-2.75106 l 0.003,-2.6618 0.0281,-0.0945 c 0.12771,-0.42968 0.40979,-0.73159 0.81702,-0.87448 0.1977,-0.0694 0.0173,-0.0653 2.88803,-0.0653 2.23563,0 2.61319,0.002 2.68893,0.0154 0.55078,0.0961 0.97498,0.5482 1.03818,1.10659 0.008,0.0714 0.0104,0.86438 0.008,2.68437 -0.003,2.44859 -0.004,2.58716 -0.0225,2.66181 -0.12742,0.52868 -0.51618,0.90231 -1.03255,0.99236 -0.0781,0.0136 -0.4292,0.0155 -2.68985,0.0146 -2.04778,-8.5e-4 -2.61683,-0.004 -2.67907,-0.0144 z m 5.29762,-0.59878 c 0.19138,-0.04 0.36936,-0.17809 0.45352,-0.35176 0.0238,-0.0491 0.0496,-0.11524 0.0574,-0.147 0.0211,-0.0861 0.021,-5.16452 -7e-5,-5.25011 -0.0578,-0.23496 -0.24595,-0.42911 -0.47931,-0.49454 -0.0444,-0.0124 -0.45337,-0.0147 -2.64606,-0.0147 h -2.59355 l -0.0735,0.0233 c -0.19821,0.0628 -0.35325,0.20908 -0.43316,0.40868 l -0.0289,0.072 -0.003,2.60214 c -0.003,2.87299 -0.008,2.65356 0.0622,2.79479 0.0882,0.17783 0.2631,0.31589 0.45219,0.35696 0.10239,0.0222 5.12577,0.0225 5.23199,2.3e-4 z m -4.17383,-1.45428 c -0.0208,-0.0208 -0.021,-0.035 -0.021,-1.37553 v -1.35453 l -0.44888,-1.6e-4 c -0.24689,-8e-5 -0.45408,-0.004 -0.46044,-0.008 -0.031,-0.0207 -0.0357,-0.0586 -0.0357,-0.28576 v -0.23217 l 0.0258,-0.0258 0.0258,-0.0258 h 1.22423 1.22423 l 0.0258,0.0258 0.0258,0.0258 v 0.23531 c 0,0.22217 -10e-4,0.23687 -0.0218,0.26299 l -0.0218,0.0277 h -0.45075 -0.45074 v 1.35453 c 0,1.34053 -2.2e-4,1.35474 -0.021,1.37553 -0.02,0.02 -0.035,0.021 -0.30975,0.021 -0.27476,0 -0.28977,-0.001 -0.30976,-0.021 z m 1.71854,0.014 c -0.01,-0.01 -0.008,-0.24926 0.003,-0.46716 0.0205,-0.3851 0.10683,-0.6269 0.29802,-0.8344 0.16521,-0.17929 0.37903,-0.31301 0.76119,-0.47603 0.19403,-0.0828 0.25979,-0.11607 0.36816,-0.18643 0.10781,-0.07 0.19029,-0.15378 0.22902,-0.23264 0.027,-0.055 0.029,-0.0683 0.029,-0.19039 0,-0.11987 -0.002,-0.13637 -0.0277,-0.19026 -0.0515,-0.10975 -0.12729,-0.17079 -0.25412,-0.20456 -0.0761,-0.0203 -0.27735,-0.0189 -0.3633,0.002 -0.19628,0.0488 -0.33227,0.1762 -0.41004,0.38428 -0.023,0.0616 -0.0614,0.10261 -0.096,0.10261 -0.0214,0 -0.38361,-0.13376 -0.43714,-0.16144 -0.0694,-0.0359 -0.0657,-0.0813 0.0205,-0.25332 0.21962,-0.43798 0.67578,-0.68898 1.20548,-0.66331 0.58187,0.0282 0.91377,0.26928 1.01439,0.73681 0.0217,0.10071 0.03,0.30852 0.0162,0.40532 -0.0293,0.20549 -0.10815,0.35955 -0.26312,0.51406 -0.15929,0.15882 -0.3667,0.28501 -0.72106,0.43871 -0.32731,0.14197 -0.48529,0.23233 -0.58401,0.33406 -0.0723,0.0744 -0.0949,0.1336 -0.10075,0.26352 l -0.005,0.10763 h 0.80929 0.8093 l 0.0164,0.0233 c 0.0136,0.0195 0.0163,0.0635 0.0163,0.26776 0,0.23042 -0.001,0.24562 -0.021,0.26542 -0.0207,0.0207 -0.035,0.021 -1.16377,0.021 -0.62853,0 -1.14592,-0.003 -1.14977,-0.007 z"
         id="path871"
         inkscape:connector-curvature="0" />
    </g>
  </g>
</svg>
