<?xml version="1.0" encoding="UTF-8" standalone="no"?>
<!-- Created with Inkscape (http://www.inkscape.org/) -->

<svg
   xmlns:dc="http://purl.org/dc/elements/1.1/"
   xmlns:cc="http://creativecommons.org/ns#"
   xmlns:rdf="http://www.w3.org/1999/02/22-rdf-syntax-ns#"
   xmlns:svg="http://www.w3.org/2000/svg"
   xmlns="http://www.w3.org/2000/svg"
   xmlns:sodipodi="http://sodipodi.sourceforge.net/DTD/sodipodi-0.dtd"
   xmlns:inkscape="http://www.inkscape.org/namespaces/inkscape"
   width="52.916668mm"
   height="52.916668mm"
   viewBox="0 0 52.916668 52.916668"
   version="1.1"
   id="svg8"
   inkscape:version="0.92.3 (2405546, 2018-03-11)"
   sodipodi:docname="T3.svg">
  <defs
     id="defs2" />
  <sodipodi:namedview
     id="base"
     pagecolor="#ffffff"
     bordercolor="#666666"
     borderopacity="1.0"
     inkscape:pageopacity="0.0"
     inkscape:pageshadow="2"
     inkscape:zoom="5.2996274"
     inkscape:cx="73.3822"
     inkscape:cy="66.442509"
     inkscape:document-units="mm"
     inkscape:current-layer="layer1"
     showgrid="false"
     inkscape:pagecheckerboard="true"
     fit-margin-top="0"
     fit-margin-left="0"
     fit-margin-right="0"
     fit-margin-bottom="0"
     inkscape:window-width="932"
     inkscape:window-height="887"
     inkscape:window-x="860"
     inkscape:window-y="52"
     inkscape:window-maximized="0" />
  <metadata
     id="metadata5">
    <rdf:RDF>
      <cc:Work
         rdf:about="">
        <dc:format>image/svg+xml</dc:format>
        <dc:type
           rdf:resource="http://purl.org/dc/dcmitype/StillImage" />
        <dc:title></dc:title>
      </cc:Work>
    </rdf:RDF>
  </metadata>
  <g
     inkscape:label="Layer 1"
     inkscape:groupmode="layer"
     id="layer1"
     transform="translate(-86.417626,-113.49625)">
    <g
       id="g909"
       transform="matrix(7.0796872,0,0,7.0785276,-660.76455,-882.90992)">
      <path
         style="fill:#f25b18;fill-opacity:1;stroke-width:0.01050021"
         d="m 106.62509,147.66708 c -0.24938,-0.0537 -0.44703,-0.24512 -0.5109,-0.49485 -0.0198,-0.0773 -0.0203,-0.14414 -0.0203,-2.66951 0,-2.54356 3.7e-4,-2.59165 0.0207,-2.67115 0.0511,-0.19996 0.18456,-0.36075 0.37223,-0.44856 0.1413,-0.0661 -0.0379,-0.0624 2.82267,-0.0594 l 2.60676,0.003 0.077,0.0281 c 0.20627,0.0754 0.35266,0.22236 0.42637,0.42817 l 0.0321,0.0897 v 2.62505 c 0,2.51578 -8.1e-4,2.62765 -0.0192,2.68743 -0.0432,0.13995 -0.12875,0.26847 -0.23276,0.34963 -0.0774,0.0604 -0.11671,0.0819 -0.21,0.11484 l -0.084,0.0297 -2.60406,0.002 c -2.2703,0.002 -2.61335,-1.7e-4 -2.67662,-0.0138 z m 4.20076,-1.43733 c 0.1376,-0.0111 0.31641,-0.0622 0.4499,-0.12843 0.28524,-0.14162 0.4724,-0.3659 0.54275,-0.65041 0.03,-0.12115 0.0327,-0.37072 0.005,-0.47568 -0.0537,-0.20537 -0.19703,-0.38319 -0.3837,-0.47612 -0.054,-0.0269 -0.10598,-0.049 -0.1155,-0.0491 -0.01,-1.3e-4 0.0276,-0.0224 0.0824,-0.0494 0.18626,-0.0918 0.323,-0.26332 0.3747,-0.47016 0.0247,-0.0988 0.0244,-0.35727 -5.1e-4,-0.46047 -0.0754,-0.3122 -0.27483,-0.52184 -0.59995,-0.63077 -0.26518,-0.0889 -0.67234,-0.0975 -0.93962,-0.0199 -0.21796,0.0633 -0.41577,0.19612 -0.54197,0.36398 -0.0872,0.11605 -0.17219,0.30659 -0.17219,0.38625 0,0.0505 2e-5,0.0505 0.25651,0.1348 0.2516,0.0826 0.24375,0.0839 0.31553,-0.0518 0.0664,-0.12559 0.13618,-0.19835 0.23606,-0.24621 0.0988,-0.0474 0.19268,-0.0622 0.35626,-0.0562 0.10242,0.004 0.14575,0.01 0.19127,0.0276 0.17955,0.0696 0.25318,0.17767 0.25493,0.3742 0.001,0.13544 -0.0185,0.19488 -0.0906,0.27379 -0.10402,0.11382 -0.19396,0.14196 -0.47521,0.1487 -0.11828,0.003 -0.21574,0.01 -0.22313,0.0157 -0.016,0.013 -0.0187,0.48703 -0.003,0.51209 0.008,0.0129 0.0516,0.0169 0.23872,0.0221 0.26571,0.007 0.31777,0.0199 0.42561,0.1027 0.11875,0.0912 0.17106,0.21909 0.16349,0.39971 -0.003,0.0803 -0.01,0.11227 -0.0319,0.16034 -0.0949,0.20566 -0.35219,0.30716 -0.64868,0.2559 -0.22268,-0.0385 -0.37709,-0.16197 -0.45833,-0.36649 -0.0287,-0.0722 -0.0656,-0.1122 -0.10345,-0.1122 -0.0442,0 -0.44989,0.15483 -0.46987,0.17931 -0.0249,0.0305 -0.0232,0.058 0.009,0.14819 0.16419,0.45711 0.51733,0.70619 1.05395,0.7434 0.10825,0.008 0.15052,0.007 0.30086,-0.005 z m -2.54611,-0.0644 c 0.0184,-0.0167 0.0192,-0.0736 0.0192,-1.39128 v -1.3739 h 0.45676 c 0.44276,0 0.45741,-6.4e-4 0.47776,-0.021 0.0198,-0.0198 0.021,-0.035 0.021,-0.26955 0,-0.21655 -0.002,-0.25103 -0.0174,-0.26776 -0.0167,-0.0184 -0.07,-0.0192 -1.27449,-0.0192 -1.15655,0 -1.25827,10e-4 -1.27153,0.0174 -0.0113,0.0137 -0.0144,0.0708 -0.0144,0.26666 0,0.23041 0.002,0.25096 0.02,0.27139 0.0197,0.0218 0.0258,0.0221 0.47513,0.0221 h 0.45513 v 1.37028 c 0,1.35628 2.2e-4,1.37049 0.021,1.39128 0.02,0.02 0.035,0.021 0.31681,0.021 0.26051,0 0.29809,-0.002 0.315,-0.0174 z"
         id="path913"
         inkscape:connector-curvature="0" />
      <path
         style="fill:#ffffff;stroke-width:0.01050021"
         d="m 106.55168,148.22393 c -0.18221,-0.0329 -0.3732,-0.11559 -0.5204,-0.22528 -0.0946,-0.0705 -0.22162,-0.20167 -0.28351,-0.29281 -0.0659,-0.0971 -0.14414,-0.26777 -0.17663,-0.38552 l -0.0285,-0.10329 -0.003,-2.67756 c -0.002,-2.40547 -0.001,-2.68662 0.0139,-2.7668 0.031,-0.16649 0.10064,-0.33552 0.19617,-0.47619 0.0565,-0.0832 0.19413,-0.22605 0.28067,-0.2913 0.0882,-0.0665 0.24515,-0.14734 0.35209,-0.18133 0.19787,-0.0629 0.0167,-0.0592 2.89359,-0.0592 2.54858,0 2.63735,6.5e-4 2.73677,0.02 0.43894,0.0856 0.79655,0.39757 0.93734,0.81779 0.0667,0.19908 0.0631,0.0333 0.0631,2.90025 0,2.24025 -0.002,2.6227 -0.0154,2.70404 -0.0725,0.44708 -0.39418,0.82785 -0.81937,0.96993 -0.20435,0.0683 -0.0156,0.0642 -2.91251,0.0632 -2.23072,-7.9e-4 -2.64419,-0.003 -2.71453,-0.0159 z m 5.43809,-0.57456 c 0.0933,-0.0329 0.13261,-0.0545 0.21,-0.11484 0.10401,-0.0812 0.18956,-0.20968 0.23276,-0.34963 0.0184,-0.0598 0.0192,-0.17165 0.0192,-2.68743 v -2.62505 l -0.0321,-0.0897 c -0.0737,-0.20581 -0.2201,-0.35282 -0.42637,-0.42817 l -0.077,-0.0281 -2.60676,-0.003 c -2.86058,-0.003 -2.68137,-0.007 -2.82267,0.0594 -0.18767,0.0878 -0.32109,0.2486 -0.37223,0.44856 -0.0203,0.0795 -0.0207,0.12759 -0.0207,2.67115 0,2.52537 5.1e-4,2.59218 0.0203,2.66951 0.0511,0.19967 0.18825,0.36452 0.3744,0.4499 0.14049,0.0644 -0.0368,0.0607 2.81312,0.0587 l 2.60406,-0.002 z m -1.46478,-1.41423 c -0.53662,-0.0372 -0.88976,-0.28629 -1.05395,-0.7434 -0.0324,-0.0902 -0.0341,-0.11768 -0.009,-0.14819 0.02,-0.0245 0.4257,-0.17931 0.46987,-0.17931 0.0379,0 0.0748,0.04 0.10345,0.1122 0.0812,0.20452 0.23565,0.32799 0.45833,0.36649 0.29649,0.0513 0.5538,-0.0502 0.64868,-0.2559 0.0222,-0.0481 0.0285,-0.08 0.0319,-0.16034 0.008,-0.18062 -0.0447,-0.30852 -0.16349,-0.39971 -0.10784,-0.0828 -0.1599,-0.0954 -0.42561,-0.1027 -0.18709,-0.005 -0.23059,-0.009 -0.23872,-0.0221 -0.0158,-0.0251 -0.0132,-0.49909 0.003,-0.51209 0.007,-0.006 0.10485,-0.0129 0.22313,-0.0157 0.28125,-0.007 0.37119,-0.0349 0.47521,-0.1487 0.0721,-0.0789 0.0918,-0.13835 0.0906,-0.27379 -0.002,-0.19653 -0.0754,-0.30461 -0.25493,-0.3742 -0.0455,-0.0176 -0.0888,-0.0239 -0.19127,-0.0276 -0.16358,-0.006 -0.25741,0.009 -0.35626,0.0562 -0.0999,0.0479 -0.16964,0.12062 -0.23606,0.24621 -0.0718,0.13574 -0.0639,0.13445 -0.31553,0.0518 -0.25649,-0.0842 -0.25651,-0.0843 -0.25651,-0.1348 0,-0.0797 0.0849,-0.2702 0.17219,-0.38625 0.0985,-0.13106 0.25016,-0.2486 0.40476,-0.31375 0.18004,-0.0759 0.33001,-0.10253 0.57282,-0.10184 0.40246,10e-4 0.693,0.10143 0.89412,0.30864 0.10576,0.10896 0.17033,0.23009 0.20984,0.39361 0.0249,0.1032 0.0252,0.36163 5.1e-4,0.46047 -0.0517,0.20684 -0.18844,0.3784 -0.3747,0.47016 -0.0549,0.027 -0.092,0.0492 -0.0824,0.0494 0.01,1.3e-4 0.0615,0.0222 0.1155,0.0491 0.13628,0.0678 0.25936,0.18952 0.32232,0.31862 0.066,0.1354 0.0793,0.1995 0.0791,0.38326 -1.1e-4,0.12613 -0.005,0.17591 -0.023,0.24992 -0.0704,0.28451 -0.25751,0.50879 -0.54275,0.65041 -0.13349,0.0663 -0.3123,0.11732 -0.4499,0.12843 -0.15034,0.0121 -0.19261,0.0129 -0.30086,0.005 z m -2.87706,-0.0734 c -0.0208,-0.0208 -0.021,-0.035 -0.021,-1.39128 v -1.37028 h -0.45513 c -0.44936,0 -0.45539,-2.8e-4 -0.47513,-0.0221 -0.0185,-0.0204 -0.02,-0.041 -0.02,-0.27139 0,-0.19586 0.003,-0.25301 0.0144,-0.26666 0.0133,-0.016 0.11498,-0.0174 1.27153,-0.0174 1.20453,0 1.25783,8e-4 1.27449,0.0192 0.0151,0.0167 0.0174,0.0512 0.0174,0.26776 0,0.23455 -0.001,0.24973 -0.021,0.26955 -0.0203,0.0204 -0.035,0.021 -0.47776,0.021 h -0.45676 v 1.3739 c 0,1.31768 -7.8e-4,1.37461 -0.0192,1.39128 -0.0169,0.0153 -0.0545,0.0174 -0.315,0.0174 -0.28181,0 -0.2968,-10e-4 -0.31681,-0.021 z"
         id="path911"
         inkscape:connector-curvature="0" />
    </g>
  </g>
</svg>
