<?xml version="1.0" encoding="UTF-8" standalone="no"?>
<!-- Created with Inkscape (http://www.inkscape.org/) -->

<svg
   xmlns:dc="http://purl.org/dc/elements/1.1/"
   xmlns:cc="http://creativecommons.org/ns#"
   xmlns:rdf="http://www.w3.org/1999/02/22-rdf-syntax-ns#"
   xmlns:svg="http://www.w3.org/2000/svg"
   xmlns="http://www.w3.org/2000/svg"
   xmlns:sodipodi="http://sodipodi.sourceforge.net/DTD/sodipodi-0.dtd"
   xmlns:inkscape="http://www.inkscape.org/namespaces/inkscape"
   width="52.916668mm"
   height="52.916668mm"
   viewBox="0 0 52.916668 52.916668"
   version="1.1"
   id="svg8"
   inkscape:version="0.92.3 (2405546, 2018-03-11)"
   sodipodi:docname="T4.svg">
  <defs
     id="defs2" />
  <sodipodi:namedview
     id="base"
     pagecolor="#ffffff"
     bordercolor="#666666"
     borderopacity="1.0"
     inkscape:pageopacity="0.0"
     inkscape:pageshadow="2"
     inkscape:zoom="5.2996274"
     inkscape:cx="72.597587"
     inkscape:cy="65.283174"
     inkscape:document-units="mm"
     inkscape:current-layer="layer1"
     showgrid="false"
     inkscape:pagecheckerboard="true"
     fit-margin-top="0"
     fit-margin-left="0"
     fit-margin-right="0"
     fit-margin-bottom="0"
     inkscape:window-width="932"
     inkscape:window-height="887"
     inkscape:window-x="860"
     inkscape:window-y="52"
     inkscape:window-maximized="0" />
  <metadata
     id="metadata5">
    <rdf:RDF>
      <cc:Work
         rdf:about="">
        <dc:format>image/svg+xml</dc:format>
        <dc:type
           rdf:resource="http://purl.org/dc/dcmitype/StillImage" />
        <dc:title></dc:title>
      </cc:Work>
    </rdf:RDF>
  </metadata>
  <g
     inkscape:label="Layer 1"
     inkscape:groupmode="layer"
     id="layer1"
     transform="translate(-86.625221,-113.18951)">
    <g
       id="g943"
       transform="matrix(7.0848443,0,0,7.0788839,-657.26632,-875.0899)">
      <path
         style="fill:#1e56a8;fill-opacity:1;stroke-width:0.01050021"
         d="m 106.0775,146.51292 c -0.0375,-0.008 -0.10841,-0.0344 -0.1575,-0.0585 -0.0708,-0.0347 -0.10659,-0.0613 -0.1733,-0.12888 -0.0922,-0.0934 -0.13644,-0.16672 -0.17488,-0.28988 l -0.0246,-0.0788 v -2.60405 c 0,-2.86986 -0.005,-2.64886 0.0686,-2.80355 0.0813,-0.17005 0.22052,-0.2905 0.41547,-0.35953 0.0482,-0.0171 0.21532,-0.0184 2.66077,-0.0213 2.92048,-0.003 2.68128,-0.01 2.84857,0.0734 0.11635,0.0577 0.23779,0.17844 0.29341,0.29161 0.0765,0.1556 0.0708,-0.0705 0.0708,2.81405 0,2.85338 0.004,2.65958 -0.0629,2.79522 -0.0867,0.17471 -0.22962,0.29788 -0.41976,0.36171 -0.0555,0.0186 -0.16073,0.0195 -2.66706,0.0213 -2.20482,0.002 -2.61988,-4.2e-4 -2.67755,-0.0129 z m 1.75804,-1.45977 c 0.0148,-0.0148 0.0165,-0.15548 0.0165,-1.39128 v -1.37478 h 0.45855 c 0.41196,0 0.46051,-0.002 0.47776,-0.0174 0.0176,-0.0159 0.0192,-0.0387 0.0192,-0.27225 0,-0.21771 -0.002,-0.25728 -0.0165,-0.27138 -0.0148,-0.0148 -0.14443,-0.0165 -1.26977,-0.0165 -1.12534,0 -1.25496,0.002 -1.26978,0.0165 -0.0141,0.0141 -0.0165,0.0535 -0.0165,0.26956 0,0.22073 0.002,0.2555 0.0174,0.27225 0.0163,0.018 0.0449,0.0192 0.47236,0.0192 h 0.45498 l 0.003,1.37638 c 0.003,1.34867 0.003,1.37667 0.0232,1.39127 0.0165,0.012 0.0774,0.0149 0.31688,0.0149 0.25554,0 0.29877,-0.002 0.313,-0.0165 z m 3.05556,0 c 0.0143,-0.0143 0.0165,-0.061 0.0165,-0.35176 v -0.33526 h 0.16455 c 0.13838,0 0.1676,-0.003 0.18375,-0.0174 0.0176,-0.0159 0.0192,-0.0386 0.0192,-0.271 0,-0.18651 -0.003,-0.25828 -0.0131,-0.27122 -0.0112,-0.015 -0.0383,-0.018 -0.18113,-0.0204 l -0.168,-0.003 -0.003,-0.25664 c -0.002,-0.22029 -0.005,-0.25933 -0.02,-0.27563 -0.0158,-0.0174 -0.0408,-0.019 -0.30723,-0.019 -0.24552,0 -0.29363,0.003 -0.31338,0.0163 -0.023,0.0162 -0.0233,0.0195 -0.0233,0.27825 v 0.26191 h -0.30975 c -0.17037,0 -0.30976,-0.003 -0.30976,-0.006 0,-0.003 0.28039,-0.39437 0.62309,-0.8689 0.3427,-0.47452 0.62857,-0.87308 0.63526,-0.8857 0.0262,-0.0494 0.017,-0.061 -0.1847,-0.23386 -0.18067,-0.15478 -0.1999,-0.16845 -0.23358,-0.16594 -0.0353,0.003 -0.0469,0.0166 -0.30937,0.37549 -1.2771,1.74584 -1.37055,1.87545 -1.37039,1.90053 1e-4,0.0144 0.0208,0.11806 0.046,0.23026 0.033,0.14728 0.051,0.20786 0.0647,0.21788 0.0153,0.0111 0.1493,0.0139 0.68374,0.0139 h 0.66475 v 0.33256 c 0,0.29471 0.002,0.33474 0.0174,0.35176 0.0161,0.0177 0.04,0.0192 0.31426,0.0192 0.25589,0 0.29915,-0.002 0.31338,-0.0165 z"
         id="path947"
         inkscape:connector-curvature="0" />
      <path
         style="fill:#ffffff;stroke-width:0.01050021"
         d="m 106.0145,147.07009 c -0.46841,-0.08 -0.83614,-0.40972 -0.98374,-0.88217 l -0.0295,-0.0945 -0.003,-2.70381 c -0.002,-1.90097 3.8e-4,-2.72357 0.008,-2.77039 0.0837,-0.49123 0.48041,-0.8921 0.97941,-0.9896 0.0995,-0.0194 0.18598,-0.0201 2.73655,-0.0201 2.86346,0 2.70436,-0.003 2.89561,0.0573 0.30382,0.096 0.57795,0.33424 0.72555,0.63046 0.0395,0.0792 0.0902,0.23837 0.1089,0.34126 0.0118,0.065 0.0143,0.53869 0.0143,2.7143 0,2.49747 -9.9e-4,2.64043 -0.0189,2.72852 -0.10479,0.51495 -0.49847,0.9006 -1.00885,0.98829 -0.082,0.0141 -0.40975,0.0159 -2.71956,0.0149 -2.08218,-8.5e-4 -2.64261,-0.004 -2.70505,-0.0145 z m 5.40761,-0.56555 c 0.19014,-0.0638 0.33308,-0.187 0.41976,-0.36171 0.0673,-0.13564 0.0629,0.0582 0.0629,-2.79522 0,-2.8846 0.006,-2.65845 -0.0708,-2.81405 -0.0556,-0.11317 -0.17706,-0.23387 -0.29341,-0.29161 -0.16729,-0.083 0.0719,-0.0769 -2.84857,-0.0734 -2.44545,0.003 -2.61253,0.004 -2.66077,0.0213 -0.19495,0.069 -0.33414,0.18948 -0.41547,0.35953 -0.074,0.15469 -0.0686,-0.0663 -0.0686,2.80355 v 2.60405 l 0.0246,0.0788 c 0.0384,0.12316 0.0827,0.1965 0.17488,0.28988 0.0667,0.0676 0.10246,0.0942 0.1733,0.12888 0.16131,0.0791 -0.0636,0.0734 2.83505,0.0714 2.50633,-0.002 2.61158,-0.003 2.66706,-0.0213 z m -4.21645,-1.4498 c -0.02,-0.0146 -0.0204,-0.0426 -0.0232,-1.39127 l -0.003,-1.37638 h -0.45498 c -0.42744,0 -0.45603,-0.001 -0.47236,-0.0192 -0.0152,-0.0168 -0.0174,-0.0515 -0.0174,-0.27225 0,-0.21605 0.002,-0.25547 0.0165,-0.26956 0.0148,-0.0148 0.14444,-0.0165 1.26978,-0.0165 1.12534,0 1.25496,0.002 1.26977,0.0165 0.0141,0.0141 0.0165,0.0537 0.0165,0.27138 0,0.23359 -0.002,0.25633 -0.0192,0.27225 -0.0172,0.0156 -0.0658,0.0174 -0.47776,0.0174 h -0.45855 v 1.37478 c 0,1.2358 -0.002,1.37644 -0.0165,1.39128 -0.0142,0.0142 -0.0575,0.0165 -0.313,0.0165 -0.23949,0 -0.30042,-0.003 -0.31688,-0.0149 z m 3.0578,-0.004 c -0.0154,-0.017 -0.0174,-0.0571 -0.0174,-0.35176 v -0.33256 h -0.66475 c -0.53444,0 -0.66848,-0.003 -0.68374,-0.0139 -0.0137,-0.01 -0.0317,-0.0706 -0.0647,-0.21788 -0.0252,-0.1122 -0.0459,-0.21582 -0.046,-0.23026 -1.6e-4,-0.0251 0.0933,-0.15469 1.37039,-1.90053 0.2625,-0.35886 0.27404,-0.37286 0.30937,-0.37549 0.0337,-0.003 0.0529,0.0112 0.23358,0.16594 0.20174,0.17284 0.21092,0.18446 0.1847,0.23386 -0.007,0.0126 -0.29256,0.41118 -0.63526,0.8857 -0.3427,0.47453 -0.62309,0.86553 -0.62309,0.8689 0,0.003 0.13939,0.006 0.30976,0.006 h 0.30975 v -0.26191 c 0,-0.25874 2.8e-4,-0.2621 0.0233,-0.27825 0.0198,-0.0138 0.0679,-0.0163 0.31338,-0.0163 0.26648,0 0.29144,0.002 0.30723,0.019 0.0148,0.0163 0.0176,0.0553 0.02,0.27563 l 0.003,0.25664 0.168,0.003 c 0.14285,0.002 0.16997,0.005 0.18113,0.0204 0.01,0.0129 0.0131,0.0847 0.0131,0.27122 0,0.23237 -0.002,0.25507 -0.0192,0.271 -0.0161,0.0146 -0.0454,0.0174 -0.18375,0.0174 h -0.16455 v 0.33526 c 0,0.29078 -0.002,0.33745 -0.0165,0.35176 -0.0142,0.0142 -0.0575,0.0165 -0.31338,0.0165 -0.27428,0 -0.2982,-0.001 -0.31426,-0.0192 z"
         id="path945"
         inkscape:connector-curvature="0" />
    </g>
  </g>
</svg>
