<?xml version="1.0" encoding="UTF-8" standalone="no"?>
<!-- Created with Inkscape (http://www.inkscape.org/) -->

<svg
   xmlns:dc="http://purl.org/dc/elements/1.1/"
   xmlns:cc="http://creativecommons.org/ns#"
   xmlns:rdf="http://www.w3.org/1999/02/22-rdf-syntax-ns#"
   xmlns:svg="http://www.w3.org/2000/svg"
   xmlns="http://www.w3.org/2000/svg"
   xmlns:sodipodi="http://sodipodi.sourceforge.net/DTD/sodipodi-0.dtd"
   xmlns:inkscape="http://www.inkscape.org/namespaces/inkscape"
   width="52.916668mm"
   height="52.916668mm"
   viewBox="0 0 52.916668 52.916668"
   version="1.1"
   id="svg8"
   inkscape:version="0.92.3 (2405546, 2018-03-11)"
   sodipodi:docname="T5.svg">
  <defs
     id="defs2" />
  <sodipodi:namedview
     id="base"
     pagecolor="#ffffff"
     bordercolor="#666666"
     borderopacity="1.0"
     inkscape:pageopacity="0.0"
     inkscape:pageshadow="2"
     inkscape:zoom="5.2996274"
     inkscape:cx="78.800579"
     inkscape:cy="67.710266"
     inkscape:document-units="mm"
     inkscape:current-layer="layer1"
     showgrid="false"
     inkscape:pagecheckerboard="true"
     fit-margin-top="0"
     fit-margin-left="0"
     fit-margin-right="0"
     fit-margin-bottom="0"
     inkscape:window-width="932"
     inkscape:window-height="887"
     inkscape:window-x="860"
     inkscape:window-y="52"
     inkscape:window-maximized="0" />
  <metadata
     id="metadata5">
    <rdf:RDF>
      <cc:Work
         rdf:about="">
        <dc:format>image/svg+xml</dc:format>
        <dc:type
           rdf:resource="http://purl.org/dc/dcmitype/StillImage" />
        <dc:title></dc:title>
      </cc:Work>
    </rdf:RDF>
  </metadata>
  <g
     inkscape:label="Layer 1"
     inkscape:groupmode="layer"
     id="layer1"
     transform="translate(-84.984013,-113.83168)">
    <g
       id="g977"
       transform="matrix(7.0780982,0,0,7.080048,-691.81433,-891.18361)">
      <path
         style="fill:#c41090;fill-opacity:1;stroke-width:0.01050021"
         d="m 110.84401,148.85302 c -0.24881,-0.0549 -0.4388,-0.23296 -0.51626,-0.48395 -0.0185,-0.0598 -0.0192,-0.17165 -0.0192,-2.68743 v -2.62505 l 0.0297,-0.0839 c 0.0746,-0.21099 0.21926,-0.35742 0.42885,-0.43398 l 0.077,-0.0281 2.6093,-0.003 c 2.9215,-0.003 2.6819,-0.009 2.84853,0.0739 0.11903,0.0596 0.22871,0.16926 0.28829,0.28829 0.0834,0.16663 0.0772,-0.073 0.0739,2.84852 l -0.003,2.60931 -0.0233,0.0684 c -0.0698,0.20495 -0.23338,0.36909 -0.43647,0.43788 l -0.0862,0.0292 -2.60406,0.002 c -2.1264,0.002 -2.6156,-7e-4 -2.66705,-0.012 z m 4.21934,-1.42833 c 0.16219,-0.0213 0.28372,-0.0576 0.42175,-0.12627 0.23142,-0.11504 0.38583,-0.28428 0.47433,-0.51991 0.0466,-0.12397 0.0653,-0.21766 0.0775,-0.38689 0.0264,-0.36669 -0.034,-0.67292 -0.17447,-0.88418 -0.17325,-0.2606 -0.48441,-0.4017 -0.84577,-0.38353 -0.24069,0.0121 -0.4111,0.0689 -0.55958,0.18655 -0.0283,0.0224 -0.0525,0.0395 -0.0538,0.038 -0.001,-0.002 0.011,-0.16345 0.0273,-0.3598 0.0163,-0.19635 0.0299,-0.36291 0.0302,-0.37013 3.7e-4,-0.0104 0.14013,-0.0131 0.66246,-0.0131 h 0.66199 l 0.0263,-0.0263 0.0263,-0.0263 -0.003,-0.25282 c -0.003,-0.23614 -0.004,-0.25379 -0.0235,-0.2677 -0.0172,-0.0126 -0.166,-0.0149 -0.9634,-0.0149 -0.51865,0 -0.94301,0.003 -0.94301,0.007 0,0.004 -0.0285,0.38329 -0.0635,0.84264 -0.0349,0.45936 -0.0608,0.84585 -0.0575,0.85888 0.005,0.0185 0.0541,0.0478 0.22611,0.13388 0.12111,0.0606 0.22911,0.11019 0.24001,0.11019 0.0114,0 0.0497,-0.0334 0.09,-0.0784 0.12989,-0.14513 0.27862,-0.22194 0.45214,-0.23351 0.29184,-0.0195 0.49748,0.11731 0.55749,0.37077 0.0231,0.0974 0.0233,0.33011 3.6e-4,0.4268 -0.0602,0.25433 -0.24549,0.39672 -0.51543,0.3962 -0.29589,-5.6e-4 -0.50833,-0.14202 -0.59893,-0.3988 -0.0406,-0.11513 -0.0642,-0.11622 -0.33162,-0.0153 -0.11792,0.0445 -0.22315,0.0886 -0.23385,0.0979 -0.0154,0.0135 -0.0186,0.0279 -0.0151,0.0698 0.005,0.0653 0.0892,0.24503 0.16604,0.35617 0.0697,0.10078 0.20382,0.2292 0.30569,0.29264 0.24625,0.15335 0.58904,0.21558 0.9366,0.17002 z m -2.62472,-0.0585 0.0277,-0.0218 v -1.37476 -1.37477 h 0.46073 c 0.41548,0 0.46214,-0.002 0.47513,-0.0173 0.0111,-0.0134 0.0151,-0.0745 0.0176,-0.26723 0.003,-0.24012 0.002,-0.25073 -0.0184,-0.27141 -0.0215,-0.0215 -0.0253,-0.0215 -1.27571,-0.0215 h -1.25418 l -0.0163,0.0233 c -0.0243,0.0346 -0.0243,0.4962 0,0.53084 l 0.0163,0.0233 h 0.46142 0.46141 l 1.6e-4,1.3729 c 8e-5,0.7551 0.004,1.37804 0.008,1.3843 0.0214,0.0316 0.055,0.0352 0.32918,0.0355 0.26708,3e-4 0.28069,-6.5e-4 0.30713,-0.0214 z"
         id="path981"
         inkscape:connector-curvature="0" />
      <path
         style="fill:#ffffff;stroke-width:0.01050021"
         d="m 110.77051,149.40864 c -0.51262,-0.0866 -0.92451,-0.50093 -1.00765,-1.01357 -0.0141,-0.0868 -0.016,-0.41815 -0.0161,-2.70479 -3e-5,-1.79748 0.003,-2.63103 0.0112,-2.68688 0.0535,-0.38454 0.30243,-0.73648 0.6482,-0.91637 0.0911,-0.0474 0.15639,-0.0725 0.28556,-0.10978 l 0.0787,-0.0227 2.6721,-0.003 c 2.36706,-0.003 2.6828,-0.001 2.76577,0.0132 0.50396,0.087 0.91048,0.49287 0.99836,0.99682 0.0142,0.0816 0.0162,0.40379 0.0162,2.72537 0,2.8687 0.003,2.70764 -0.0588,2.89328 -0.12285,0.36758 -0.41263,0.65886 -0.77687,0.78089 -0.20313,0.0681 -0.0161,0.064 -2.90643,0.0628 -2.15424,-8.8e-4 -2.6414,-0.004 -2.7103,-0.0153 z m 5.43086,-0.57465 c 0.20309,-0.0688 0.36671,-0.23293 0.43647,-0.43788 l 0.0233,-0.0684 0.003,-2.60931 c 0.003,-2.9215 0.009,-2.68189 -0.0739,-2.84852 -0.0596,-0.11903 -0.16926,-0.22871 -0.28829,-0.28829 -0.16663,-0.0834 0.073,-0.0772 -2.84853,-0.0739 l -2.6093,0.003 -0.077,0.0281 c -0.10517,0.0384 -0.18179,0.0862 -0.25815,0.16087 -0.0781,0.0764 -0.13123,0.16141 -0.1707,0.27311 l -0.0297,0.0839 v 2.62505 c 0,2.51578 8e-4,2.62765 0.0192,2.68743 0.0775,0.25099 0.26745,0.42909 0.51626,0.48395 0.0515,0.0113 0.54065,0.0136 2.66705,0.012 l 2.60406,-0.002 z m -1.55628,-1.40565 c -0.27121,-0.0302 -0.50652,-0.13534 -0.68422,-0.30582 -0.10442,-0.10018 -0.17667,-0.20266 -0.24769,-0.35134 -0.0619,-0.12959 -0.076,-0.2063 -0.0431,-0.23509 0.0107,-0.009 0.11593,-0.0534 0.23385,-0.0979 0.26743,-0.10093 0.291,-0.0998 0.33162,0.0153 0.0906,0.25678 0.30304,0.39824 0.59893,0.3988 0.26994,5.2e-4 0.45519,-0.14187 0.51543,-0.3962 0.0229,-0.0967 0.0227,-0.32937 -3.6e-4,-0.4268 -0.06,-0.25346 -0.26565,-0.39023 -0.55749,-0.37077 -0.17352,0.0116 -0.32225,0.0884 -0.45214,0.23351 -0.0403,0.0451 -0.0786,0.0784 -0.09,0.0784 -0.0109,0 -0.1189,-0.0496 -0.24001,-0.11019 -0.17198,-0.0861 -0.22149,-0.11538 -0.22611,-0.13388 -0.003,-0.013 0.0226,-0.39952 0.0575,-0.85888 0.0349,-0.45935 0.0635,-0.83854 0.0635,-0.84264 0,-0.004 0.42436,-0.007 0.94301,-0.007 0.7974,0 0.94616,0.002 0.9634,0.0149 0.019,0.0139 0.0206,0.0316 0.0235,0.2677 l 0.003,0.25282 -0.0263,0.0263 -0.0263,0.0263 h -0.66199 c -0.52233,0 -0.66209,0.003 -0.66246,0.0131 -2.6e-4,0.007 -0.0138,0.17378 -0.0302,0.37013 -0.0163,0.19635 -0.0286,0.35826 -0.0273,0.3598 0.001,0.002 0.0255,-0.0156 0.0538,-0.038 0.14848,-0.11763 0.31889,-0.17444 0.55958,-0.18655 0.28786,-0.0145 0.5381,0.0676 0.71576,0.23472 0.14728,0.13854 0.23294,0.29739 0.27809,0.51567 0.0401,0.19383 0.0401,0.54496 1.1e-4,0.73436 -0.0211,0.0999 -0.0771,0.24793 -0.12218,0.32291 -0.052,0.0866 -0.14188,0.19036 -0.21991,0.25399 -0.0848,0.0692 -0.26942,0.16185 -0.39206,0.19683 -0.18088,0.0516 -0.42251,0.0692 -0.63143,0.046 z m -2.81406,-0.053 c -0.0115,-0.007 -0.0245,-0.017 -0.0287,-0.0233 -0.004,-0.006 -0.008,-0.6292 -0.008,-1.3843 l -1.6e-4,-1.3729 h -0.46141 -0.46142 l -0.0163,-0.0233 c -0.0243,-0.0346 -0.0243,-0.4962 0,-0.53084 l 0.0163,-0.0233 h 1.25418 c 1.25041,0 1.25425,6e-5 1.27571,0.0215 0.0207,0.0207 0.0214,0.0313 0.0184,0.27141 -0.002,0.19272 -0.006,0.25386 -0.0176,0.26723 -0.013,0.0156 -0.0597,0.0173 -0.47513,0.0173 h -0.46073 v 1.37477 1.37476 l -0.0277,0.0218 c -0.0264,0.0208 -0.0401,0.0217 -0.30713,0.0214 -0.18844,-2.2e-4 -0.28631,-0.004 -0.30047,-0.0122 z"
         id="path979"
         inkscape:connector-curvature="0" />
    </g>
  </g>
</svg>
