<?xml version="1.0" encoding="UTF-8" standalone="no"?>
<!-- Created with Inkscape (http://www.inkscape.org/) -->

<svg
   xmlns:dc="http://purl.org/dc/elements/1.1/"
   xmlns:cc="http://creativecommons.org/ns#"
   xmlns:rdf="http://www.w3.org/1999/02/22-rdf-syntax-ns#"
   xmlns:svg="http://www.w3.org/2000/svg"
   xmlns="http://www.w3.org/2000/svg"
   xmlns:sodipodi="http://sodipodi.sourceforge.net/DTD/sodipodi-0.dtd"
   xmlns:inkscape="http://www.inkscape.org/namespaces/inkscape"
   width="52.916668mm"
   height="52.916668mm"
   viewBox="0 0 52.916668 52.916668"
   version="1.1"
   id="svg8"
   inkscape:version="0.92.3 (2405546, 2018-03-11)"
   sodipodi:docname="T6.svg">
  <defs
     id="defs2" />
  <sodipodi:namedview
     id="base"
     pagecolor="#ffffff"
     bordercolor="#666666"
     borderopacity="1.0"
     inkscape:pageopacity="0.0"
     inkscape:pageshadow="2"
     inkscape:zoom="5.2996274"
     inkscape:cx="78.256723"
     inkscape:cy="81.955112"
     inkscape:document-units="mm"
     inkscape:current-layer="layer1"
     showgrid="false"
     inkscape:pagecheckerboard="true"
     fit-margin-top="0"
     fit-margin-left="0"
     fit-margin-right="0"
     fit-margin-bottom="0"
     inkscape:window-width="932"
     inkscape:window-height="887"
     inkscape:window-x="860"
     inkscape:window-y="52"
     inkscape:window-maximized="0" />
  <metadata
     id="metadata5">
    <rdf:RDF>
      <cc:Work
         rdf:about="">
        <dc:format>image/svg+xml</dc:format>
        <dc:type
           rdf:resource="http://purl.org/dc/dcmitype/StillImage" />
        <dc:title></dc:title>
      </cc:Work>
    </rdf:RDF>
  </metadata>
  <g
     inkscape:label="Layer 1"
     inkscape:groupmode="layer"
     id="layer1"
     transform="translate(-85.127908,-117.60063)">
    <g
       id="g1011"
       transform="translate(-0.89864808,2.1966957)">
      <path
         style="fill:#748bc2;stroke-width:0.01050021"
         d="m 95.017561,151.84923 c 0.71467,-0.001 1.884131,-0.001 2.598801,0 0.714671,0.001 0.12994,0.003 -1.2994,0.003 -1.429341,0 -2.014071,-0.001 -1.299401,-0.003 z m -1.34862,-0.01 c 0.0076,-0.003 0.01664,-0.003 0.02012,8.3e-4 0.0035,0.003 -0.0027,0.006 -0.01378,0.006 -0.01223,-5.1e-4 -0.01472,-0.003 -0.0063,-0.006 z m 5.546078,-0.11229 c 0,-0.002 0.0083,-0.0104 0.01838,-0.0184 0.01665,-0.0131 0.01702,-0.0127 0.004,0.004 -0.01372,0.0175 -0.02234,0.0231 -0.02234,0.0144 z m -5.885761,-0.0722 -0.05211,-0.0551 0.05513,0.0521 c 0.05122,0.0484 0.05994,0.0581 0.05211,0.0581 -0.0017,0 -0.02647,-0.0248 -0.05513,-0.0551 z m 5.948762,0.0197 c 0,-0.002 0.0083,-0.0105 0.01838,-0.0184 0.01665,-0.0131 0.01703,-0.0127 0.004,0.004 -0.01372,0.0175 -0.02234,0.023 -0.02234,0.0144 z m 0.200333,-0.36967 c 5.04e-4,-0.0122 0.003,-0.0147 0.0063,-0.006 0.003,0.008 0.0027,0.0166 -8.29e-4,0.0201 -0.0035,0.003 -0.006,-0.003 -0.0055,-0.0138 z m -6.341296,-0.0359 c 0,-0.0144 0.0024,-0.0203 0.0053,-0.0131 0.0029,0.007 0.0029,0.019 0,0.0263 -0.0029,0.007 -0.0053,0.001 -0.0053,-0.0131 z m 6.356134,-2.5988 c 0,-1.42067 0.0012,-2.0003 0.0027,-1.28805 0.0015,0.71224 0.0015,1.87462 0,2.58305 -0.0015,0.70843 -0.0027,0.12568 -0.0027,-1.295 z m -1.792475,1.74053 c 0.03051,-0.002 0.07776,-0.002 0.105002,6e-5 0.02724,0.002 0.0023,0.004 -0.05548,0.004 -0.05775,-4e-5 -0.08004,-0.002 -0.04952,-0.004 z m -0.162906,-0.01 c 0.01022,-0.003 0.02439,-0.002 0.0315,3.9e-4 0.0071,0.003 -0.0012,0.005 -0.01857,0.005 -0.01732,-2.1e-4 -0.02314,-0.003 -0.01293,-0.005 z m 0.393558,3.2e-4 c 0.0072,-0.003 0.01903,-0.003 0.02625,0 0.0072,0.003 0.0013,0.005 -0.01312,0.005 -0.01444,0 -0.02035,-0.002 -0.01313,-0.005 z m -0.461352,-0.0107 c 0.0076,-0.003 0.01664,-0.003 0.02012,8.3e-4 0.0035,0.003 -0.0027,0.006 -0.01378,0.006 -0.01223,-5.1e-4 -0.01472,-0.003 -0.0063,-0.006 z m 0.53551,0 c 0.0076,-0.003 0.01664,-0.003 0.02013,8.3e-4 0.0035,0.003 -0.0027,0.006 -0.01378,0.006 -0.01223,-5.1e-4 -0.01472,-0.003 -0.0063,-0.006 z m -0.598512,-0.0105 c 0.0076,-0.003 0.01664,-0.003 0.02013,8.3e-4 0.0035,0.003 -0.0027,0.006 -0.01378,0.006 -0.01223,-5.1e-4 -0.01472,-0.003 -0.0063,-0.006 z m -2.588957,-0.0217 c 0.07941,-0.002 0.209348,-0.002 0.288756,0 0.07941,0.002 0.01444,0.003 -0.144378,0.003 -0.158816,0 -0.223786,-0.001 -0.144378,-0.003 z m -0.182468,-0.021 c -0.01306,-0.0166 -0.01269,-0.017 0.004,-0.004 0.01749,0.0137 0.02305,0.0223 0.01441,0.0223 -0.0022,0 -0.01045,-0.008 -0.01838,-0.0184 z m -0.01457,-1.39915 c 0,-0.75365 0.0013,-1.06197 0.0028,-0.68514 0.0015,0.37683 0.0015,0.99345 0,1.37028 -0.0015,0.37682 -0.0028,0.0685 -0.0028,-0.68514 z m 2.246202,1.1944 -0.02,-0.0236 0.02363,0.02 c 0.01299,0.011 0.02363,0.0216 0.02363,0.0236 0,0.008 -0.0085,0.002 -0.02725,-0.02 z m 1.696781,0.0197 c 0,-0.002 0.0083,-0.0104 0.01837,-0.0184 0.01665,-0.0131 0.01703,-0.0127 0.004,0.004 -0.01372,0.0175 -0.02234,0.0231 -0.02234,0.0144 z m -1.812283,-0.13516 -0.02,-0.0236 0.02363,0.02 c 0.0222,0.0188 0.02841,0.0273 0.02,0.0273 -0.002,0 -0.01262,-0.0106 -0.02362,-0.0236 z m 1.948786,-0.001 c 0,-0.002 0.0083,-0.0105 0.01838,-0.0184 0.01665,-0.0131 0.01703,-0.0127 0.004,0.004 -0.01372,0.0175 -0.02234,0.0231 -0.02234,0.0144 z m -0.989367,-0.19275 c 0.0247,-0.002 0.0625,-0.002 0.084,8e-5 0.0215,0.002 0.0013,0.004 -0.0449,0.004 -0.0462,-4e-5 -0.06379,-0.002 -0.0391,-0.004 z m -0.371408,-0.13142 -0.02,-0.0236 0.02363,0.02 c 0.01299,0.011 0.02362,0.0216 0.02362,0.0236 0,0.008 -0.0084,0.002 -0.02725,-0.02 z m 0.762263,0.0203 c 0,-0.002 0.01536,-0.0172 0.03413,-0.0341 l 0.03413,-0.0308 -0.03084,0.0341 c -0.02875,0.0318 -0.03741,0.0389 -0.03741,0.0308 z m -0.814764,-0.0728 -0.02,-0.0236 0.02363,0.02 c 0.01299,0.011 0.02362,0.0216 0.02362,0.0236 0,0.008 -0.0084,0.002 -0.02725,-0.02 z m -0.06243,-0.0926 c -0.0038,-0.006 -0.0047,-0.0135 -0.0019,-0.0162 0.0028,-0.003 0.0078,0.002 0.01122,0.0112 0.0071,0.0185 10e-4,0.0217 -0.0093,0.005 z m -0.707503,-0.0579 c 5.04e-4,-0.0122 0.003,-0.0147 0.0063,-0.006 0.003,0.008 0.0027,0.0166 -8.28e-4,0.0201 -0.0035,0.003 -0.006,-0.003 -0.0055,-0.0138 z m 2.425547,0 c 5.04e-4,-0.0122 0.003,-0.0147 0.0063,-0.006 0.003,0.008 0.0027,0.0166 -8.28e-4,0.0201 -0.0035,0.003 -0.006,-0.003 -0.0055,-0.0138 z m -2.435219,-0.0674 c 0,-0.0144 0.0024,-0.0204 0.0053,-0.0131 0.0029,0.007 0.0029,0.019 0,0.0263 -0.0029,0.007 -0.0053,0.001 -0.0053,-0.0131 z m 1.763206,-0.006 c 5.04e-4,-0.0122 0.003,-0.0147 0.0063,-0.006 0.003,0.008 0.0027,0.0166 -8.29e-4,0.0201 -0.0035,0.003 -0.006,-0.003 -0.0055,-0.0138 z m 0.684544,-0.0254 c 0,-0.026 0.002,-0.0366 0.0046,-0.0236 0.0025,0.013 0.0025,0.0343 0,0.0473 -0.0025,0.013 -0.0046,0.002 -0.0046,-0.0236 z m -0.672826,-0.0367 c 2.14e-4,-0.0173 0.0026,-0.0231 0.0052,-0.0129 0.0027,0.0102 0.0025,0.0244 -3.9e-4,0.0315 -0.0029,0.007 -0.0051,-10e-4 -0.0048,-0.0186 z m -1.113411,-0.0157 c 0,-0.0144 0.0024,-0.0204 0.0053,-0.0131 0.0029,0.007 0.0029,0.019 0,0.0263 -0.0029,0.007 -0.0053,0.001 -0.0053,-0.0131 z m -0.668731,-0.65102 c 0,-0.36094 0.0013,-0.5086 0.0029,-0.32813 0.0016,0.18047 0.0016,0.47579 0,0.65627 -0.0016,0.18047 -0.0029,0.0328 -0.0029,-0.32814 z m 0.66912,0.45676 c 2.15e-4,-0.0173 0.0026,-0.0231 0.0052,-0.0129 0.0027,0.0102 0.0025,0.0244 -3.9e-4,0.0315 -0.0029,0.007 -0.0051,-0.001 -0.0048,-0.0186 z m 1.785992,-0.0315 c 8.4e-5,-0.0289 0.0021,-0.0394 0.0045,-0.0235 0.0024,0.016 0.0023,0.0396 -1.43e-4,0.0525 -0.0025,0.0129 -0.0045,-1.4e-4 -0.0044,-0.029 z m -0.673359,0.0157 c 0,-0.0144 0.0024,-0.0203 0.0053,-0.0131 0.0029,0.007 0.0029,0.019 0,0.0262 -0.0029,0.007 -0.0053,0.001 -0.0053,-0.0131 z m -0.01133,-0.0691 c 5.04e-4,-0.0122 0.003,-0.0147 0.0063,-0.006 0.003,0.008 0.0027,0.0166 -8.29e-4,0.0201 -0.0035,0.003 -0.006,-0.003 -0.0055,-0.0138 z m 0.672013,-0.063 c 5.04e-4,-0.0122 0.003,-0.0147 0.0063,-0.006 0.003,0.008 0.0027,0.0166 -8.28e-4,0.0201 -0.0035,0.003 -0.006,-0.003 -0.0055,-0.0138 z m -0.0105,-0.063 c 5.04e-4,-0.0122 0.003,-0.0147 0.0063,-0.006 0.003,0.008 0.0027,0.0166 -8.29e-4,0.0201 -0.0035,0.003 -0.006,-0.003 -0.0055,-0.0138 z m -0.80991,-0.15925 -0.03619,-0.0394 0.03938,0.0362 c 0.03665,0.0337 0.0442,0.0426 0.03619,0.0426 -0.0018,0 -0.01947,-0.0177 -0.03938,-0.0394 z m -0.807951,0.0249 c 0,-0.002 0.0083,-0.0105 0.01838,-0.0184 0.01665,-0.0131 0.01702,-0.0127 0.004,0.004 -0.01372,0.0175 -0.02234,0.023 -0.02234,0.0144 z m 0.260537,-0.15021 c 0.0076,-0.003 0.01664,-0.003 0.02012,8.3e-4 0.0035,0.003 -0.0027,0.006 -0.01378,0.006 -0.01223,-5e-4 -0.01472,-0.003 -0.0063,-0.006 z m 0.0525,-0.0105 c 0.0076,-0.003 0.01664,-0.003 0.02012,8.3e-4 0.0035,0.003 -0.0027,0.006 -0.01378,0.006 -0.01223,-5e-4 -0.01472,-0.003 -0.0063,-0.006 z m 0.219848,2.2e-4 c 0.0072,-0.003 0.01903,-0.003 0.02625,0 0.0072,0.003 0.0013,0.005 -0.01313,0.005 -0.01444,0 -0.02034,-0.002 -0.01312,-0.005 z m -0.11538,-0.011 c 0.01306,-0.003 0.03196,-0.002 0.042,2.1e-4 0.01004,0.003 -6.48e-4,0.005 -0.02375,0.005 -0.0231,-1.1e-4 -0.03131,-0.002 -0.01825,-0.005 z m 0.967727,-0.18946 -0.02546,-0.0289 0.02888,0.0255 c 0.01588,0.014 0.02887,0.027 0.02887,0.0289 0,0.008 -0.0085,0.002 -0.0323,-0.0255 z m -0.0945,-0.0945 -0.02546,-0.0289 0.02888,0.0255 c 0.01588,0.014 0.02887,0.027 0.02887,0.0289 0,0.008 -0.0085,0.002 -0.0323,-0.0255 z m -1.395733,-0.0276 c 0,-0.002 0.0083,-0.0104 0.01838,-0.0184 0.01665,-0.0131 0.01702,-0.0127 0.004,0.004 -0.01372,0.0175 -0.02234,0.023 -0.02234,0.0144 z m 0.94305,-0.19221 c 0.0076,-0.003 0.01664,-0.003 0.02012,8.3e-4 0.0035,0.003 -0.0027,0.006 -0.01378,0.006 -0.01223,-5e-4 -0.01472,-0.003 -0.0063,-0.006 z m -0.52501,-0.0105 c 0.0076,-0.003 0.01664,-0.003 0.02012,8.3e-4 0.0035,0.003 -0.0027,0.006 -0.01378,0.006 -0.01223,-5e-4 -0.01472,-0.003 -0.0063,-0.006 z m 0.472509,0 c 0.0076,-0.003 0.01664,-0.003 0.02013,8.3e-4 0.0035,0.003 -0.0027,0.006 -0.01378,0.006 -0.01223,-5e-4 -0.01472,-0.003 -0.0063,-0.006 z m -0.410164,-0.0103 c 0.0072,-0.003 0.01903,-0.003 0.02625,0 0.0072,0.003 0.0013,0.005 -0.01313,0.005 -0.01444,0 -0.02034,-0.002 -0.01313,-0.005 z m 0.336006,0 c 0.0072,-0.003 0.01903,-0.003 0.02625,0 0.0072,0.003 0.0013,0.005 -0.01313,0.005 -0.01444,0 -0.02034,-0.002 -0.01313,-0.005 z m -0.199226,-0.0113 c 0.0247,-0.002 0.0625,-0.002 0.084,7e-5 0.0215,0.002 0.0013,0.004 -0.0449,0.004 -0.0462,-5e-5 -0.06379,-0.002 -0.0391,-0.004 z m -0.657119,-0.029 c 2.15e-4,-0.0173 0.0026,-0.0231 0.0052,-0.0129 0.0027,0.0102 0.0025,0.0244 -3.9e-4,0.0315 -0.0029,0.007 -0.0051,-0.001 -0.0048,-0.0186 z m 0.0093,-0.0849 c 5.04e-4,-0.0122 0.003,-0.0147 0.0063,-0.006 0.003,0.008 0.0027,0.0166 -8.28e-4,0.0201 -0.0035,0.003 -0.006,-0.003 -0.0055,-0.0138 z m -0.671185,-0.0149 c 0,-0.0144 0.0024,-0.0203 0.0053,-0.0131 0.0029,0.007 0.0029,0.019 0,0.0263 -0.0029,0.007 -0.0053,10e-4 -0.0053,-0.0131 z m 0.0097,-0.0691 c 5.04e-4,-0.0122 0.003,-0.0147 0.0063,-0.006 0.003,0.008 0.0027,0.0166 -8.28e-4,0.0201 -0.0035,0.003 -0.006,-0.003 -0.0055,-0.0138 z m 1.803237,-0.022 c 0.0076,-0.003 0.01664,-0.003 0.02013,8.2e-4 0.0035,0.003 -0.0027,0.006 -0.01378,0.006 -0.01223,-5.1e-4 -0.01472,-0.003 -0.0063,-0.006 z m -0.04137,-0.0217 c -0.01306,-0.0166 -0.01269,-0.017 0.004,-0.004 0.01749,0.0137 0.02305,0.0223 0.01441,0.0223 -0.0022,0 -0.01045,-0.008 -0.01837,-0.0184 z m 0.553713,-0.16172 c 0.01094,-0.0153 0.02199,-0.0258 0.02455,-0.0233 0.0026,0.002 -0.0064,0.015 -0.01989,0.0279 l -0.02455,0.0233 z m -1.476392,-0.0444 c 0,-0.002 0.0083,-0.0104 0.01838,-0.0184 0.01665,-0.0131 0.01703,-0.0127 0.004,0.004 -0.01372,0.0175 -0.02234,0.023 -0.02234,0.0144 z m -1.154148,-0.0725 c 0.0024,-0.002 0.01383,-0.01 0.02538,-0.0184 0.01942,-0.0143 0.01992,-0.014 0.0066,0.003 -0.0079,0.0101 -0.01934,0.0184 -0.02537,0.0184 -0.006,0 -0.009,-0.001 -0.0066,-0.003 z m 0.04567,-0.29103 c 0,-0.14149 0.0015,-0.19938 0.0033,-0.12863 0.0018,0.0707 0.0018,0.18651 0,0.25725 -0.0018,0.0708 -0.0033,0.0129 -0.0033,-0.12862 z m 1.379518,0.24483 c 0.0076,-0.003 0.01664,-0.003 0.02012,8.3e-4 0.0035,0.003 -0.0027,0.006 -0.01378,0.006 -0.01223,-5e-4 -0.01472,-0.003 -0.0063,-0.006 z m 0.252005,0 c 0.0076,-0.003 0.01664,-0.003 0.02012,8.3e-4 0.0035,0.003 -0.0027,0.006 -0.01378,0.006 -0.01223,-5e-4 -0.01472,-0.003 -0.0063,-0.006 z m -0.142409,-0.0109 c 0.01588,-0.002 0.04187,-0.002 0.05775,0 0.01588,0.002 0.0029,0.004 -0.02888,0.004 -0.03176,0 -0.04476,-0.002 -0.02887,-0.004 z m -0.973895,-0.16048 c 0.01045,-0.0115 0.02137,-0.021 0.02426,-0.021 0.0029,0 -0.0033,0.009 -0.01376,0.021 -0.01045,0.0115 -0.02137,0.021 -0.02426,0.021 -0.0029,0 0.0033,-0.009 0.01376,-0.021 z m 1.89954,-0.0551 -0.02,-0.0236 0.02363,0.02 c 0.0222,0.0188 0.02841,0.0273 0.02,0.0273 -0.002,0 -0.01262,-0.0106 -0.02363,-0.0236 z m -1.763037,-0.0814 c 0.01045,-0.0115 0.02137,-0.021 0.02426,-0.021 0.0029,0 -0.0033,0.009 -0.01376,0.021 -0.01045,0.0116 -0.02137,0.021 -0.02425,0.021 -0.0029,0 0.0033,-0.009 0.01375,-0.021 z m 1.641943,-0.0394 c -0.01306,-0.0166 -0.01269,-0.017 0.004,-0.004 0.01749,0.0137 0.02305,0.0223 0.01441,0.0223 -0.0022,0 -0.01045,-0.008 -0.01837,-0.0184 z m -4.870756,-0.15359 c 0,-0.002 0.0083,-0.0105 0.01837,-0.0184 0.01665,-0.0131 0.01703,-0.0127 0.004,0.004 -0.01372,0.0175 -0.02234,0.023 -0.02234,0.0144 z m 0.664138,-0.0354 c 0.345063,-0.002 0.909711,-0.002 1.254774,0 0.345063,0.002 0.06274,0.003 -0.627387,0.003 -0.690126,0 -0.97245,-0.001 -0.627387,-0.003 z m 3.082467,-0.0203 c 0.0076,-0.003 0.01664,-0.003 0.02013,8.3e-4 0.0035,0.003 -0.0027,0.006 -0.01378,0.006 -0.01223,-5e-4 -0.01472,-0.003 -0.0063,-0.006 z m 0.0525,-0.0105 c 0.0076,-0.003 0.01664,-0.003 0.02012,8.3e-4 0.0035,0.003 -0.0027,0.006 -0.01378,0.006 -0.01223,-5e-4 -0.01472,-0.003 -0.0063,-0.006 z m 0.567011,0 c 0.0076,-0.003 0.01664,-0.003 0.02013,8.3e-4 0.0035,0.003 -0.0027,0.006 -0.01378,0.006 -0.01223,-5e-4 -0.01472,-0.003 -0.0063,-0.006 z m -0.494166,-0.0103 c 0.0072,-0.003 0.01903,-0.003 0.02625,0 0.0072,0.003 0.0013,0.005 -0.01313,0.005 -0.01444,0 -0.02034,-0.002 -0.01313,-0.005 z m 0.420008,0 c 0.0072,-0.003 0.01903,-0.003 0.02625,0 0.0072,0.003 0.0013,0.005 -0.01313,0.005 -0.01444,0 -0.02034,-0.002 -0.01313,-0.005 z m -0.267755,-0.0113 c 0.03898,-0.002 0.102771,-0.002 0.141753,0 0.03898,0.002 0.0071,0.004 -0.07088,0.004 -0.07796,0 -0.109858,-0.002 -0.07088,-0.004 z m -4.558057,-0.85323 c 0,-0.0144 0.0024,-0.0203 0.0053,-0.0131 0.0029,0.007 0.0029,0.019 0,0.0263 -0.0029,0.007 -0.0053,0.001 -0.0053,-0.0131 z m 6.341296,-0.0376 c 5.04e-4,-0.0122 0.003,-0.0147 0.0063,-0.006 0.003,0.008 0.0027,0.0166 -8.29e-4,0.0201 -0.0035,0.003 -0.006,-0.003 -0.0055,-0.0138 z M 93.24045,145.7948 c 0,-0.002 0.0083,-0.0104 0.01837,-0.0184 0.01665,-0.0131 0.01703,-0.0127 0.004,0.004 -0.01372,0.0175 -0.02234,0.023 -0.02234,0.0144 z m 0.04725,-0.059 c 0.01045,-0.0115 0.02137,-0.021 0.02426,-0.021 0.0029,0 -0.0033,0.009 -0.01376,0.021 -0.01045,0.0115 -0.02137,0.021 -0.02425,0.021 -0.0029,0 0.0033,-0.009 0.01375,-0.021 z m 6.000303,-0.0499 -0.03619,-0.0394 0.03938,0.0362 c 0.03665,0.0337 0.0442,0.0426 0.03619,0.0426 -0.0018,0 -0.01947,-0.0177 -0.03938,-0.0394 z m -5.921551,-0.0289 c 0.01356,-0.0144 0.02702,-0.0263 0.02991,-0.0263 0.0029,0 -0.0058,0.0118 -0.01941,0.0263 -0.01356,0.0144 -0.02702,0.0262 -0.02991,0.0262 -0.0029,0 0.0058,-0.0118 0.01941,-0.0262 z m 0.292037,-0.14892 c 0.0076,-0.003 0.01664,-0.003 0.02013,8.3e-4 0.0035,0.003 -0.0027,0.006 -0.01378,0.006 -0.01223,-5e-4 -0.01472,-0.003 -0.0063,-0.006 z m 0.05729,-0.0106 c 0.01022,-0.003 0.02439,-0.002 0.0315,3.9e-4 0.0071,0.003 -0.0012,0.005 -0.01857,0.005 -0.01733,-2.1e-4 -0.02314,-0.003 -0.01293,-0.005 z m 5.171152,3.3e-4 c 0.0072,-0.003 0.01903,-0.003 0.02625,0 0.0072,0.003 0.0013,0.005 -0.01313,0.005 -0.01444,0 -0.02034,-0.002 -0.01313,-0.005 z"
         id="path1015"
         inkscape:connector-curvature="0" />
    </g>
    <g
       id="g1017"
       transform="matrix(7.0809754,0,0,7.0786488,-657.04354,-909.77425)">
      <path
         style="fill:#4664af;fill-opacity:1;stroke-width:0.01050021"
         d="m 105.8991,152.03971 c -0.19876,-0.0426 -0.36768,-0.17264 -0.45825,-0.35266 -0.0806,-0.16021 -0.0748,0.0718 -0.0715,-2.84857 l 0.003,-2.61455 0.0232,-0.0606 c 0.0445,-0.11658 0.0912,-0.19046 0.171,-0.27033 0.0915,-0.0916 0.18825,-0.14719 0.31101,-0.17858 0.0795,-0.0203 0.12725,-0.0207 2.66496,-0.0205 2.8505,2e-4 2.65496,-0.004 2.80255,0.0671 0.19341,0.0938 0.33402,0.28062 0.37056,0.49237 0.0127,0.0736 0.0145,0.47301 0.0119,2.66414 -0.003,2.45611 -0.004,2.58054 -0.0221,2.64058 -0.055,0.18159 -0.19369,0.34799 -0.35421,0.42496 -0.16519,0.0792 0.0551,0.0735 -2.80785,0.0728 -2.21733,-5.8e-4 -2.58244,-0.003 -2.64421,-0.016 z m 4.34077,-1.44882 c 0.25901,-0.0442 0.47246,-0.15025 0.64054,-0.31833 0.22992,-0.22993 0.32698,-0.51153 0.31017,-0.89992 -0.0132,-0.3046 -0.0831,-0.51642 -0.23292,-0.70592 -0.12205,-0.15435 -0.31601,-0.27561 -0.53481,-0.33435 -0.0978,-0.0263 -0.11971,-0.0282 -0.32026,-0.0282 -0.18812,3e-5 -0.22555,0.003 -0.29698,0.0227 -0.11294,0.0313 -0.24103,0.0936 -0.32477,0.15808 -0.0388,0.0298 -0.0736,0.0542 -0.0775,0.0542 -0.004,0 -0.005,-0.0791 -0.002,-0.17588 0.004,-0.1277 0.011,-0.19614 0.0258,-0.24984 0.0555,-0.20167 0.17954,-0.32634 0.37566,-0.37764 0.0771,-0.0202 0.28277,-0.0227 0.35701,-0.004 0.14034,0.0346 0.24576,0.11324 0.30148,0.2248 0.0385,0.077 0.0678,0.11043 0.097,0.11043 0.0267,0 0.4382,-0.13656 0.486,-0.1613 0.0542,-0.0281 0.0541,-0.0563 -6.4e-4,-0.16954 -0.16157,-0.3342 -0.40088,-0.51158 -0.77945,-0.57772 -0.12477,-0.0218 -0.37981,-0.0248 -0.50341,-0.006 -0.5611,0.0856 -0.92903,0.44411 -1.01508,0.989 -0.0105,0.0667 -0.0139,0.25247 -0.0138,0.76027 1.3e-4,0.6074 0.002,0.68206 0.0195,0.77643 0.0959,0.51817 0.42386,0.83004 0.96078,0.9137 0.13045,0.0203 0.40594,0.0199 0.52715,-7.2e-4 z m -0.38383,-0.57184 c -0.12363,-0.0207 -0.25157,-0.0862 -0.32277,-0.16528 -0.14583,-0.16199 -0.17882,-0.49458 -0.0718,-0.72338 0.0374,-0.0799 0.12975,-0.18053 0.20459,-0.22297 0.1715,-0.0972 0.41235,-0.10316 0.58741,-0.0145 0.11926,0.0604 0.21907,0.20462 0.25321,0.36582 0.0201,0.0949 0.0199,0.27509 -3.1e-4,0.36103 -0.0698,0.29629 -0.32589,0.45346 -0.65038,0.39923 z m -2.35163,0.52131 c 0.02,-0.0146 0.0204,-0.0426 0.0231,-1.39127 l 0.003,-1.37638 h 0.45502 c 0.44925,0 0.45527,-2.8e-4 0.47502,-0.0221 0.0185,-0.0204 0.02,-0.041 0.02,-0.27139 0,-0.19586 -0.003,-0.25301 -0.0144,-0.26666 -0.0133,-0.016 -0.11543,-0.0174 -1.27803,-0.0174 -1.23856,0 -1.26383,4e-4 -1.27449,0.0203 -0.007,0.0123 -0.0109,0.11727 -0.0109,0.26776 0,0.23344 10e-4,0.24863 0.021,0.26844 0.0204,0.0204 0.035,0.021 0.47776,0.021 h 0.45676 v 1.37208 c 0,1.26199 0.001,1.37361 0.0174,1.39127 0.016,0.0177 0.0399,0.0192 0.313,0.0192 0.23873,0 0.29954,-0.003 0.316,-0.0149 z M 105.178,145.4797 c 0,-0.002 0.008,-0.0105 0.0184,-0.0184 0.0167,-0.0131 0.017,-0.0127 0.004,0.004 -0.0137,0.0175 -0.0223,0.023 -0.0223,0.0144 z"
         id="path1021"
         inkscape:connector-curvature="0" />
      <path
         style="fill:#ffffff;stroke-width:0.01050021"
         d="m 105.82478,152.59644 c -0.38145,-0.0689 -0.71258,-0.31593 -0.88693,-0.66171 -0.0524,-0.10383 -0.0896,-0.21425 -0.11102,-0.32944 -0.0149,-0.0802 -0.0163,-0.36158 -0.0138,-2.77206 l 0.003,-2.6828 0.0287,-0.0974 c 0.07,-0.23773 0.16834,-0.40433 0.33609,-0.56912 0.17386,-0.17081 0.40341,-0.28892 0.64253,-0.33062 0.0816,-0.0142 0.40379,-0.0161 2.72537,-0.0161 2.8927,0 2.71086,-0.004 2.90458,0.0637 0.44559,0.15574 0.75611,0.53471 0.82284,1.00419 0.008,0.0587 0.0106,0.82892 0.008,2.72266 -0.004,2.88767 9e-4,2.66457 -0.0614,2.8469 -0.12744,0.37303 -0.43215,0.67109 -0.80322,0.78571 -0.17843,0.0551 -0.0587,0.053 -2.88661,0.052 -2.22522,-7.6e-4 -2.63769,-0.003 -2.70803,-0.0159 z m 5.36459,-0.55555 c 0.0404,-0.009 0.11323,-0.0346 0.16179,-0.0579 0.16052,-0.077 0.29921,-0.24337 0.35421,-0.42496 0.0182,-0.06 0.0192,-0.18447 0.0221,-2.64058 0.003,-2.19113 7.5e-4,-2.59055 -0.0119,-2.66414 -0.0365,-0.21175 -0.17715,-0.39857 -0.37056,-0.49237 -0.14759,-0.0716 0.048,-0.0669 -2.80255,-0.0671 -2.53771,-1.8e-4 -2.58545,1.9e-4 -2.66496,0.0205 -0.22432,0.0574 -0.39223,0.21375 -0.48201,0.44891 l -0.0232,0.0606 -0.003,2.61455 c -0.003,2.92035 -0.009,2.68836 0.0715,2.84857 0.0906,0.18002 0.25949,0.31002 0.45825,0.35266 0.10881,0.0233 5.18013,0.0245 5.29027,0.001 z m -1.47665,-1.44928 c -0.53692,-0.0837 -0.86486,-0.39553 -0.96078,-0.9137 -0.0175,-0.0944 -0.0193,-0.16903 -0.0195,-0.77643 -1.2e-4,-0.5078 0.003,-0.69357 0.0138,-0.76027 0.0766,-0.48478 0.38607,-0.83343 0.84707,-0.95418 0.13492,-0.0353 0.24143,-0.0477 0.40951,-0.0474 0.3646,6.1e-4 0.63561,0.0968 0.83549,0.29641 0.0843,0.0842 0.1429,0.16957 0.20587,0.29982 0.0547,0.11323 0.0549,0.14147 6.4e-4,0.16954 -0.0478,0.0247 -0.45925,0.1613 -0.486,0.1613 -0.0292,0 -0.0585,-0.0334 -0.097,-0.11043 -0.0557,-0.11156 -0.16114,-0.19016 -0.30148,-0.2248 -0.0742,-0.0183 -0.27987,-0.0158 -0.35701,0.004 -0.19612,0.0513 -0.32014,0.17597 -0.37566,0.37764 -0.0148,0.0537 -0.0219,0.12214 -0.0258,0.24984 -0.003,0.0967 -0.002,0.17588 0.002,0.17588 0.004,0 0.0387,-0.0244 0.0775,-0.0542 0.0837,-0.0644 0.21183,-0.12679 0.32477,-0.15808 0.0714,-0.0198 0.10886,-0.0226 0.29698,-0.0227 0.20055,-3e-5 0.22243,0.002 0.32026,0.0282 0.34882,0.0936 0.59082,0.31654 0.70357,0.64803 0.0384,0.11306 0.057,0.22629 0.0642,0.39224 0.0105,0.24269 -0.021,0.43145 -0.10042,0.60111 -0.1548,0.3308 -0.45687,0.55004 -0.85029,0.61714 -0.12121,0.0207 -0.3967,0.0211 -0.52715,7.2e-4 z m 0.40166,-0.57646 c 0.20099,-0.0426 0.34255,-0.18534 0.39204,-0.39533 0.0203,-0.0859 0.0204,-0.26613 3.1e-4,-0.36103 -0.0341,-0.1612 -0.13395,-0.30538 -0.25321,-0.36582 -0.17506,-0.0887 -0.41591,-0.0828 -0.58741,0.0145 -0.0748,0.0424 -0.16722,0.14311 -0.20459,0.22297 -0.10706,0.2288 -0.0741,0.56139 0.0718,0.72338 0.12456,0.13838 0.36915,0.20631 0.58111,0.16138 z m -3.23897,0.52091 c -0.016,-0.0177 -0.0174,-0.12928 -0.0174,-1.39127 v -1.37208 h -0.45676 c -0.44276,0 -0.4574,-6.4e-4 -0.47776,-0.021 -0.0198,-0.0198 -0.021,-0.035 -0.021,-0.26844 0,-0.15049 0.004,-0.25541 0.0109,-0.26776 0.0107,-0.0199 0.0359,-0.0203 1.27449,-0.0203 1.1626,0 1.26477,0.001 1.27803,0.0174 0.0113,0.0137 0.0144,0.0708 0.0144,0.26666 0,0.23041 -0.002,0.25096 -0.02,0.27139 -0.0198,0.0218 -0.0258,0.0221 -0.47502,0.0221 h -0.45502 l -0.003,1.37638 c -0.003,1.34869 -0.003,1.37667 -0.0231,1.39127 -0.0165,0.012 -0.0773,0.0149 -0.316,0.0149 -0.27306,0 -0.29695,-0.001 -0.313,-0.0192 z"
         id="path1019"
         inkscape:connector-curvature="0" />
    </g>
  </g>
</svg>
