<?xml version="1.0" encoding="UTF-8" standalone="no"?>
<!-- Created with Inkscape (http://www.inkscape.org/) -->

<svg
   xmlns:dc="http://purl.org/dc/elements/1.1/"
   xmlns:cc="http://creativecommons.org/ns#"
   xmlns:rdf="http://www.w3.org/1999/02/22-rdf-syntax-ns#"
   xmlns:svg="http://www.w3.org/2000/svg"
   xmlns="http://www.w3.org/2000/svg"
   xmlns:sodipodi="http://sodipodi.sourceforge.net/DTD/sodipodi-0.dtd"
   xmlns:inkscape="http://www.inkscape.org/namespaces/inkscape"
   width="52.916668mm"
   height="52.916668mm"
   viewBox="0 0 52.916668 52.916668"
   version="1.1"
   id="svg8"
   inkscape:version="0.92.3 (2405546, 2018-03-11)"
   sodipodi:docname="T1.svg">
  <defs
     id="defs2" />
  <sodipodi:namedview
     id="base"
     pagecolor="#ffffff"
     bordercolor="#666666"
     borderopacity="1.0"
     inkscape:pageopacity="0.0"
     inkscape:pageshadow="2"
     inkscape:zoom="2.4697015"
     inkscape:cx="78.529285"
     inkscape:cy="71.793227"
     inkscape:document-units="mm"
     inkscape:current-layer="layer1"
     showgrid="false"
     inkscape:pagecheckerboard="true"
     fit-margin-top="0"
     fit-margin-left="0"
     fit-margin-right="0"
     fit-margin-bottom="0"
     inkscape:window-width="932"
     inkscape:window-height="887"
     inkscape:window-x="937"
     inkscape:window-y="80"
     inkscape:window-maximized="0" />
  <metadata
     id="metadata5">
    <rdf:RDF>
      <cc:Work
         rdf:about="">
        <dc:format>image/svg+xml</dc:format>
        <dc:type
           rdf:resource="http://purl.org/dc/dcmitype/StillImage" />
        <dc:title></dc:title>
      </cc:Work>
    </rdf:RDF>
  </metadata>
  <g
     inkscape:label="Layer 1"
     inkscape:groupmode="layer"
     id="layer1"
     transform="translate(-85.055793,-114.91196)">
    <g
       id="g36"
       transform="matrix(7.0805925,0,0,7.0808813,-639.11213,-917.75407)">
      <path
         style="fill:#f6910f;fill-opacity:1;stroke-width:0.01050021"
         d="m 103.36211,152.74116 c -0.19896,-0.0429 -0.3677,-0.17273 -0.45825,-0.35272 -0.0806,-0.16021 -0.0748,0.0718 -0.0715,-2.84857 l 0.003,-2.61455 0.0232,-0.0606 c 0.0703,-0.18407 0.1866,-0.31932 0.33946,-0.39467 0.16318,-0.0805 -0.0579,-0.0746 2.8137,-0.0746 2.84379,0 2.64877,-0.005 2.79636,0.0669 0.19108,0.0927 0.33302,0.27942 0.37,0.48679 0.022,0.12322 0.0215,5.13432 -4.9e-4,5.25778 -0.0431,0.24206 -0.22447,0.44197 -0.47781,0.52671 -0.0554,0.0185 -0.16401,0.0194 -2.66181,0.0212 -2.2565,0.002 -2.61361,-2.3e-4 -2.67571,-0.0136 z m 1.77974,-1.50188 c 0.0184,-0.0167 0.0192,-0.0736 0.0192,-1.39128 v -1.3739 h 0.45676 c 0.44275,0 0.4574,-6.4e-4 0.47776,-0.021 0.0198,-0.0198 0.021,-0.035 0.021,-0.26955 0,-0.21655 -0.002,-0.25103 -0.0174,-0.26776 -0.0166,-0.0184 -0.07,-0.0192 -1.27518,-0.0192 h -1.2578 l -0.0164,0.0233 c -0.0136,0.0195 -0.0164,0.0629 -0.0164,0.26109 0,0.22462 0.001,0.23928 0.0218,0.26542 l 0.0218,0.0277 h 0.456 0.45599 v 1.36794 c 0,1.2211 0.002,1.37045 0.0164,1.39128 0.0162,0.0232 0.0182,0.0233 0.3168,0.0233 0.26485,0 0.30274,-0.002 0.31966,-0.0174 z m 3.32077,8.8e-4 c 0.0141,-0.0141 0.0165,-0.0541 0.0165,-0.27616 0,-0.18795 -0.003,-0.26313 -0.0126,-0.27225 -0.009,-0.009 -0.0868,-0.0126 -0.2835,-0.0126 h -0.27091 v -1.39128 -1.39128 h -0.22973 -0.22973 l -0.0135,0.0326 c -0.0213,0.0513 -0.10884,0.13385 -0.17144,0.16153 -0.0782,0.0346 -0.23944,0.0802 -0.46338,0.13112 -0.2249,0.0511 -0.24512,0.0584 -0.25325,0.0908 -0.003,0.0137 0.001,0.1111 0.0102,0.21655 0.0148,0.17265 0.0187,0.19357 0.039,0.21011 0.0124,0.0101 0.0374,0.0183 0.0555,0.0183 0.0323,-7e-5 0.37292,-0.0246 0.51335,-0.037 l 0.0709,-0.006 v 0.9824 0.98241 h -0.29056 c -0.25562,0 -0.29286,0.002 -0.30975,0.0174 -0.0176,0.0159 -0.0192,0.0386 -0.0192,0.26956 0,0.21991 0.002,0.25463 0.0174,0.27137 0.0166,0.0183 0.0587,0.0192 0.91277,0.0192 0.79999,0 0.89715,-0.002 0.91189,-0.0165 z"
         id="path40"
         inkscape:connector-curvature="0" />
      <path
         style="fill:#ffffff;stroke-width:0.01050021"
         d="m 103.28779,153.2979 c -0.38192,-0.0693 -0.71259,-0.31602 -0.88693,-0.66178 -0.0524,-0.10383 -0.0896,-0.21425 -0.11102,-0.32944 -0.0149,-0.0802 -0.0163,-0.36158 -0.0138,-2.77206 l 0.003,-2.6828 0.029,-0.0986 c 0.042,-0.14297 0.0924,-0.25231 0.16908,-0.36721 0.18653,-0.27938 0.48376,-0.47452 0.80921,-0.53128 0.0816,-0.0142 0.40389,-0.0161 2.72638,-0.0161 2.55126,0 2.63702,6.3e-4 2.73655,0.0201 0.51289,0.10029 0.89938,0.49901 0.98433,1.01548 0.0155,0.0942 0.0167,0.34662 0.0135,2.74975 -0.003,2.43732 -0.005,2.65162 -0.0212,2.71654 -0.11977,0.47792 -0.44232,0.81222 -0.90758,0.94065 l -0.10284,0.0284 -2.67231,0.002 c -2.28047,10e-4 -2.68447,-4.5e-4 -2.75528,-0.0133 z m 5.41184,-0.56428 c 0.25334,-0.0847 0.43469,-0.28465 0.47781,-0.52671 0.022,-0.12346 0.0225,-5.13456 4.9e-4,-5.25778 -0.0467,-0.26187 -0.26003,-0.48409 -0.517,-0.53854 -0.10845,-0.023 -5.19079,-0.0228 -5.30066,2.1e-4 -0.22689,0.0475 -0.40989,0.21297 -0.50186,0.45388 l -0.0232,0.0606 -0.003,2.61455 c -0.003,2.92035 -0.009,2.68836 0.0715,2.84857 0.0906,0.17999 0.25929,0.30986 0.45825,0.35272 0.0621,0.0134 0.41921,0.0152 2.67571,0.0136 2.4978,-0.002 2.60641,-0.003 2.66181,-0.0212 z m -4.19424,-1.5003 c -0.0146,-0.0208 -0.0164,-0.17018 -0.0164,-1.39128 v -1.36794 h -0.45599 -0.456 l -0.0218,-0.0277 c -0.0206,-0.0261 -0.0218,-0.0408 -0.0218,-0.26542 0,-0.19819 0.003,-0.24164 0.0164,-0.26109 l 0.0164,-0.0233 h 1.2578 c 1.2052,0 1.25853,8e-4 1.27518,0.0192 0.0151,0.0167 0.0174,0.0512 0.0174,0.26776 0,0.23455 -0.001,0.24973 -0.021,0.26955 -0.0204,0.0204 -0.035,0.021 -0.47776,0.021 h -0.45676 v 1.3739 c 0,1.31768 -7.9e-4,1.37461 -0.0192,1.39128 -0.0169,0.0153 -0.0548,0.0174 -0.31966,0.0174 -0.29858,0 -0.30056,-1.5e-4 -0.3168,-0.0233 z m 2.13257,0.004 c -0.0152,-0.0167 -0.0174,-0.0515 -0.0174,-0.27137 0,-0.23097 0.002,-0.25364 0.0192,-0.26956 0.0169,-0.0153 0.0541,-0.0174 0.30975,-0.0174 h 0.29056 v -0.98241 -0.9824 l -0.0709,0.006 c -0.14043,0.0124 -0.48109,0.0369 -0.51335,0.037 -0.0181,5e-5 -0.0431,-0.008 -0.0555,-0.0183 -0.0203,-0.0165 -0.0242,-0.0375 -0.039,-0.21011 -0.009,-0.10545 -0.0136,-0.2029 -0.0102,-0.21655 0.008,-0.0324 0.0284,-0.0396 0.25325,-0.0908 0.22394,-0.0509 0.38515,-0.0965 0.46338,-0.13112 0.0626,-0.0277 0.15018,-0.1102 0.17144,-0.16153 l 0.0135,-0.0326 h 0.22973 0.22973 v 1.39128 1.39128 h 0.27091 c 0.1967,0 0.27435,0.003 0.2835,0.0126 0.009,0.009 0.0126,0.0843 0.0126,0.27225 0,0.22205 -0.002,0.26205 -0.0165,0.27616 -0.0147,0.0147 -0.1119,0.0165 -0.91189,0.0165 -0.8541,0 -0.89619,-8.9e-4 -0.91277,-0.0192 z"
         id="path38"
         inkscape:connector-curvature="0" />
    </g>
  </g>
</svg>
