<?xml version="1.0" encoding="UTF-8" standalone="no"?>
<!-- Created with Inkscape (http://www.inkscape.org/) -->

<svg
   xmlns:dc="http://purl.org/dc/elements/1.1/"
   xmlns:cc="http://creativecommons.org/ns#"
   xmlns:rdf="http://www.w3.org/1999/02/22-rdf-syntax-ns#"
   xmlns:svg="http://www.w3.org/2000/svg"
   xmlns="http://www.w3.org/2000/svg"
   xmlns:sodipodi="http://sodipodi.sourceforge.net/DTD/sodipodi-0.dtd"
   xmlns:inkscape="http://www.inkscape.org/namespaces/inkscape"
   width="52.916668mm"
   height="52.916668mm"
   viewBox="0 0 52.916668 52.916668"
   version="1.1"
   id="svg8"
   inkscape:version="0.92.3 (2405546, 2018-03-11)"
   sodipodi:docname="T7.svg">
  <defs
     id="defs2" />
  <sodipodi:namedview
     id="base"
     pagecolor="#ffffff"
     bordercolor="#666666"
     borderopacity="1.0"
     inkscape:pageopacity="0.0"
     inkscape:pageshadow="2"
     inkscape:zoom="5.2996274"
     inkscape:cx="75.585283"
     inkscape:cy="80.419196"
     inkscape:document-units="mm"
     inkscape:current-layer="layer1"
     showgrid="false"
     inkscape:pagecheckerboard="true"
     fit-margin-top="0"
     fit-margin-left="0"
     fit-margin-right="0"
     fit-margin-bottom="0"
     inkscape:window-width="932"
     inkscape:window-height="887"
     inkscape:window-x="860"
     inkscape:window-y="52"
     inkscape:window-maximized="0" />
  <metadata
     id="metadata5">
    <rdf:RDF>
      <cc:Work
         rdf:about="">
        <dc:format>image/svg+xml</dc:format>
        <dc:type
           rdf:resource="http://purl.org/dc/dcmitype/StillImage" />
        <dc:title></dc:title>
      </cc:Work>
    </rdf:RDF>
  </metadata>
  <g
     inkscape:label="Layer 1"
     inkscape:groupmode="layer"
     id="layer1"
     transform="translate(-85.834726,-117.19425)">
    <g
       id="g1011"
       transform="translate(-0.89864808,2.1966957)">
      <path
         style="fill:#748bc2;stroke-width:0.01050021"
         d="m 95.017561,151.84923 c 0.71467,-0.001 1.884131,-0.001 2.598801,0 0.714671,0.001 0.12994,0.003 -1.2994,0.003 -1.429341,0 -2.014071,-0.001 -1.299401,-0.003 z m -1.34862,-0.01 c 0.0076,-0.003 0.01664,-0.003 0.02012,8.3e-4 0.0035,0.003 -0.0027,0.006 -0.01378,0.006 -0.01223,-5.1e-4 -0.01472,-0.003 -0.0063,-0.006 z m 5.546078,-0.11229 c 0,-0.002 0.0083,-0.0104 0.01838,-0.0184 0.01665,-0.0131 0.01702,-0.0127 0.004,0.004 -0.01372,0.0175 -0.02234,0.0231 -0.02234,0.0144 z m -5.885761,-0.0722 -0.05211,-0.0551 0.05513,0.0521 c 0.05122,0.0484 0.05994,0.0581 0.05211,0.0581 -0.0017,0 -0.02647,-0.0248 -0.05513,-0.0551 z m 5.948762,0.0197 c 0,-0.002 0.0083,-0.0105 0.01838,-0.0184 0.01665,-0.0131 0.01703,-0.0127 0.004,0.004 -0.01372,0.0175 -0.02234,0.023 -0.02234,0.0144 z m 0.200333,-0.36967 c 5.04e-4,-0.0122 0.003,-0.0147 0.0063,-0.006 0.003,0.008 0.0027,0.0166 -8.29e-4,0.0201 -0.0035,0.003 -0.006,-0.003 -0.0055,-0.0138 z m -6.341296,-0.0359 c 0,-0.0144 0.0024,-0.0203 0.0053,-0.0131 0.0029,0.007 0.0029,0.019 0,0.0263 -0.0029,0.007 -0.0053,0.001 -0.0053,-0.0131 z m 6.356134,-2.5988 c 0,-1.42067 0.0012,-2.0003 0.0027,-1.28805 0.0015,0.71224 0.0015,1.87462 0,2.58305 -0.0015,0.70843 -0.0027,0.12568 -0.0027,-1.295 z m -1.792475,1.74053 c 0.03051,-0.002 0.07776,-0.002 0.105002,6e-5 0.02724,0.002 0.0023,0.004 -0.05548,0.004 -0.05775,-4e-5 -0.08004,-0.002 -0.04952,-0.004 z m -0.162906,-0.01 c 0.01022,-0.003 0.02439,-0.002 0.0315,3.9e-4 0.0071,0.003 -0.0012,0.005 -0.01857,0.005 -0.01732,-2.1e-4 -0.02314,-0.003 -0.01293,-0.005 z m 0.393558,3.2e-4 c 0.0072,-0.003 0.01903,-0.003 0.02625,0 0.0072,0.003 0.0013,0.005 -0.01312,0.005 -0.01444,0 -0.02035,-0.002 -0.01313,-0.005 z m -0.461352,-0.0107 c 0.0076,-0.003 0.01664,-0.003 0.02012,8.3e-4 0.0035,0.003 -0.0027,0.006 -0.01378,0.006 -0.01223,-5.1e-4 -0.01472,-0.003 -0.0063,-0.006 z m 0.53551,0 c 0.0076,-0.003 0.01664,-0.003 0.02013,8.3e-4 0.0035,0.003 -0.0027,0.006 -0.01378,0.006 -0.01223,-5.1e-4 -0.01472,-0.003 -0.0063,-0.006 z m -0.598512,-0.0105 c 0.0076,-0.003 0.01664,-0.003 0.02013,8.3e-4 0.0035,0.003 -0.0027,0.006 -0.01378,0.006 -0.01223,-5.1e-4 -0.01472,-0.003 -0.0063,-0.006 z m -2.588957,-0.0217 c 0.07941,-0.002 0.209348,-0.002 0.288756,0 0.07941,0.002 0.01444,0.003 -0.144378,0.003 -0.158816,0 -0.223786,-0.001 -0.144378,-0.003 z m -0.182468,-0.021 c -0.01306,-0.0166 -0.01269,-0.017 0.004,-0.004 0.01749,0.0137 0.02305,0.0223 0.01441,0.0223 -0.0022,0 -0.01045,-0.008 -0.01838,-0.0184 z m -0.01457,-1.39915 c 0,-0.75365 0.0013,-1.06197 0.0028,-0.68514 0.0015,0.37683 0.0015,0.99345 0,1.37028 -0.0015,0.37682 -0.0028,0.0685 -0.0028,-0.68514 z m 2.246202,1.1944 -0.02,-0.0236 0.02363,0.02 c 0.01299,0.011 0.02363,0.0216 0.02363,0.0236 0,0.008 -0.0085,0.002 -0.02725,-0.02 z m 1.696781,0.0197 c 0,-0.002 0.0083,-0.0104 0.01837,-0.0184 0.01665,-0.0131 0.01703,-0.0127 0.004,0.004 -0.01372,0.0175 -0.02234,0.0231 -0.02234,0.0144 z m -1.812283,-0.13516 -0.02,-0.0236 0.02363,0.02 c 0.0222,0.0188 0.02841,0.0273 0.02,0.0273 -0.002,0 -0.01262,-0.0106 -0.02362,-0.0236 z m 1.948786,-0.001 c 0,-0.002 0.0083,-0.0105 0.01838,-0.0184 0.01665,-0.0131 0.01703,-0.0127 0.004,0.004 -0.01372,0.0175 -0.02234,0.0231 -0.02234,0.0144 z m -0.989367,-0.19275 c 0.0247,-0.002 0.0625,-0.002 0.084,8e-5 0.0215,0.002 0.0013,0.004 -0.0449,0.004 -0.0462,-4e-5 -0.06379,-0.002 -0.0391,-0.004 z m -0.371408,-0.13142 -0.02,-0.0236 0.02363,0.02 c 0.01299,0.011 0.02362,0.0216 0.02362,0.0236 0,0.008 -0.0084,0.002 -0.02725,-0.02 z m 0.762263,0.0203 c 0,-0.002 0.01536,-0.0172 0.03413,-0.0341 l 0.03413,-0.0308 -0.03084,0.0341 c -0.02875,0.0318 -0.03741,0.0389 -0.03741,0.0308 z m -0.814764,-0.0728 -0.02,-0.0236 0.02363,0.02 c 0.01299,0.011 0.02362,0.0216 0.02362,0.0236 0,0.008 -0.0084,0.002 -0.02725,-0.02 z m -0.06243,-0.0926 c -0.0038,-0.006 -0.0047,-0.0135 -0.0019,-0.0162 0.0028,-0.003 0.0078,0.002 0.01122,0.0112 0.0071,0.0185 10e-4,0.0217 -0.0093,0.005 z m -0.707503,-0.0579 c 5.04e-4,-0.0122 0.003,-0.0147 0.0063,-0.006 0.003,0.008 0.0027,0.0166 -8.28e-4,0.0201 -0.0035,0.003 -0.006,-0.003 -0.0055,-0.0138 z m 2.425547,0 c 5.04e-4,-0.0122 0.003,-0.0147 0.0063,-0.006 0.003,0.008 0.0027,0.0166 -8.28e-4,0.0201 -0.0035,0.003 -0.006,-0.003 -0.0055,-0.0138 z m -2.435219,-0.0674 c 0,-0.0144 0.0024,-0.0204 0.0053,-0.0131 0.0029,0.007 0.0029,0.019 0,0.0263 -0.0029,0.007 -0.0053,0.001 -0.0053,-0.0131 z m 1.763206,-0.006 c 5.04e-4,-0.0122 0.003,-0.0147 0.0063,-0.006 0.003,0.008 0.0027,0.0166 -8.29e-4,0.0201 -0.0035,0.003 -0.006,-0.003 -0.0055,-0.0138 z m 0.684544,-0.0254 c 0,-0.026 0.002,-0.0366 0.0046,-0.0236 0.0025,0.013 0.0025,0.0343 0,0.0473 -0.0025,0.013 -0.0046,0.002 -0.0046,-0.0236 z m -0.672826,-0.0367 c 2.14e-4,-0.0173 0.0026,-0.0231 0.0052,-0.0129 0.0027,0.0102 0.0025,0.0244 -3.9e-4,0.0315 -0.0029,0.007 -0.0051,-10e-4 -0.0048,-0.0186 z m -1.113411,-0.0157 c 0,-0.0144 0.0024,-0.0204 0.0053,-0.0131 0.0029,0.007 0.0029,0.019 0,0.0263 -0.0029,0.007 -0.0053,0.001 -0.0053,-0.0131 z m -0.668731,-0.65102 c 0,-0.36094 0.0013,-0.5086 0.0029,-0.32813 0.0016,0.18047 0.0016,0.47579 0,0.65627 -0.0016,0.18047 -0.0029,0.0328 -0.0029,-0.32814 z m 0.66912,0.45676 c 2.15e-4,-0.0173 0.0026,-0.0231 0.0052,-0.0129 0.0027,0.0102 0.0025,0.0244 -3.9e-4,0.0315 -0.0029,0.007 -0.0051,-0.001 -0.0048,-0.0186 z m 1.785992,-0.0315 c 8.4e-5,-0.0289 0.0021,-0.0394 0.0045,-0.0235 0.0024,0.016 0.0023,0.0396 -1.43e-4,0.0525 -0.0025,0.0129 -0.0045,-1.4e-4 -0.0044,-0.029 z m -0.673359,0.0157 c 0,-0.0144 0.0024,-0.0203 0.0053,-0.0131 0.0029,0.007 0.0029,0.019 0,0.0262 -0.0029,0.007 -0.0053,0.001 -0.0053,-0.0131 z m -0.01133,-0.0691 c 5.04e-4,-0.0122 0.003,-0.0147 0.0063,-0.006 0.003,0.008 0.0027,0.0166 -8.29e-4,0.0201 -0.0035,0.003 -0.006,-0.003 -0.0055,-0.0138 z m 0.672013,-0.063 c 5.04e-4,-0.0122 0.003,-0.0147 0.0063,-0.006 0.003,0.008 0.0027,0.0166 -8.28e-4,0.0201 -0.0035,0.003 -0.006,-0.003 -0.0055,-0.0138 z m -0.0105,-0.063 c 5.04e-4,-0.0122 0.003,-0.0147 0.0063,-0.006 0.003,0.008 0.0027,0.0166 -8.29e-4,0.0201 -0.0035,0.003 -0.006,-0.003 -0.0055,-0.0138 z m -0.80991,-0.15925 -0.03619,-0.0394 0.03938,0.0362 c 0.03665,0.0337 0.0442,0.0426 0.03619,0.0426 -0.0018,0 -0.01947,-0.0177 -0.03938,-0.0394 z m -0.807951,0.0249 c 0,-0.002 0.0083,-0.0105 0.01838,-0.0184 0.01665,-0.0131 0.01702,-0.0127 0.004,0.004 -0.01372,0.0175 -0.02234,0.023 -0.02234,0.0144 z m 0.260537,-0.15021 c 0.0076,-0.003 0.01664,-0.003 0.02012,8.3e-4 0.0035,0.003 -0.0027,0.006 -0.01378,0.006 -0.01223,-5e-4 -0.01472,-0.003 -0.0063,-0.006 z m 0.0525,-0.0105 c 0.0076,-0.003 0.01664,-0.003 0.02012,8.3e-4 0.0035,0.003 -0.0027,0.006 -0.01378,0.006 -0.01223,-5e-4 -0.01472,-0.003 -0.0063,-0.006 z m 0.219848,2.2e-4 c 0.0072,-0.003 0.01903,-0.003 0.02625,0 0.0072,0.003 0.0013,0.005 -0.01313,0.005 -0.01444,0 -0.02034,-0.002 -0.01312,-0.005 z m -0.11538,-0.011 c 0.01306,-0.003 0.03196,-0.002 0.042,2.1e-4 0.01004,0.003 -6.48e-4,0.005 -0.02375,0.005 -0.0231,-1.1e-4 -0.03131,-0.002 -0.01825,-0.005 z m 0.967727,-0.18946 -0.02546,-0.0289 0.02888,0.0255 c 0.01588,0.014 0.02887,0.027 0.02887,0.0289 0,0.008 -0.0085,0.002 -0.0323,-0.0255 z m -0.0945,-0.0945 -0.02546,-0.0289 0.02888,0.0255 c 0.01588,0.014 0.02887,0.027 0.02887,0.0289 0,0.008 -0.0085,0.002 -0.0323,-0.0255 z m -1.395733,-0.0276 c 0,-0.002 0.0083,-0.0104 0.01838,-0.0184 0.01665,-0.0131 0.01702,-0.0127 0.004,0.004 -0.01372,0.0175 -0.02234,0.023 -0.02234,0.0144 z m 0.94305,-0.19221 c 0.0076,-0.003 0.01664,-0.003 0.02012,8.3e-4 0.0035,0.003 -0.0027,0.006 -0.01378,0.006 -0.01223,-5e-4 -0.01472,-0.003 -0.0063,-0.006 z m -0.52501,-0.0105 c 0.0076,-0.003 0.01664,-0.003 0.02012,8.3e-4 0.0035,0.003 -0.0027,0.006 -0.01378,0.006 -0.01223,-5e-4 -0.01472,-0.003 -0.0063,-0.006 z m 0.472509,0 c 0.0076,-0.003 0.01664,-0.003 0.02013,8.3e-4 0.0035,0.003 -0.0027,0.006 -0.01378,0.006 -0.01223,-5e-4 -0.01472,-0.003 -0.0063,-0.006 z m -0.410164,-0.0103 c 0.0072,-0.003 0.01903,-0.003 0.02625,0 0.0072,0.003 0.0013,0.005 -0.01313,0.005 -0.01444,0 -0.02034,-0.002 -0.01313,-0.005 z m 0.336006,0 c 0.0072,-0.003 0.01903,-0.003 0.02625,0 0.0072,0.003 0.0013,0.005 -0.01313,0.005 -0.01444,0 -0.02034,-0.002 -0.01313,-0.005 z m -0.199226,-0.0113 c 0.0247,-0.002 0.0625,-0.002 0.084,7e-5 0.0215,0.002 0.0013,0.004 -0.0449,0.004 -0.0462,-5e-5 -0.06379,-0.002 -0.0391,-0.004 z m -0.657119,-0.029 c 2.15e-4,-0.0173 0.0026,-0.0231 0.0052,-0.0129 0.0027,0.0102 0.0025,0.0244 -3.9e-4,0.0315 -0.0029,0.007 -0.0051,-0.001 -0.0048,-0.0186 z m 0.0093,-0.0849 c 5.04e-4,-0.0122 0.003,-0.0147 0.0063,-0.006 0.003,0.008 0.0027,0.0166 -8.28e-4,0.0201 -0.0035,0.003 -0.006,-0.003 -0.0055,-0.0138 z m -0.671185,-0.0149 c 0,-0.0144 0.0024,-0.0203 0.0053,-0.0131 0.0029,0.007 0.0029,0.019 0,0.0263 -0.0029,0.007 -0.0053,10e-4 -0.0053,-0.0131 z m 0.0097,-0.0691 c 5.04e-4,-0.0122 0.003,-0.0147 0.0063,-0.006 0.003,0.008 0.0027,0.0166 -8.28e-4,0.0201 -0.0035,0.003 -0.006,-0.003 -0.0055,-0.0138 z m 1.803237,-0.022 c 0.0076,-0.003 0.01664,-0.003 0.02013,8.2e-4 0.0035,0.003 -0.0027,0.006 -0.01378,0.006 -0.01223,-5.1e-4 -0.01472,-0.003 -0.0063,-0.006 z m -0.04137,-0.0217 c -0.01306,-0.0166 -0.01269,-0.017 0.004,-0.004 0.01749,0.0137 0.02305,0.0223 0.01441,0.0223 -0.0022,0 -0.01045,-0.008 -0.01837,-0.0184 z m 0.553713,-0.16172 c 0.01094,-0.0153 0.02199,-0.0258 0.02455,-0.0233 0.0026,0.002 -0.0064,0.015 -0.01989,0.0279 l -0.02455,0.0233 z m -1.476392,-0.0444 c 0,-0.002 0.0083,-0.0104 0.01838,-0.0184 0.01665,-0.0131 0.01703,-0.0127 0.004,0.004 -0.01372,0.0175 -0.02234,0.023 -0.02234,0.0144 z m -1.154148,-0.0725 c 0.0024,-0.002 0.01383,-0.01 0.02538,-0.0184 0.01942,-0.0143 0.01992,-0.014 0.0066,0.003 -0.0079,0.0101 -0.01934,0.0184 -0.02537,0.0184 -0.006,0 -0.009,-0.001 -0.0066,-0.003 z m 0.04567,-0.29103 c 0,-0.14149 0.0015,-0.19938 0.0033,-0.12863 0.0018,0.0707 0.0018,0.18651 0,0.25725 -0.0018,0.0708 -0.0033,0.0129 -0.0033,-0.12862 z m 1.379518,0.24483 c 0.0076,-0.003 0.01664,-0.003 0.02012,8.3e-4 0.0035,0.003 -0.0027,0.006 -0.01378,0.006 -0.01223,-5e-4 -0.01472,-0.003 -0.0063,-0.006 z m 0.252005,0 c 0.0076,-0.003 0.01664,-0.003 0.02012,8.3e-4 0.0035,0.003 -0.0027,0.006 -0.01378,0.006 -0.01223,-5e-4 -0.01472,-0.003 -0.0063,-0.006 z m -0.142409,-0.0109 c 0.01588,-0.002 0.04187,-0.002 0.05775,0 0.01588,0.002 0.0029,0.004 -0.02888,0.004 -0.03176,0 -0.04476,-0.002 -0.02887,-0.004 z m -0.973895,-0.16048 c 0.01045,-0.0115 0.02137,-0.021 0.02426,-0.021 0.0029,0 -0.0033,0.009 -0.01376,0.021 -0.01045,0.0115 -0.02137,0.021 -0.02426,0.021 -0.0029,0 0.0033,-0.009 0.01376,-0.021 z m 1.89954,-0.0551 -0.02,-0.0236 0.02363,0.02 c 0.0222,0.0188 0.02841,0.0273 0.02,0.0273 -0.002,0 -0.01262,-0.0106 -0.02363,-0.0236 z m -1.763037,-0.0814 c 0.01045,-0.0115 0.02137,-0.021 0.02426,-0.021 0.0029,0 -0.0033,0.009 -0.01376,0.021 -0.01045,0.0116 -0.02137,0.021 -0.02425,0.021 -0.0029,0 0.0033,-0.009 0.01375,-0.021 z m 1.641943,-0.0394 c -0.01306,-0.0166 -0.01269,-0.017 0.004,-0.004 0.01749,0.0137 0.02305,0.0223 0.01441,0.0223 -0.0022,0 -0.01045,-0.008 -0.01837,-0.0184 z m -4.870756,-0.15359 c 0,-0.002 0.0083,-0.0105 0.01837,-0.0184 0.01665,-0.0131 0.01703,-0.0127 0.004,0.004 -0.01372,0.0175 -0.02234,0.023 -0.02234,0.0144 z m 0.664138,-0.0354 c 0.345063,-0.002 0.909711,-0.002 1.254774,0 0.345063,0.002 0.06274,0.003 -0.627387,0.003 -0.690126,0 -0.97245,-0.001 -0.627387,-0.003 z m 3.082467,-0.0203 c 0.0076,-0.003 0.01664,-0.003 0.02013,8.3e-4 0.0035,0.003 -0.0027,0.006 -0.01378,0.006 -0.01223,-5e-4 -0.01472,-0.003 -0.0063,-0.006 z m 0.0525,-0.0105 c 0.0076,-0.003 0.01664,-0.003 0.02012,8.3e-4 0.0035,0.003 -0.0027,0.006 -0.01378,0.006 -0.01223,-5e-4 -0.01472,-0.003 -0.0063,-0.006 z m 0.567011,0 c 0.0076,-0.003 0.01664,-0.003 0.02013,8.3e-4 0.0035,0.003 -0.0027,0.006 -0.01378,0.006 -0.01223,-5e-4 -0.01472,-0.003 -0.0063,-0.006 z m -0.494166,-0.0103 c 0.0072,-0.003 0.01903,-0.003 0.02625,0 0.0072,0.003 0.0013,0.005 -0.01313,0.005 -0.01444,0 -0.02034,-0.002 -0.01313,-0.005 z m 0.420008,0 c 0.0072,-0.003 0.01903,-0.003 0.02625,0 0.0072,0.003 0.0013,0.005 -0.01313,0.005 -0.01444,0 -0.02034,-0.002 -0.01313,-0.005 z m -0.267755,-0.0113 c 0.03898,-0.002 0.102771,-0.002 0.141753,0 0.03898,0.002 0.0071,0.004 -0.07088,0.004 -0.07796,0 -0.109858,-0.002 -0.07088,-0.004 z m -4.558057,-0.85323 c 0,-0.0144 0.0024,-0.0203 0.0053,-0.0131 0.0029,0.007 0.0029,0.019 0,0.0263 -0.0029,0.007 -0.0053,0.001 -0.0053,-0.0131 z m 6.341296,-0.0376 c 5.04e-4,-0.0122 0.003,-0.0147 0.0063,-0.006 0.003,0.008 0.0027,0.0166 -8.29e-4,0.0201 -0.0035,0.003 -0.006,-0.003 -0.0055,-0.0138 z M 93.24045,145.7948 c 0,-0.002 0.0083,-0.0104 0.01837,-0.0184 0.01665,-0.0131 0.01703,-0.0127 0.004,0.004 -0.01372,0.0175 -0.02234,0.023 -0.02234,0.0144 z m 0.04725,-0.059 c 0.01045,-0.0115 0.02137,-0.021 0.02426,-0.021 0.0029,0 -0.0033,0.009 -0.01376,0.021 -0.01045,0.0115 -0.02137,0.021 -0.02425,0.021 -0.0029,0 0.0033,-0.009 0.01375,-0.021 z m 6.000303,-0.0499 -0.03619,-0.0394 0.03938,0.0362 c 0.03665,0.0337 0.0442,0.0426 0.03619,0.0426 -0.0018,0 -0.01947,-0.0177 -0.03938,-0.0394 z m -5.921551,-0.0289 c 0.01356,-0.0144 0.02702,-0.0263 0.02991,-0.0263 0.0029,0 -0.0058,0.0118 -0.01941,0.0263 -0.01356,0.0144 -0.02702,0.0262 -0.02991,0.0262 -0.0029,0 0.0058,-0.0118 0.01941,-0.0262 z m 0.292037,-0.14892 c 0.0076,-0.003 0.01664,-0.003 0.02013,8.3e-4 0.0035,0.003 -0.0027,0.006 -0.01378,0.006 -0.01223,-5e-4 -0.01472,-0.003 -0.0063,-0.006 z m 0.05729,-0.0106 c 0.01022,-0.003 0.02439,-0.002 0.0315,3.9e-4 0.0071,0.003 -0.0012,0.005 -0.01857,0.005 -0.01733,-2.1e-4 -0.02314,-0.003 -0.01293,-0.005 z m 5.171152,3.3e-4 c 0.0072,-0.003 0.01903,-0.003 0.02625,0 0.0072,0.003 0.0013,0.005 -0.01313,0.005 -0.01444,0 -0.02034,-0.002 -0.01313,-0.005 z"
         id="path1015"
         inkscape:connector-curvature="0" />
    </g>
    <g
       id="g1051"
       transform="matrix(7.0812122,0,0,7.0789846,-651.72431,-883.89919)">
      <path
         style="fill:#697c8a;fill-opacity:1;stroke-width:0.01050021"
         d="m 105.27346,148.27953 c -0.19141,-0.0417 -0.36145,-0.1746 -0.45148,-0.35294 -0.0737,-0.1461 -0.0684,0.084 -0.0654,-2.79931 l 0.003,-2.60214 0.0328,-0.0808 c 0.078,-0.1922 0.21328,-0.32075 0.42111,-0.4001 l 0.0606,-0.0231 2.5778,-0.003 c 1.89997,-0.002 2.59437,4e-5 2.6408,0.009 0.24077,0.0458 0.44752,0.23905 0.51625,0.48248 0.0185,0.0654 0.0193,0.17706 0.0193,2.6408 0,2.1192 -0.002,2.58273 -0.0141,2.63031 -0.0453,0.18518 -0.18181,0.35739 -0.34849,0.43956 -0.16319,0.0805 0.0548,0.0747 -2.7822,0.0739 -2.06259,-5.3e-4 -2.55834,-0.003 -2.6097,-0.0145 z m 1.65598,-1.48243 c 0.0184,-0.0167 0.0192,-0.0731 0.0192,-1.37553 v -1.35815 h 0.45617 0.45616 l 0.0164,-0.0233 c 0.0251,-0.0359 0.0242,-0.49655 -0.001,-0.52448 -0.0166,-0.0184 -0.0695,-0.0192 -1.25874,-0.0192 -1.1411,0 -1.24253,0.001 -1.25578,0.0173 -0.011,0.0132 -0.0152,0.071 -0.0176,0.24366 -0.002,0.12448 -5.8e-4,0.23684 0.003,0.24969 0.0145,0.0578 0.002,0.0563 0.48959,0.0563 h 0.45076 v 1.35453 c 0,1.34053 2.2e-4,1.35474 0.021,1.37553 0.02,0.02 0.035,0.021 0.31156,0.021 0.25563,0 0.29286,-0.002 0.30975,-0.0174 z m 2.32253,-0.006 c 0.01,-0.0157 0.0168,-0.0714 0.0209,-0.16538 0.0292,-0.66847 0.38995,-1.56746 0.98809,-2.4623 l 0.16845,-0.252 0.003,-0.18193 c 0.003,-0.15242 6.1e-4,-0.18605 -0.0134,-0.20737 l -0.0167,-0.0255 h -1.04378 c -0.9397,0 -1.04544,0.002 -1.06046,0.0167 -0.0145,0.0145 -0.0163,0.0505 -0.0139,0.27533 l 0.003,0.25864 0.0263,0.0133 c 0.0203,0.0103 0.17314,0.0133 0.67464,0.0134 0.35661,8e-5 0.64839,0.002 0.64839,0.005 0,0.003 -0.0324,0.0559 -0.0719,0.11813 -0.42219,0.66462 -0.72664,1.32069 -0.86136,1.85619 -0.0568,0.22587 -0.0957,0.49433 -0.0958,0.66069 -1e-5,0.10482 -0.014,0.10058 0.33213,0.10058 0.29703,0 0.2974,-4e-5 0.31215,-0.0236 z"
         id="path1055"
         inkscape:connector-curvature="0" />
      <path
         style="fill:#ffffff;stroke-width:0.01050021"
         d="m 105.20036,148.87656 c -0.33409,-0.0599 -0.63535,-0.25112 -0.82232,-0.52189 -0.0753,-0.109 -0.15407,-0.27714 -0.1887,-0.40263 l -0.0285,-0.10329 -0.003,-2.65656 c -0.002,-1.83556 4.4e-4,-2.67674 0.008,-2.72189 0.0896,-0.52653 0.49842,-0.9389 1.02767,-1.03671 0.0777,-0.0144 0.38789,-0.0162 2.69855,-0.0159 2.18001,3e-4 2.62426,0.003 2.69255,0.0149 0.55174,0.0984 0.97333,0.54847 1.0365,1.10664 0.008,0.0714 0.0104,0.86438 0.008,2.68437 -0.004,2.87134 0.003,2.61245 -0.0726,2.82814 -0.12717,0.36412 -0.42242,0.65392 -0.79253,0.77792 -0.20125,0.0674 -0.0334,0.0638 -2.88627,0.0628 -2.20433,-7.6e-4 -2.60615,-0.003 -2.67755,-0.016 z m 5.3026,-0.5973 c 0.19138,-0.04 0.36936,-0.17809 0.45352,-0.35176 0.0238,-0.0491 0.0496,-0.11524 0.0574,-0.147 0.0116,-0.0476 0.0141,-0.51111 0.0141,-2.63031 0,-2.46374 -8.2e-4,-2.57543 -0.0193,-2.6408 -0.0687,-0.24343 -0.27548,-0.43665 -0.51625,-0.48248 -0.0464,-0.009 -0.74083,-0.0112 -2.6408,-0.009 l -2.5778,0.003 -0.0606,0.0231 c -0.20783,0.0794 -0.34313,0.2079 -0.42111,0.4001 l -0.0328,0.0808 -0.003,2.60214 c -0.003,2.88328 -0.008,2.65321 0.0654,2.79931 0.09,0.17834 0.26007,0.31127 0.45148,0.35294 0.0514,0.0112 0.54711,0.0139 2.6097,0.0145 2.19735,5.6e-4 2.55638,-0.001 2.6198,-0.0147 z m -4.19483,-1.48578 c -0.0208,-0.0208 -0.021,-0.035 -0.021,-1.37553 v -1.35453 h -0.45076 c -0.48797,0 -0.47508,0.001 -0.48959,-0.0563 -0.003,-0.0129 -0.004,-0.12521 -0.003,-0.24969 0.002,-0.17263 0.007,-0.23044 0.0176,-0.24366 0.0132,-0.0159 0.11468,-0.0173 1.25578,-0.0173 1.18927,0 1.24209,8.1e-4 1.25874,0.0192 0.0253,0.0279 0.0262,0.48858 0.001,0.52448 l -0.0164,0.0233 h -0.45616 -0.45617 v 1.35815 c 0,1.30242 -7.8e-4,1.35886 -0.0192,1.37553 -0.0169,0.0153 -0.0541,0.0174 -0.30975,0.0174 -0.27656,0 -0.29157,-0.001 -0.31156,-0.021 z m 2.31693,0.002 c -0.0207,-0.0228 -0.0224,-0.0895 -0.007,-0.25905 0.0602,-0.65059 0.38737,-1.45913 0.94642,-2.3392 0.0395,-0.0622 0.0719,-0.1154 0.0719,-0.11813 0,-0.003 -0.29178,-0.005 -0.64839,-0.005 -0.5015,-1.2e-4 -0.65433,-0.003 -0.67464,-0.0134 l -0.0263,-0.0133 -0.003,-0.25864 c -0.002,-0.22481 -6.2e-4,-0.26083 0.0139,-0.27533 0.015,-0.015 0.12076,-0.0167 1.06046,-0.0167 h 1.04378 l 0.0167,0.0255 c 0.014,0.0213 0.0161,0.0549 0.0134,0.20737 l -0.003,0.18193 -0.16845,0.252 c -0.59814,0.89484 -0.9589,1.79383 -0.98809,2.4623 -0.004,0.094 -0.0112,0.14972 -0.0209,0.16538 -0.0148,0.0236 -0.0151,0.0236 -0.31215,0.0236 -0.27477,0 -0.29871,-0.001 -0.31476,-0.0192 z"
         id="path1053"
         inkscape:connector-curvature="0" />
    </g>
  </g>
</svg>
