<?xml version="1.0" encoding="UTF-8" standalone="no"?>
<!-- Created with Inkscape (http://www.inkscape.org/) -->

<svg
   xmlns:dc="http://purl.org/dc/elements/1.1/"
   xmlns:cc="http://creativecommons.org/ns#"
   xmlns:rdf="http://www.w3.org/1999/02/22-rdf-syntax-ns#"
   xmlns:svg="http://www.w3.org/2000/svg"
   xmlns="http://www.w3.org/2000/svg"
   xmlns:sodipodi="http://sodipodi.sourceforge.net/DTD/sodipodi-0.dtd"
   xmlns:inkscape="http://www.inkscape.org/namespaces/inkscape"
   width="52.916668mm"
   height="52.916668mm"
   viewBox="0 0 52.916668 52.916668"
   version="1.1"
   id="svg8"
   inkscape:version="0.92.3 (2405546, 2018-03-11)"
   sodipodi:docname="T8.svg">
  <defs
     id="defs2" />
  <sodipodi:namedview
     id="base"
     pagecolor="#ffffff"
     bordercolor="#666666"
     borderopacity="1.0"
     inkscape:pageopacity="0.0"
     inkscape:pageshadow="2"
     inkscape:zoom="5.2996274"
     inkscape:cx="81.458725"
     inkscape:cy="72.617234"
     inkscape:document-units="mm"
     inkscape:current-layer="layer1"
     showgrid="false"
     inkscape:pagecheckerboard="true"
     fit-margin-top="0"
     fit-margin-left="0"
     fit-margin-right="0"
     fit-margin-bottom="0"
     inkscape:window-width="932"
     inkscape:window-height="887"
     inkscape:window-x="860"
     inkscape:window-y="52"
     inkscape:window-maximized="0" />
  <metadata
     id="metadata5">
    <rdf:RDF>
      <cc:Work
         rdf:about="">
        <dc:format>image/svg+xml</dc:format>
        <dc:type
           rdf:resource="http://purl.org/dc/dcmitype/StillImage" />
        <dc:title></dc:title>
      </cc:Work>
    </rdf:RDF>
  </metadata>
  <g
     inkscape:label="Layer 1"
     inkscape:groupmode="layer"
     id="layer1"
     transform="translate(-84.280711,-115.12998)">
    <g
       id="g1011"
       transform="translate(-0.89864808,2.1966957)">
      <path
         style="fill:#748bc2;stroke-width:0.01050021"
         d="m 95.017561,151.84923 c 0.71467,-0.001 1.884131,-0.001 2.598801,0 0.714671,0.001 0.12994,0.003 -1.2994,0.003 -1.429341,0 -2.014071,-0.001 -1.299401,-0.003 z m -1.34862,-0.01 c 0.0076,-0.003 0.01664,-0.003 0.02012,8.3e-4 0.0035,0.003 -0.0027,0.006 -0.01378,0.006 -0.01223,-5.1e-4 -0.01472,-0.003 -0.0063,-0.006 z m 5.546078,-0.11229 c 0,-0.002 0.0083,-0.0104 0.01838,-0.0184 0.01665,-0.0131 0.01702,-0.0127 0.004,0.004 -0.01372,0.0175 -0.02234,0.0231 -0.02234,0.0144 z m -5.885761,-0.0722 -0.05211,-0.0551 0.05513,0.0521 c 0.05122,0.0484 0.05994,0.0581 0.05211,0.0581 -0.0017,0 -0.02647,-0.0248 -0.05513,-0.0551 z m 5.948762,0.0197 c 0,-0.002 0.0083,-0.0105 0.01838,-0.0184 0.01665,-0.0131 0.01703,-0.0127 0.004,0.004 -0.01372,0.0175 -0.02234,0.023 -0.02234,0.0144 z m 0.200333,-0.36967 c 5.04e-4,-0.0122 0.003,-0.0147 0.0063,-0.006 0.003,0.008 0.0027,0.0166 -8.29e-4,0.0201 -0.0035,0.003 -0.006,-0.003 -0.0055,-0.0138 z m -6.341296,-0.0359 c 0,-0.0144 0.0024,-0.0203 0.0053,-0.0131 0.0029,0.007 0.0029,0.019 0,0.0263 -0.0029,0.007 -0.0053,0.001 -0.0053,-0.0131 z m 6.356134,-2.5988 c 0,-1.42067 0.0012,-2.0003 0.0027,-1.28805 0.0015,0.71224 0.0015,1.87462 0,2.58305 -0.0015,0.70843 -0.0027,0.12568 -0.0027,-1.295 z m -1.792475,1.74053 c 0.03051,-0.002 0.07776,-0.002 0.105002,6e-5 0.02724,0.002 0.0023,0.004 -0.05548,0.004 -0.05775,-4e-5 -0.08004,-0.002 -0.04952,-0.004 z m -0.162906,-0.01 c 0.01022,-0.003 0.02439,-0.002 0.0315,3.9e-4 0.0071,0.003 -0.0012,0.005 -0.01857,0.005 -0.01732,-2.1e-4 -0.02314,-0.003 -0.01293,-0.005 z m 0.393558,3.2e-4 c 0.0072,-0.003 0.01903,-0.003 0.02625,0 0.0072,0.003 0.0013,0.005 -0.01312,0.005 -0.01444,0 -0.02035,-0.002 -0.01313,-0.005 z m -0.461352,-0.0107 c 0.0076,-0.003 0.01664,-0.003 0.02012,8.3e-4 0.0035,0.003 -0.0027,0.006 -0.01378,0.006 -0.01223,-5.1e-4 -0.01472,-0.003 -0.0063,-0.006 z m 0.53551,0 c 0.0076,-0.003 0.01664,-0.003 0.02013,8.3e-4 0.0035,0.003 -0.0027,0.006 -0.01378,0.006 -0.01223,-5.1e-4 -0.01472,-0.003 -0.0063,-0.006 z m -0.598512,-0.0105 c 0.0076,-0.003 0.01664,-0.003 0.02013,8.3e-4 0.0035,0.003 -0.0027,0.006 -0.01378,0.006 -0.01223,-5.1e-4 -0.01472,-0.003 -0.0063,-0.006 z m -2.588957,-0.0217 c 0.07941,-0.002 0.209348,-0.002 0.288756,0 0.07941,0.002 0.01444,0.003 -0.144378,0.003 -0.158816,0 -0.223786,-0.001 -0.144378,-0.003 z m -0.182468,-0.021 c -0.01306,-0.0166 -0.01269,-0.017 0.004,-0.004 0.01749,0.0137 0.02305,0.0223 0.01441,0.0223 -0.0022,0 -0.01045,-0.008 -0.01838,-0.0184 z m -0.01457,-1.39915 c 0,-0.75365 0.0013,-1.06197 0.0028,-0.68514 0.0015,0.37683 0.0015,0.99345 0,1.37028 -0.0015,0.37682 -0.0028,0.0685 -0.0028,-0.68514 z m 2.246202,1.1944 -0.02,-0.0236 0.02363,0.02 c 0.01299,0.011 0.02363,0.0216 0.02363,0.0236 0,0.008 -0.0085,0.002 -0.02725,-0.02 z m 1.696781,0.0197 c 0,-0.002 0.0083,-0.0104 0.01837,-0.0184 0.01665,-0.0131 0.01703,-0.0127 0.004,0.004 -0.01372,0.0175 -0.02234,0.0231 -0.02234,0.0144 z m -1.812283,-0.13516 -0.02,-0.0236 0.02363,0.02 c 0.0222,0.0188 0.02841,0.0273 0.02,0.0273 -0.002,0 -0.01262,-0.0106 -0.02362,-0.0236 z m 1.948786,-0.001 c 0,-0.002 0.0083,-0.0105 0.01838,-0.0184 0.01665,-0.0131 0.01703,-0.0127 0.004,0.004 -0.01372,0.0175 -0.02234,0.0231 -0.02234,0.0144 z m -0.989367,-0.19275 c 0.0247,-0.002 0.0625,-0.002 0.084,8e-5 0.0215,0.002 0.0013,0.004 -0.0449,0.004 -0.0462,-4e-5 -0.06379,-0.002 -0.0391,-0.004 z m -0.371408,-0.13142 -0.02,-0.0236 0.02363,0.02 c 0.01299,0.011 0.02362,0.0216 0.02362,0.0236 0,0.008 -0.0084,0.002 -0.02725,-0.02 z m 0.762263,0.0203 c 0,-0.002 0.01536,-0.0172 0.03413,-0.0341 l 0.03413,-0.0308 -0.03084,0.0341 c -0.02875,0.0318 -0.03741,0.0389 -0.03741,0.0308 z m -0.814764,-0.0728 -0.02,-0.0236 0.02363,0.02 c 0.01299,0.011 0.02362,0.0216 0.02362,0.0236 0,0.008 -0.0084,0.002 -0.02725,-0.02 z m -0.06243,-0.0926 c -0.0038,-0.006 -0.0047,-0.0135 -0.0019,-0.0162 0.0028,-0.003 0.0078,0.002 0.01122,0.0112 0.0071,0.0185 10e-4,0.0217 -0.0093,0.005 z m -0.707503,-0.0579 c 5.04e-4,-0.0122 0.003,-0.0147 0.0063,-0.006 0.003,0.008 0.0027,0.0166 -8.28e-4,0.0201 -0.0035,0.003 -0.006,-0.003 -0.0055,-0.0138 z m 2.425547,0 c 5.04e-4,-0.0122 0.003,-0.0147 0.0063,-0.006 0.003,0.008 0.0027,0.0166 -8.28e-4,0.0201 -0.0035,0.003 -0.006,-0.003 -0.0055,-0.0138 z m -2.435219,-0.0674 c 0,-0.0144 0.0024,-0.0204 0.0053,-0.0131 0.0029,0.007 0.0029,0.019 0,0.0263 -0.0029,0.007 -0.0053,0.001 -0.0053,-0.0131 z m 1.763206,-0.006 c 5.04e-4,-0.0122 0.003,-0.0147 0.0063,-0.006 0.003,0.008 0.0027,0.0166 -8.29e-4,0.0201 -0.0035,0.003 -0.006,-0.003 -0.0055,-0.0138 z m 0.684544,-0.0254 c 0,-0.026 0.002,-0.0366 0.0046,-0.0236 0.0025,0.013 0.0025,0.0343 0,0.0473 -0.0025,0.013 -0.0046,0.002 -0.0046,-0.0236 z m -0.672826,-0.0367 c 2.14e-4,-0.0173 0.0026,-0.0231 0.0052,-0.0129 0.0027,0.0102 0.0025,0.0244 -3.9e-4,0.0315 -0.0029,0.007 -0.0051,-10e-4 -0.0048,-0.0186 z m -1.113411,-0.0157 c 0,-0.0144 0.0024,-0.0204 0.0053,-0.0131 0.0029,0.007 0.0029,0.019 0,0.0263 -0.0029,0.007 -0.0053,0.001 -0.0053,-0.0131 z m -0.668731,-0.65102 c 0,-0.36094 0.0013,-0.5086 0.0029,-0.32813 0.0016,0.18047 0.0016,0.47579 0,0.65627 -0.0016,0.18047 -0.0029,0.0328 -0.0029,-0.32814 z m 0.66912,0.45676 c 2.15e-4,-0.0173 0.0026,-0.0231 0.0052,-0.0129 0.0027,0.0102 0.0025,0.0244 -3.9e-4,0.0315 -0.0029,0.007 -0.0051,-0.001 -0.0048,-0.0186 z m 1.785992,-0.0315 c 8.4e-5,-0.0289 0.0021,-0.0394 0.0045,-0.0235 0.0024,0.016 0.0023,0.0396 -1.43e-4,0.0525 -0.0025,0.0129 -0.0045,-1.4e-4 -0.0044,-0.029 z m -0.673359,0.0157 c 0,-0.0144 0.0024,-0.0203 0.0053,-0.0131 0.0029,0.007 0.0029,0.019 0,0.0262 -0.0029,0.007 -0.0053,0.001 -0.0053,-0.0131 z m -0.01133,-0.0691 c 5.04e-4,-0.0122 0.003,-0.0147 0.0063,-0.006 0.003,0.008 0.0027,0.0166 -8.29e-4,0.0201 -0.0035,0.003 -0.006,-0.003 -0.0055,-0.0138 z m 0.672013,-0.063 c 5.04e-4,-0.0122 0.003,-0.0147 0.0063,-0.006 0.003,0.008 0.0027,0.0166 -8.28e-4,0.0201 -0.0035,0.003 -0.006,-0.003 -0.0055,-0.0138 z m -0.0105,-0.063 c 5.04e-4,-0.0122 0.003,-0.0147 0.0063,-0.006 0.003,0.008 0.0027,0.0166 -8.29e-4,0.0201 -0.0035,0.003 -0.006,-0.003 -0.0055,-0.0138 z m -0.80991,-0.15925 -0.03619,-0.0394 0.03938,0.0362 c 0.03665,0.0337 0.0442,0.0426 0.03619,0.0426 -0.0018,0 -0.01947,-0.0177 -0.03938,-0.0394 z m -0.807951,0.0249 c 0,-0.002 0.0083,-0.0105 0.01838,-0.0184 0.01665,-0.0131 0.01702,-0.0127 0.004,0.004 -0.01372,0.0175 -0.02234,0.023 -0.02234,0.0144 z m 0.260537,-0.15021 c 0.0076,-0.003 0.01664,-0.003 0.02012,8.3e-4 0.0035,0.003 -0.0027,0.006 -0.01378,0.006 -0.01223,-5e-4 -0.01472,-0.003 -0.0063,-0.006 z m 0.0525,-0.0105 c 0.0076,-0.003 0.01664,-0.003 0.02012,8.3e-4 0.0035,0.003 -0.0027,0.006 -0.01378,0.006 -0.01223,-5e-4 -0.01472,-0.003 -0.0063,-0.006 z m 0.219848,2.2e-4 c 0.0072,-0.003 0.01903,-0.003 0.02625,0 0.0072,0.003 0.0013,0.005 -0.01313,0.005 -0.01444,0 -0.02034,-0.002 -0.01312,-0.005 z m -0.11538,-0.011 c 0.01306,-0.003 0.03196,-0.002 0.042,2.1e-4 0.01004,0.003 -6.48e-4,0.005 -0.02375,0.005 -0.0231,-1.1e-4 -0.03131,-0.002 -0.01825,-0.005 z m 0.967727,-0.18946 -0.02546,-0.0289 0.02888,0.0255 c 0.01588,0.014 0.02887,0.027 0.02887,0.0289 0,0.008 -0.0085,0.002 -0.0323,-0.0255 z m -0.0945,-0.0945 -0.02546,-0.0289 0.02888,0.0255 c 0.01588,0.014 0.02887,0.027 0.02887,0.0289 0,0.008 -0.0085,0.002 -0.0323,-0.0255 z m -1.395733,-0.0276 c 0,-0.002 0.0083,-0.0104 0.01838,-0.0184 0.01665,-0.0131 0.01702,-0.0127 0.004,0.004 -0.01372,0.0175 -0.02234,0.023 -0.02234,0.0144 z m 0.94305,-0.19221 c 0.0076,-0.003 0.01664,-0.003 0.02012,8.3e-4 0.0035,0.003 -0.0027,0.006 -0.01378,0.006 -0.01223,-5e-4 -0.01472,-0.003 -0.0063,-0.006 z m -0.52501,-0.0105 c 0.0076,-0.003 0.01664,-0.003 0.02012,8.3e-4 0.0035,0.003 -0.0027,0.006 -0.01378,0.006 -0.01223,-5e-4 -0.01472,-0.003 -0.0063,-0.006 z m 0.472509,0 c 0.0076,-0.003 0.01664,-0.003 0.02013,8.3e-4 0.0035,0.003 -0.0027,0.006 -0.01378,0.006 -0.01223,-5e-4 -0.01472,-0.003 -0.0063,-0.006 z m -0.410164,-0.0103 c 0.0072,-0.003 0.01903,-0.003 0.02625,0 0.0072,0.003 0.0013,0.005 -0.01313,0.005 -0.01444,0 -0.02034,-0.002 -0.01313,-0.005 z m 0.336006,0 c 0.0072,-0.003 0.01903,-0.003 0.02625,0 0.0072,0.003 0.0013,0.005 -0.01313,0.005 -0.01444,0 -0.02034,-0.002 -0.01313,-0.005 z m -0.199226,-0.0113 c 0.0247,-0.002 0.0625,-0.002 0.084,7e-5 0.0215,0.002 0.0013,0.004 -0.0449,0.004 -0.0462,-5e-5 -0.06379,-0.002 -0.0391,-0.004 z m -0.657119,-0.029 c 2.15e-4,-0.0173 0.0026,-0.0231 0.0052,-0.0129 0.0027,0.0102 0.0025,0.0244 -3.9e-4,0.0315 -0.0029,0.007 -0.0051,-0.001 -0.0048,-0.0186 z m 0.0093,-0.0849 c 5.04e-4,-0.0122 0.003,-0.0147 0.0063,-0.006 0.003,0.008 0.0027,0.0166 -8.28e-4,0.0201 -0.0035,0.003 -0.006,-0.003 -0.0055,-0.0138 z m -0.671185,-0.0149 c 0,-0.0144 0.0024,-0.0203 0.0053,-0.0131 0.0029,0.007 0.0029,0.019 0,0.0263 -0.0029,0.007 -0.0053,10e-4 -0.0053,-0.0131 z m 0.0097,-0.0691 c 5.04e-4,-0.0122 0.003,-0.0147 0.0063,-0.006 0.003,0.008 0.0027,0.0166 -8.28e-4,0.0201 -0.0035,0.003 -0.006,-0.003 -0.0055,-0.0138 z m 1.803237,-0.022 c 0.0076,-0.003 0.01664,-0.003 0.02013,8.2e-4 0.0035,0.003 -0.0027,0.006 -0.01378,0.006 -0.01223,-5.1e-4 -0.01472,-0.003 -0.0063,-0.006 z m -0.04137,-0.0217 c -0.01306,-0.0166 -0.01269,-0.017 0.004,-0.004 0.01749,0.0137 0.02305,0.0223 0.01441,0.0223 -0.0022,0 -0.01045,-0.008 -0.01837,-0.0184 z m 0.553713,-0.16172 c 0.01094,-0.0153 0.02199,-0.0258 0.02455,-0.0233 0.0026,0.002 -0.0064,0.015 -0.01989,0.0279 l -0.02455,0.0233 z m -1.476392,-0.0444 c 0,-0.002 0.0083,-0.0104 0.01838,-0.0184 0.01665,-0.0131 0.01703,-0.0127 0.004,0.004 -0.01372,0.0175 -0.02234,0.023 -0.02234,0.0144 z m -1.154148,-0.0725 c 0.0024,-0.002 0.01383,-0.01 0.02538,-0.0184 0.01942,-0.0143 0.01992,-0.014 0.0066,0.003 -0.0079,0.0101 -0.01934,0.0184 -0.02537,0.0184 -0.006,0 -0.009,-0.001 -0.0066,-0.003 z m 0.04567,-0.29103 c 0,-0.14149 0.0015,-0.19938 0.0033,-0.12863 0.0018,0.0707 0.0018,0.18651 0,0.25725 -0.0018,0.0708 -0.0033,0.0129 -0.0033,-0.12862 z m 1.379518,0.24483 c 0.0076,-0.003 0.01664,-0.003 0.02012,8.3e-4 0.0035,0.003 -0.0027,0.006 -0.01378,0.006 -0.01223,-5e-4 -0.01472,-0.003 -0.0063,-0.006 z m 0.252005,0 c 0.0076,-0.003 0.01664,-0.003 0.02012,8.3e-4 0.0035,0.003 -0.0027,0.006 -0.01378,0.006 -0.01223,-5e-4 -0.01472,-0.003 -0.0063,-0.006 z m -0.142409,-0.0109 c 0.01588,-0.002 0.04187,-0.002 0.05775,0 0.01588,0.002 0.0029,0.004 -0.02888,0.004 -0.03176,0 -0.04476,-0.002 -0.02887,-0.004 z m -0.973895,-0.16048 c 0.01045,-0.0115 0.02137,-0.021 0.02426,-0.021 0.0029,0 -0.0033,0.009 -0.01376,0.021 -0.01045,0.0115 -0.02137,0.021 -0.02426,0.021 -0.0029,0 0.0033,-0.009 0.01376,-0.021 z m 1.89954,-0.0551 -0.02,-0.0236 0.02363,0.02 c 0.0222,0.0188 0.02841,0.0273 0.02,0.0273 -0.002,0 -0.01262,-0.0106 -0.02363,-0.0236 z m -1.763037,-0.0814 c 0.01045,-0.0115 0.02137,-0.021 0.02426,-0.021 0.0029,0 -0.0033,0.009 -0.01376,0.021 -0.01045,0.0116 -0.02137,0.021 -0.02425,0.021 -0.0029,0 0.0033,-0.009 0.01375,-0.021 z m 1.641943,-0.0394 c -0.01306,-0.0166 -0.01269,-0.017 0.004,-0.004 0.01749,0.0137 0.02305,0.0223 0.01441,0.0223 -0.0022,0 -0.01045,-0.008 -0.01837,-0.0184 z m -4.870756,-0.15359 c 0,-0.002 0.0083,-0.0105 0.01837,-0.0184 0.01665,-0.0131 0.01703,-0.0127 0.004,0.004 -0.01372,0.0175 -0.02234,0.023 -0.02234,0.0144 z m 0.664138,-0.0354 c 0.345063,-0.002 0.909711,-0.002 1.254774,0 0.345063,0.002 0.06274,0.003 -0.627387,0.003 -0.690126,0 -0.97245,-0.001 -0.627387,-0.003 z m 3.082467,-0.0203 c 0.0076,-0.003 0.01664,-0.003 0.02013,8.3e-4 0.0035,0.003 -0.0027,0.006 -0.01378,0.006 -0.01223,-5e-4 -0.01472,-0.003 -0.0063,-0.006 z m 0.0525,-0.0105 c 0.0076,-0.003 0.01664,-0.003 0.02012,8.3e-4 0.0035,0.003 -0.0027,0.006 -0.01378,0.006 -0.01223,-5e-4 -0.01472,-0.003 -0.0063,-0.006 z m 0.567011,0 c 0.0076,-0.003 0.01664,-0.003 0.02013,8.3e-4 0.0035,0.003 -0.0027,0.006 -0.01378,0.006 -0.01223,-5e-4 -0.01472,-0.003 -0.0063,-0.006 z m -0.494166,-0.0103 c 0.0072,-0.003 0.01903,-0.003 0.02625,0 0.0072,0.003 0.0013,0.005 -0.01313,0.005 -0.01444,0 -0.02034,-0.002 -0.01313,-0.005 z m 0.420008,0 c 0.0072,-0.003 0.01903,-0.003 0.02625,0 0.0072,0.003 0.0013,0.005 -0.01313,0.005 -0.01444,0 -0.02034,-0.002 -0.01313,-0.005 z m -0.267755,-0.0113 c 0.03898,-0.002 0.102771,-0.002 0.141753,0 0.03898,0.002 0.0071,0.004 -0.07088,0.004 -0.07796,0 -0.109858,-0.002 -0.07088,-0.004 z m -4.558057,-0.85323 c 0,-0.0144 0.0024,-0.0203 0.0053,-0.0131 0.0029,0.007 0.0029,0.019 0,0.0263 -0.0029,0.007 -0.0053,0.001 -0.0053,-0.0131 z m 6.341296,-0.0376 c 5.04e-4,-0.0122 0.003,-0.0147 0.0063,-0.006 0.003,0.008 0.0027,0.0166 -8.29e-4,0.0201 -0.0035,0.003 -0.006,-0.003 -0.0055,-0.0138 z M 93.24045,145.7948 c 0,-0.002 0.0083,-0.0104 0.01837,-0.0184 0.01665,-0.0131 0.01703,-0.0127 0.004,0.004 -0.01372,0.0175 -0.02234,0.023 -0.02234,0.0144 z m 0.04725,-0.059 c 0.01045,-0.0115 0.02137,-0.021 0.02426,-0.021 0.0029,0 -0.0033,0.009 -0.01376,0.021 -0.01045,0.0115 -0.02137,0.021 -0.02425,0.021 -0.0029,0 0.0033,-0.009 0.01375,-0.021 z m 6.000303,-0.0499 -0.03619,-0.0394 0.03938,0.0362 c 0.03665,0.0337 0.0442,0.0426 0.03619,0.0426 -0.0018,0 -0.01947,-0.0177 -0.03938,-0.0394 z m -5.921551,-0.0289 c 0.01356,-0.0144 0.02702,-0.0263 0.02991,-0.0263 0.0029,0 -0.0058,0.0118 -0.01941,0.0263 -0.01356,0.0144 -0.02702,0.0262 -0.02991,0.0262 -0.0029,0 0.0058,-0.0118 0.01941,-0.0262 z m 0.292037,-0.14892 c 0.0076,-0.003 0.01664,-0.003 0.02013,8.3e-4 0.0035,0.003 -0.0027,0.006 -0.01378,0.006 -0.01223,-5e-4 -0.01472,-0.003 -0.0063,-0.006 z m 0.05729,-0.0106 c 0.01022,-0.003 0.02439,-0.002 0.0315,3.9e-4 0.0071,0.003 -0.0012,0.005 -0.01857,0.005 -0.01733,-2.1e-4 -0.02314,-0.003 -0.01293,-0.005 z m 5.171152,3.3e-4 c 0.0072,-0.003 0.01903,-0.003 0.02625,0 0.0072,0.003 0.0013,0.005 -0.01313,0.005 -0.01444,0 -0.02034,-0.002 -0.01313,-0.005 z"
         id="path1015"
         inkscape:connector-curvature="0" />
    </g>
    <g
       id="g1079"
       transform="matrix(7.0791394,0,0,7.0879171,-701.88547,-920.51247)">
      <path
         style="fill:#0a9649;fill-opacity:1;stroke-width:0.01050021"
         d="m 112.13986,153.01622 c -0.24523,-0.0523 -0.44678,-0.24773 -0.50991,-0.49454 -0.0199,-0.0777 -0.0203,-0.1414 -0.0203,-2.66978 0,-2.54356 3.7e-4,-2.59165 0.0207,-2.67115 0.0629,-0.24593 0.2622,-0.44035 0.50654,-0.49415 0.0693,-0.0153 0.32298,-0.0166 2.68581,-0.0139 l 2.60931,0.003 0.0682,0.0233 c 0.20654,0.0707 0.36294,0.22746 0.43761,0.43876 l 0.0296,0.0839 v 2.62505 c 0,2.51578 -8.1e-4,2.62765 -0.0192,2.68743 -0.0422,0.1368 -0.12066,0.25664 -0.22437,0.34277 -0.0706,0.0586 -0.1238,0.0882 -0.21955,0.12207 l -0.0828,0.0293 -2.60406,0.002 c -2.27304,0.002 -2.61339,-1.6e-4 -2.67755,-0.0138 z m 4.15635,-1.41075 c 0.54998,-0.0402 0.90127,-0.23191 1.06157,-0.57922 0.0665,-0.14409 0.0738,-0.18789 0.074,-0.44458 1.7e-4,-0.21313 -0.002,-0.2371 -0.0244,-0.30976 -0.0715,-0.22892 -0.22587,-0.39522 -0.47484,-0.51149 l -0.0816,-0.0381 0.0952,-0.0465 c 0.17258,-0.0844 0.29444,-0.23822 0.35119,-0.44337 0.0271,-0.0981 0.0274,-0.42681 3.5e-4,-0.52468 -0.0816,-0.29577 -0.30254,-0.48931 -0.66377,-0.58153 -0.20677,-0.0528 -0.59542,-0.0685 -0.82952,-0.0336 -0.47988,0.0716 -0.76143,0.28175 -0.84677,0.63198 -0.0314,0.12902 -0.0311,0.36904 6.8e-4,0.49207 0.0597,0.23101 0.20456,0.40686 0.39535,0.47987 l 0.06,0.023 -0.0737,0.0335 c -0.177,0.0805 -0.3461,0.22201 -0.42017,0.35162 -0.14817,0.25931 -0.14096,0.72705 0.0154,0.99686 0.0533,0.0919 0.20905,0.24757 0.30355,0.30326 0.27197,0.16028 0.64442,0.23099 1.05746,0.20078 z m -0.40397,-0.59394 c -0.21207,-0.0384 -0.32847,-0.12741 -0.37746,-0.28869 -0.0192,-0.0631 -0.0215,-0.0925 -0.0178,-0.22243 0.005,-0.18549 0.0252,-0.24685 0.10699,-0.32857 0.104,-0.10393 0.22195,-0.14133 0.47011,-0.1491 0.39096,-0.0122 0.57664,0.0661 0.66164,0.27915 0.0209,0.0524 0.0237,0.0782 0.024,0.22203 2.9e-4,0.1477 -0.002,0.16906 -0.0255,0.231 -0.0318,0.0843 -0.11046,0.16752 -0.19474,0.20611 -0.13734,0.0629 -0.44582,0.087 -0.6472,0.0505 z m 0.0469,-1.5322 c -0.0862,-0.0156 -0.17642,-0.054 -0.23361,-0.0993 -0.05,-0.0396 -0.10025,-0.13383 -0.11688,-0.21916 -0.016,-0.0821 -0.007,-0.25099 0.0162,-0.3184 0.036,-0.10272 0.12333,-0.17037 0.26519,-0.20537 0.1001,-0.0247 0.41984,-0.0247 0.51994,0 0.1934,0.0477 0.27167,0.1422 0.28741,0.34694 0.0265,0.34456 -0.15472,0.51163 -0.55263,0.50953 -0.0606,-3.2e-4 -0.14415,-0.007 -0.18558,-0.0143 z m -2.21431,2.05027 c 0.0146,-0.0208 0.0163,-0.17267 0.0163,-1.41753 v -1.39419 h 0.46126 c 0.49936,0 0.48557,0.002 0.50007,-0.0562 0.003,-0.0128 0.004,-0.12988 0.003,-0.26018 -0.002,-0.18165 -0.007,-0.24096 -0.0176,-0.25425 -0.0132,-0.0159 -0.11693,-0.0173 -1.2883,-0.0173 h -1.2739 l -0.0163,0.0233 c -0.0136,0.0195 -0.0164,0.0631 -0.0164,0.26319 0,0.23495 0.005,0.27267 0.0357,0.29345 0.006,0.004 0.21827,0.008 0.47094,0.008 l 0.45938,1.6e-4 v 1.39419 c 0,1.24486 0.002,1.39669 0.0164,1.41753 0.0163,0.0232 0.0179,0.0233 0.32491,0.0233 0.30696,0 0.30865,-1.2e-4 0.32491,-0.0233 z m -2.31995,-5.05876 c 0.0105,-0.0115 0.0214,-0.021 0.0243,-0.021 0.003,0 -0.003,0.009 -0.0138,0.021 -0.0105,0.0115 -0.0214,0.021 -0.0243,0.021 -0.003,0 0.003,-0.009 0.0138,-0.021 z"
         id="path1083"
         inkscape:connector-curvature="0" />
      <path
         style="fill:#ffffff;stroke-width:0.01050021"
         d="m 111.98236,153.55381 c -0.15633,-0.0408 -0.26002,-0.0874 -0.39376,-0.17714 -0.23452,-0.15736 -0.42104,-0.42006 -0.50088,-0.70546 l -0.0294,-0.105 -0.003,-2.68047 c -0.003,-2.67611 -0.003,-2.68065 0.019,-2.78781 0.0504,-0.2484 0.16689,-0.45918 0.35264,-0.63806 0.14209,-0.13682 0.28997,-0.22781 0.4667,-0.28713 0.18525,-0.0622 0.0239,-0.0589 2.89724,-0.0589 2.88302,0 2.70669,-0.004 2.89995,0.0618 0.36369,0.12331 0.65349,0.41353 0.77495,0.77605 0.0667,0.19908 0.0631,0.0333 0.0631,2.90025 0,2.83442 0.003,2.69623 -0.0572,2.87991 -0.064,0.19602 -0.15906,0.35105 -0.30444,0.49643 -0.16049,0.16048 -0.35335,0.27092 -0.56842,0.32547 l -0.10156,0.0258 -2.71033,-5.2e-4 -2.71033,-5.2e-4 z m 5.52195,-0.55489 c 0.0957,-0.0339 0.14898,-0.0634 0.21955,-0.12207 0.10371,-0.0861 0.18215,-0.20597 0.22437,-0.34277 0.0184,-0.0598 0.0192,-0.17165 0.0192,-2.68743 v -2.62505 l -0.0296,-0.0839 c -0.0747,-0.2113 -0.23107,-0.36811 -0.43761,-0.43876 l -0.0682,-0.0233 -2.60931,-0.003 c -2.36283,-0.003 -2.61652,-0.001 -2.68581,0.0139 -0.24434,0.0538 -0.44364,0.24822 -0.50654,0.49415 -0.0203,0.0795 -0.0207,0.12759 -0.0207,2.67115 0,2.52838 4.9e-4,2.59209 0.0203,2.66978 0.0497,0.19435 0.18205,0.35604 0.36291,0.44338 0.14828,0.0716 -0.0517,0.067 2.82455,0.065 l 2.60406,-0.002 z m -1.55812,-1.39398 c -0.28321,-0.0204 -0.51241,-0.0853 -0.70744,-0.20025 -0.0945,-0.0557 -0.25027,-0.21132 -0.30355,-0.30326 -0.15633,-0.26981 -0.16354,-0.73755 -0.0154,-0.99686 0.0741,-0.12961 0.24317,-0.27113 0.42016,-0.35162 l 0.0737,-0.0335 -0.06,-0.023 c -0.19079,-0.073 -0.33566,-0.24886 -0.39535,-0.47987 -0.0318,-0.12303 -0.0321,-0.36305 -6.8e-4,-0.49207 0.0853,-0.35023 0.36689,-0.56036 0.84677,-0.63198 0.2341,-0.0349 0.62275,-0.0192 0.82952,0.0336 0.36123,0.0922 0.58214,0.28576 0.66377,0.58153 0.027,0.0979 0.0268,0.42656 -3.5e-4,0.52468 -0.0567,0.20515 -0.17862,0.35901 -0.35119,0.44337 l -0.0952,0.0465 0.0816,0.0381 c 0.24897,0.11627 0.40336,0.28257 0.47483,0.51149 0.0227,0.0727 0.0246,0.0966 0.0244,0.30976 -2.1e-4,0.25669 -0.008,0.30049 -0.074,0.44458 -0.1603,0.34731 -0.51159,0.53899 -1.06157,0.57922 -0.15037,0.011 -0.19118,0.0109 -0.35002,-5.3e-4 z m 0.43818,-0.59729 c 0.0533,-0.011 0.1231,-0.032 0.15507,-0.0466 0.0843,-0.0386 0.16291,-0.1218 0.19474,-0.20611 0.0234,-0.0619 0.0257,-0.0833 0.0255,-0.231 -2.8e-4,-0.14383 -0.003,-0.16965 -0.024,-0.22203 -0.0625,-0.15671 -0.18592,-0.24067 -0.39966,-0.27192 -0.11581,-0.0169 -0.41512,-0.008 -0.49827,0.0152 -0.15703,0.0434 -0.26734,0.1293 -0.31196,0.24285 -0.0207,0.0526 -0.0253,0.0866 -0.0288,0.21242 -0.004,0.12994 -10e-4,0.15936 0.0178,0.22243 0.049,0.16128 0.16539,0.2503 0.37746,0.28869 0.12319,0.0223 0.37491,0.0203 0.49213,-0.004 z m -0.0677,-1.52806 c 0.15558,-0.0277 0.2682,-0.10225 0.31807,-0.21045 0.0734,-0.15933 0.0535,-0.41968 -0.0403,-0.52654 -0.0787,-0.0897 -0.20458,-0.123 -0.4645,-0.123 -0.2667,0 -0.38772,0.0336 -0.47076,0.13059 -0.0503,0.0588 -0.0703,0.12132 -0.0775,0.24268 -0.0203,0.34253 0.149,0.49864 0.54297,0.50071 0.0606,3.2e-4 0.14705,-0.006 0.19202,-0.014 z m -3.24173,2.05001 c -0.0146,-0.0208 -0.0164,-0.17267 -0.0164,-1.41753 v -1.39419 l -0.45938,-1.6e-4 c -0.25267,-8e-5 -0.46459,-0.004 -0.47094,-0.008 -0.0311,-0.0208 -0.0357,-0.0585 -0.0357,-0.29345 0,-0.20009 0.003,-0.24373 0.0164,-0.26319 l 0.0163,-0.0233 h 1.2739 c 1.17137,0 1.27505,10e-4 1.2883,0.0173 0.011,0.0133 0.0152,0.0726 0.0176,0.25425 0.002,0.1303 5.7e-4,0.24738 -0.003,0.26018 -0.0145,0.0578 -7.1e-4,0.0562 -0.50007,0.0562 h -0.46126 v 1.39419 c 0,1.24486 -0.002,1.39669 -0.0163,1.41753 -0.0163,0.0232 -0.0179,0.0233 -0.32491,0.0233 -0.30696,0 -0.30865,-1.2e-4 -0.32491,-0.0233 z"
         id="path1081"
         inkscape:connector-curvature="0" />
    </g>
  </g>
</svg>
