<?xml version="1.0" encoding="UTF-8" standalone="no"?>
<!-- Created with Inkscape (http://www.inkscape.org/) -->

<svg
   xmlns:dc="http://purl.org/dc/elements/1.1/"
   xmlns:cc="http://creativecommons.org/ns#"
   xmlns:rdf="http://www.w3.org/1999/02/22-rdf-syntax-ns#"
   xmlns:svg="http://www.w3.org/2000/svg"
   xmlns="http://www.w3.org/2000/svg"
   xmlns:sodipodi="http://sodipodi.sourceforge.net/DTD/sodipodi-0.dtd"
   xmlns:inkscape="http://www.inkscape.org/namespaces/inkscape"
   width="52.916668mm"
   height="52.916668mm"
   viewBox="0 0 52.916668 52.916668"
   version="1.1"
   id="svg8"
   inkscape:version="0.92.3 (2405546, 2018-03-11)"
   sodipodi:docname="T9.svg">
  <defs
     id="defs2" />
  <sodipodi:namedview
     id="base"
     pagecolor="#ffffff"
     bordercolor="#666666"
     borderopacity="1.0"
     inkscape:pageopacity="0.0"
     inkscape:pageshadow="2"
     inkscape:zoom="5.2996274"
     inkscape:cx="79.481078"
     inkscape:cy="69.067672"
     inkscape:document-units="mm"
     inkscape:current-layer="layer1"
     showgrid="false"
     inkscape:pagecheckerboard="true"
     fit-margin-top="0"
     fit-margin-left="0"
     fit-margin-right="0"
     fit-margin-bottom="0"
     inkscape:window-width="932"
     inkscape:window-height="887"
     inkscape:window-x="860"
     inkscape:window-y="52"
     inkscape:window-maximized="0" />
  <metadata
     id="metadata5">
    <rdf:RDF>
      <cc:Work
         rdf:about="">
        <dc:format>image/svg+xml</dc:format>
        <dc:type
           rdf:resource="http://purl.org/dc/dcmitype/StillImage" />
        <dc:title></dc:title>
      </cc:Work>
    </rdf:RDF>
  </metadata>
  <g
     inkscape:label="Layer 1"
     inkscape:groupmode="layer"
     id="layer1"
     transform="translate(-84.803964,-114.19083)">
    <g
       id="g1011"
       transform="translate(-0.89864808,2.1966957)">
      <path
         style="fill:#748bc2;stroke-width:0.01050021"
         d="m 95.017561,151.84923 c 0.71467,-0.001 1.884131,-0.001 2.598801,0 0.714671,0.001 0.12994,0.003 -1.2994,0.003 -1.429341,0 -2.014071,-0.001 -1.299401,-0.003 z m -1.34862,-0.01 c 0.0076,-0.003 0.01664,-0.003 0.02012,8.3e-4 0.0035,0.003 -0.0027,0.006 -0.01378,0.006 -0.01223,-5.1e-4 -0.01472,-0.003 -0.0063,-0.006 z m 5.546078,-0.11229 c 0,-0.002 0.0083,-0.0104 0.01838,-0.0184 0.01665,-0.0131 0.01702,-0.0127 0.004,0.004 -0.01372,0.0175 -0.02234,0.0231 -0.02234,0.0144 z m -5.885761,-0.0722 -0.05211,-0.0551 0.05513,0.0521 c 0.05122,0.0484 0.05994,0.0581 0.05211,0.0581 -0.0017,0 -0.02647,-0.0248 -0.05513,-0.0551 z m 5.948762,0.0197 c 0,-0.002 0.0083,-0.0105 0.01838,-0.0184 0.01665,-0.0131 0.01703,-0.0127 0.004,0.004 -0.01372,0.0175 -0.02234,0.023 -0.02234,0.0144 z m 0.200333,-0.36967 c 5.04e-4,-0.0122 0.003,-0.0147 0.0063,-0.006 0.003,0.008 0.0027,0.0166 -8.29e-4,0.0201 -0.0035,0.003 -0.006,-0.003 -0.0055,-0.0138 z m -6.341296,-0.0359 c 0,-0.0144 0.0024,-0.0203 0.0053,-0.0131 0.0029,0.007 0.0029,0.019 0,0.0263 -0.0029,0.007 -0.0053,0.001 -0.0053,-0.0131 z m 6.356134,-2.5988 c 0,-1.42067 0.0012,-2.0003 0.0027,-1.28805 0.0015,0.71224 0.0015,1.87462 0,2.58305 -0.0015,0.70843 -0.0027,0.12568 -0.0027,-1.295 z m -1.792475,1.74053 c 0.03051,-0.002 0.07776,-0.002 0.105002,6e-5 0.02724,0.002 0.0023,0.004 -0.05548,0.004 -0.05775,-4e-5 -0.08004,-0.002 -0.04952,-0.004 z m -0.162906,-0.01 c 0.01022,-0.003 0.02439,-0.002 0.0315,3.9e-4 0.0071,0.003 -0.0012,0.005 -0.01857,0.005 -0.01732,-2.1e-4 -0.02314,-0.003 -0.01293,-0.005 z m 0.393558,3.2e-4 c 0.0072,-0.003 0.01903,-0.003 0.02625,0 0.0072,0.003 0.0013,0.005 -0.01312,0.005 -0.01444,0 -0.02035,-0.002 -0.01313,-0.005 z m -0.461352,-0.0107 c 0.0076,-0.003 0.01664,-0.003 0.02012,8.3e-4 0.0035,0.003 -0.0027,0.006 -0.01378,0.006 -0.01223,-5.1e-4 -0.01472,-0.003 -0.0063,-0.006 z m 0.53551,0 c 0.0076,-0.003 0.01664,-0.003 0.02013,8.3e-4 0.0035,0.003 -0.0027,0.006 -0.01378,0.006 -0.01223,-5.1e-4 -0.01472,-0.003 -0.0063,-0.006 z m -0.598512,-0.0105 c 0.0076,-0.003 0.01664,-0.003 0.02013,8.3e-4 0.0035,0.003 -0.0027,0.006 -0.01378,0.006 -0.01223,-5.1e-4 -0.01472,-0.003 -0.0063,-0.006 z m -2.588957,-0.0217 c 0.07941,-0.002 0.209348,-0.002 0.288756,0 0.07941,0.002 0.01444,0.003 -0.144378,0.003 -0.158816,0 -0.223786,-0.001 -0.144378,-0.003 z m -0.182468,-0.021 c -0.01306,-0.0166 -0.01269,-0.017 0.004,-0.004 0.01749,0.0137 0.02305,0.0223 0.01441,0.0223 -0.0022,0 -0.01045,-0.008 -0.01838,-0.0184 z m -0.01457,-1.39915 c 0,-0.75365 0.0013,-1.06197 0.0028,-0.68514 0.0015,0.37683 0.0015,0.99345 0,1.37028 -0.0015,0.37682 -0.0028,0.0685 -0.0028,-0.68514 z m 2.246202,1.1944 -0.02,-0.0236 0.02363,0.02 c 0.01299,0.011 0.02363,0.0216 0.02363,0.0236 0,0.008 -0.0085,0.002 -0.02725,-0.02 z m 1.696781,0.0197 c 0,-0.002 0.0083,-0.0104 0.01837,-0.0184 0.01665,-0.0131 0.01703,-0.0127 0.004,0.004 -0.01372,0.0175 -0.02234,0.0231 -0.02234,0.0144 z m -1.812283,-0.13516 -0.02,-0.0236 0.02363,0.02 c 0.0222,0.0188 0.02841,0.0273 0.02,0.0273 -0.002,0 -0.01262,-0.0106 -0.02362,-0.0236 z m 1.948786,-0.001 c 0,-0.002 0.0083,-0.0105 0.01838,-0.0184 0.01665,-0.0131 0.01703,-0.0127 0.004,0.004 -0.01372,0.0175 -0.02234,0.0231 -0.02234,0.0144 z m -0.989367,-0.19275 c 0.0247,-0.002 0.0625,-0.002 0.084,8e-5 0.0215,0.002 0.0013,0.004 -0.0449,0.004 -0.0462,-4e-5 -0.06379,-0.002 -0.0391,-0.004 z m -0.371408,-0.13142 -0.02,-0.0236 0.02363,0.02 c 0.01299,0.011 0.02362,0.0216 0.02362,0.0236 0,0.008 -0.0084,0.002 -0.02725,-0.02 z m 0.762263,0.0203 c 0,-0.002 0.01536,-0.0172 0.03413,-0.0341 l 0.03413,-0.0308 -0.03084,0.0341 c -0.02875,0.0318 -0.03741,0.0389 -0.03741,0.0308 z m -0.814764,-0.0728 -0.02,-0.0236 0.02363,0.02 c 0.01299,0.011 0.02362,0.0216 0.02362,0.0236 0,0.008 -0.0084,0.002 -0.02725,-0.02 z m -0.06243,-0.0926 c -0.0038,-0.006 -0.0047,-0.0135 -0.0019,-0.0162 0.0028,-0.003 0.0078,0.002 0.01122,0.0112 0.0071,0.0185 10e-4,0.0217 -0.0093,0.005 z m -0.707503,-0.0579 c 5.04e-4,-0.0122 0.003,-0.0147 0.0063,-0.006 0.003,0.008 0.0027,0.0166 -8.28e-4,0.0201 -0.0035,0.003 -0.006,-0.003 -0.0055,-0.0138 z m 2.425547,0 c 5.04e-4,-0.0122 0.003,-0.0147 0.0063,-0.006 0.003,0.008 0.0027,0.0166 -8.28e-4,0.0201 -0.0035,0.003 -0.006,-0.003 -0.0055,-0.0138 z m -2.435219,-0.0674 c 0,-0.0144 0.0024,-0.0204 0.0053,-0.0131 0.0029,0.007 0.0029,0.019 0,0.0263 -0.0029,0.007 -0.0053,0.001 -0.0053,-0.0131 z m 1.763206,-0.006 c 5.04e-4,-0.0122 0.003,-0.0147 0.0063,-0.006 0.003,0.008 0.0027,0.0166 -8.29e-4,0.0201 -0.0035,0.003 -0.006,-0.003 -0.0055,-0.0138 z m 0.684544,-0.0254 c 0,-0.026 0.002,-0.0366 0.0046,-0.0236 0.0025,0.013 0.0025,0.0343 0,0.0473 -0.0025,0.013 -0.0046,0.002 -0.0046,-0.0236 z m -0.672826,-0.0367 c 2.14e-4,-0.0173 0.0026,-0.0231 0.0052,-0.0129 0.0027,0.0102 0.0025,0.0244 -3.9e-4,0.0315 -0.0029,0.007 -0.0051,-10e-4 -0.0048,-0.0186 z m -1.113411,-0.0157 c 0,-0.0144 0.0024,-0.0204 0.0053,-0.0131 0.0029,0.007 0.0029,0.019 0,0.0263 -0.0029,0.007 -0.0053,0.001 -0.0053,-0.0131 z m -0.668731,-0.65102 c 0,-0.36094 0.0013,-0.5086 0.0029,-0.32813 0.0016,0.18047 0.0016,0.47579 0,0.65627 -0.0016,0.18047 -0.0029,0.0328 -0.0029,-0.32814 z m 0.66912,0.45676 c 2.15e-4,-0.0173 0.0026,-0.0231 0.0052,-0.0129 0.0027,0.0102 0.0025,0.0244 -3.9e-4,0.0315 -0.0029,0.007 -0.0051,-0.001 -0.0048,-0.0186 z m 1.785992,-0.0315 c 8.4e-5,-0.0289 0.0021,-0.0394 0.0045,-0.0235 0.0024,0.016 0.0023,0.0396 -1.43e-4,0.0525 -0.0025,0.0129 -0.0045,-1.4e-4 -0.0044,-0.029 z m -0.673359,0.0157 c 0,-0.0144 0.0024,-0.0203 0.0053,-0.0131 0.0029,0.007 0.0029,0.019 0,0.0262 -0.0029,0.007 -0.0053,0.001 -0.0053,-0.0131 z m -0.01133,-0.0691 c 5.04e-4,-0.0122 0.003,-0.0147 0.0063,-0.006 0.003,0.008 0.0027,0.0166 -8.29e-4,0.0201 -0.0035,0.003 -0.006,-0.003 -0.0055,-0.0138 z m 0.672013,-0.063 c 5.04e-4,-0.0122 0.003,-0.0147 0.0063,-0.006 0.003,0.008 0.0027,0.0166 -8.28e-4,0.0201 -0.0035,0.003 -0.006,-0.003 -0.0055,-0.0138 z m -0.0105,-0.063 c 5.04e-4,-0.0122 0.003,-0.0147 0.0063,-0.006 0.003,0.008 0.0027,0.0166 -8.29e-4,0.0201 -0.0035,0.003 -0.006,-0.003 -0.0055,-0.0138 z m -0.80991,-0.15925 -0.03619,-0.0394 0.03938,0.0362 c 0.03665,0.0337 0.0442,0.0426 0.03619,0.0426 -0.0018,0 -0.01947,-0.0177 -0.03938,-0.0394 z m -0.807951,0.0249 c 0,-0.002 0.0083,-0.0105 0.01838,-0.0184 0.01665,-0.0131 0.01702,-0.0127 0.004,0.004 -0.01372,0.0175 -0.02234,0.023 -0.02234,0.0144 z m 0.260537,-0.15021 c 0.0076,-0.003 0.01664,-0.003 0.02012,8.3e-4 0.0035,0.003 -0.0027,0.006 -0.01378,0.006 -0.01223,-5e-4 -0.01472,-0.003 -0.0063,-0.006 z m 0.0525,-0.0105 c 0.0076,-0.003 0.01664,-0.003 0.02012,8.3e-4 0.0035,0.003 -0.0027,0.006 -0.01378,0.006 -0.01223,-5e-4 -0.01472,-0.003 -0.0063,-0.006 z m 0.219848,2.2e-4 c 0.0072,-0.003 0.01903,-0.003 0.02625,0 0.0072,0.003 0.0013,0.005 -0.01313,0.005 -0.01444,0 -0.02034,-0.002 -0.01312,-0.005 z m -0.11538,-0.011 c 0.01306,-0.003 0.03196,-0.002 0.042,2.1e-4 0.01004,0.003 -6.48e-4,0.005 -0.02375,0.005 -0.0231,-1.1e-4 -0.03131,-0.002 -0.01825,-0.005 z m 0.967727,-0.18946 -0.02546,-0.0289 0.02888,0.0255 c 0.01588,0.014 0.02887,0.027 0.02887,0.0289 0,0.008 -0.0085,0.002 -0.0323,-0.0255 z m -0.0945,-0.0945 -0.02546,-0.0289 0.02888,0.0255 c 0.01588,0.014 0.02887,0.027 0.02887,0.0289 0,0.008 -0.0085,0.002 -0.0323,-0.0255 z m -1.395733,-0.0276 c 0,-0.002 0.0083,-0.0104 0.01838,-0.0184 0.01665,-0.0131 0.01702,-0.0127 0.004,0.004 -0.01372,0.0175 -0.02234,0.023 -0.02234,0.0144 z m 0.94305,-0.19221 c 0.0076,-0.003 0.01664,-0.003 0.02012,8.3e-4 0.0035,0.003 -0.0027,0.006 -0.01378,0.006 -0.01223,-5e-4 -0.01472,-0.003 -0.0063,-0.006 z m -0.52501,-0.0105 c 0.0076,-0.003 0.01664,-0.003 0.02012,8.3e-4 0.0035,0.003 -0.0027,0.006 -0.01378,0.006 -0.01223,-5e-4 -0.01472,-0.003 -0.0063,-0.006 z m 0.472509,0 c 0.0076,-0.003 0.01664,-0.003 0.02013,8.3e-4 0.0035,0.003 -0.0027,0.006 -0.01378,0.006 -0.01223,-5e-4 -0.01472,-0.003 -0.0063,-0.006 z m -0.410164,-0.0103 c 0.0072,-0.003 0.01903,-0.003 0.02625,0 0.0072,0.003 0.0013,0.005 -0.01313,0.005 -0.01444,0 -0.02034,-0.002 -0.01313,-0.005 z m 0.336006,0 c 0.0072,-0.003 0.01903,-0.003 0.02625,0 0.0072,0.003 0.0013,0.005 -0.01313,0.005 -0.01444,0 -0.02034,-0.002 -0.01313,-0.005 z m -0.199226,-0.0113 c 0.0247,-0.002 0.0625,-0.002 0.084,7e-5 0.0215,0.002 0.0013,0.004 -0.0449,0.004 -0.0462,-5e-5 -0.06379,-0.002 -0.0391,-0.004 z m -0.657119,-0.029 c 2.15e-4,-0.0173 0.0026,-0.0231 0.0052,-0.0129 0.0027,0.0102 0.0025,0.0244 -3.9e-4,0.0315 -0.0029,0.007 -0.0051,-0.001 -0.0048,-0.0186 z m 0.0093,-0.0849 c 5.04e-4,-0.0122 0.003,-0.0147 0.0063,-0.006 0.003,0.008 0.0027,0.0166 -8.28e-4,0.0201 -0.0035,0.003 -0.006,-0.003 -0.0055,-0.0138 z m -0.671185,-0.0149 c 0,-0.0144 0.0024,-0.0203 0.0053,-0.0131 0.0029,0.007 0.0029,0.019 0,0.0263 -0.0029,0.007 -0.0053,10e-4 -0.0053,-0.0131 z m 0.0097,-0.0691 c 5.04e-4,-0.0122 0.003,-0.0147 0.0063,-0.006 0.003,0.008 0.0027,0.0166 -8.28e-4,0.0201 -0.0035,0.003 -0.006,-0.003 -0.0055,-0.0138 z m 1.803237,-0.022 c 0.0076,-0.003 0.01664,-0.003 0.02013,8.2e-4 0.0035,0.003 -0.0027,0.006 -0.01378,0.006 -0.01223,-5.1e-4 -0.01472,-0.003 -0.0063,-0.006 z m -0.04137,-0.0217 c -0.01306,-0.0166 -0.01269,-0.017 0.004,-0.004 0.01749,0.0137 0.02305,0.0223 0.01441,0.0223 -0.0022,0 -0.01045,-0.008 -0.01837,-0.0184 z m 0.553713,-0.16172 c 0.01094,-0.0153 0.02199,-0.0258 0.02455,-0.0233 0.0026,0.002 -0.0064,0.015 -0.01989,0.0279 l -0.02455,0.0233 z m -1.476392,-0.0444 c 0,-0.002 0.0083,-0.0104 0.01838,-0.0184 0.01665,-0.0131 0.01703,-0.0127 0.004,0.004 -0.01372,0.0175 -0.02234,0.023 -0.02234,0.0144 z m -1.154148,-0.0725 c 0.0024,-0.002 0.01383,-0.01 0.02538,-0.0184 0.01942,-0.0143 0.01992,-0.014 0.0066,0.003 -0.0079,0.0101 -0.01934,0.0184 -0.02537,0.0184 -0.006,0 -0.009,-0.001 -0.0066,-0.003 z m 0.04567,-0.29103 c 0,-0.14149 0.0015,-0.19938 0.0033,-0.12863 0.0018,0.0707 0.0018,0.18651 0,0.25725 -0.0018,0.0708 -0.0033,0.0129 -0.0033,-0.12862 z m 1.379518,0.24483 c 0.0076,-0.003 0.01664,-0.003 0.02012,8.3e-4 0.0035,0.003 -0.0027,0.006 -0.01378,0.006 -0.01223,-5e-4 -0.01472,-0.003 -0.0063,-0.006 z m 0.252005,0 c 0.0076,-0.003 0.01664,-0.003 0.02012,8.3e-4 0.0035,0.003 -0.0027,0.006 -0.01378,0.006 -0.01223,-5e-4 -0.01472,-0.003 -0.0063,-0.006 z m -0.142409,-0.0109 c 0.01588,-0.002 0.04187,-0.002 0.05775,0 0.01588,0.002 0.0029,0.004 -0.02888,0.004 -0.03176,0 -0.04476,-0.002 -0.02887,-0.004 z m -0.973895,-0.16048 c 0.01045,-0.0115 0.02137,-0.021 0.02426,-0.021 0.0029,0 -0.0033,0.009 -0.01376,0.021 -0.01045,0.0115 -0.02137,0.021 -0.02426,0.021 -0.0029,0 0.0033,-0.009 0.01376,-0.021 z m 1.89954,-0.0551 -0.02,-0.0236 0.02363,0.02 c 0.0222,0.0188 0.02841,0.0273 0.02,0.0273 -0.002,0 -0.01262,-0.0106 -0.02363,-0.0236 z m -1.763037,-0.0814 c 0.01045,-0.0115 0.02137,-0.021 0.02426,-0.021 0.0029,0 -0.0033,0.009 -0.01376,0.021 -0.01045,0.0116 -0.02137,0.021 -0.02425,0.021 -0.0029,0 0.0033,-0.009 0.01375,-0.021 z m 1.641943,-0.0394 c -0.01306,-0.0166 -0.01269,-0.017 0.004,-0.004 0.01749,0.0137 0.02305,0.0223 0.01441,0.0223 -0.0022,0 -0.01045,-0.008 -0.01837,-0.0184 z m -4.870756,-0.15359 c 0,-0.002 0.0083,-0.0105 0.01837,-0.0184 0.01665,-0.0131 0.01703,-0.0127 0.004,0.004 -0.01372,0.0175 -0.02234,0.023 -0.02234,0.0144 z m 0.664138,-0.0354 c 0.345063,-0.002 0.909711,-0.002 1.254774,0 0.345063,0.002 0.06274,0.003 -0.627387,0.003 -0.690126,0 -0.97245,-0.001 -0.627387,-0.003 z m 3.082467,-0.0203 c 0.0076,-0.003 0.01664,-0.003 0.02013,8.3e-4 0.0035,0.003 -0.0027,0.006 -0.01378,0.006 -0.01223,-5e-4 -0.01472,-0.003 -0.0063,-0.006 z m 0.0525,-0.0105 c 0.0076,-0.003 0.01664,-0.003 0.02012,8.3e-4 0.0035,0.003 -0.0027,0.006 -0.01378,0.006 -0.01223,-5e-4 -0.01472,-0.003 -0.0063,-0.006 z m 0.567011,0 c 0.0076,-0.003 0.01664,-0.003 0.02013,8.3e-4 0.0035,0.003 -0.0027,0.006 -0.01378,0.006 -0.01223,-5e-4 -0.01472,-0.003 -0.0063,-0.006 z m -0.494166,-0.0103 c 0.0072,-0.003 0.01903,-0.003 0.02625,0 0.0072,0.003 0.0013,0.005 -0.01313,0.005 -0.01444,0 -0.02034,-0.002 -0.01313,-0.005 z m 0.420008,0 c 0.0072,-0.003 0.01903,-0.003 0.02625,0 0.0072,0.003 0.0013,0.005 -0.01313,0.005 -0.01444,0 -0.02034,-0.002 -0.01313,-0.005 z m -0.267755,-0.0113 c 0.03898,-0.002 0.102771,-0.002 0.141753,0 0.03898,0.002 0.0071,0.004 -0.07088,0.004 -0.07796,0 -0.109858,-0.002 -0.07088,-0.004 z m -4.558057,-0.85323 c 0,-0.0144 0.0024,-0.0203 0.0053,-0.0131 0.0029,0.007 0.0029,0.019 0,0.0263 -0.0029,0.007 -0.0053,0.001 -0.0053,-0.0131 z m 6.341296,-0.0376 c 5.04e-4,-0.0122 0.003,-0.0147 0.0063,-0.006 0.003,0.008 0.0027,0.0166 -8.29e-4,0.0201 -0.0035,0.003 -0.006,-0.003 -0.0055,-0.0138 z M 93.24045,145.7948 c 0,-0.002 0.0083,-0.0104 0.01837,-0.0184 0.01665,-0.0131 0.01703,-0.0127 0.004,0.004 -0.01372,0.0175 -0.02234,0.023 -0.02234,0.0144 z m 0.04725,-0.059 c 0.01045,-0.0115 0.02137,-0.021 0.02426,-0.021 0.0029,0 -0.0033,0.009 -0.01376,0.021 -0.01045,0.0115 -0.02137,0.021 -0.02425,0.021 -0.0029,0 0.0033,-0.009 0.01375,-0.021 z m 6.000303,-0.0499 -0.03619,-0.0394 0.03938,0.0362 c 0.03665,0.0337 0.0442,0.0426 0.03619,0.0426 -0.0018,0 -0.01947,-0.0177 -0.03938,-0.0394 z m -5.921551,-0.0289 c 0.01356,-0.0144 0.02702,-0.0263 0.02991,-0.0263 0.0029,0 -0.0058,0.0118 -0.01941,0.0263 -0.01356,0.0144 -0.02702,0.0262 -0.02991,0.0262 -0.0029,0 0.0058,-0.0118 0.01941,-0.0262 z m 0.292037,-0.14892 c 0.0076,-0.003 0.01664,-0.003 0.02013,8.3e-4 0.0035,0.003 -0.0027,0.006 -0.01378,0.006 -0.01223,-5e-4 -0.01472,-0.003 -0.0063,-0.006 z m 0.05729,-0.0106 c 0.01022,-0.003 0.02439,-0.002 0.0315,3.9e-4 0.0071,0.003 -0.0012,0.005 -0.01857,0.005 -0.01733,-2.1e-4 -0.02314,-0.003 -0.01293,-0.005 z m 5.171152,3.3e-4 c 0.0072,-0.003 0.01903,-0.003 0.02625,0 0.0072,0.003 0.0013,0.005 -0.01313,0.005 -0.01444,0 -0.02034,-0.002 -0.01313,-0.005 z"
         id="path1015"
         inkscape:connector-curvature="0" />
    </g>
    <g
       id="g1113"
       transform="translate(2.5503489,12.154216)">
      <path
         style="fill:#e47883;stroke-width:0.01050021"
         d="m 95.781991,148.12154 c 0.01022,-0.003 0.02439,-0.002 0.0315,3.9e-4 0.0071,0.003 -0.0012,0.005 -0.01857,0.005 -0.01732,-2.1e-4 -0.02314,-0.003 -0.01293,-0.005 z m 5.145099,0 c 0.0102,-0.003 0.0244,-0.002 0.0315,3.9e-4 0.007,0.003 -0.001,0.005 -0.0186,0.005 -0.0173,-2.1e-4 -0.0231,-0.003 -0.0129,-0.005 z m -5.212893,-0.0104 c 0.0076,-0.003 0.01664,-0.003 0.02013,8.3e-4 0.0035,0.003 -0.0027,0.006 -0.01378,0.006 -0.01223,-5.1e-4 -0.01472,-0.003 -0.0063,-0.006 z m 5.567073,-0.12279 c 0,-0.002 0.008,-0.0104 0.0184,-0.0184 0.0166,-0.0131 0.017,-0.0127 0.004,0.004 -0.0137,0.0175 -0.0223,0.0231 -0.0223,0.0144 z m 0.0945,-0.0945 c 0,-0.002 0.008,-0.0104 0.0184,-0.0184 0.0167,-0.0131 0.017,-0.0127 0.004,0.004 -0.0137,0.0175 -0.0223,0.0231 -0.0223,0.0144 z m -6.183796,-0.31717 c 5.04e-4,-0.0122 0.003,-0.0147 0.0063,-0.006 0.003,0.008 0.0027,0.0166 -8.29e-4,0.0201 -0.0035,0.003 -0.006,-0.003 -0.0055,-0.0138 z m 6.342126,-0.021 c 5e-4,-0.0122 0.003,-0.0147 0.006,-0.006 0.003,0.008 0.003,0.0166 -8.3e-4,0.0201 -0.003,0.003 -0.006,-0.003 -0.006,-0.0138 z m -6.348289,-2.60843 c 0,-1.41779 0.0012,-1.99779 0.0027,-1.2889 0.0015,0.7089 0.0015,1.86891 0,2.5778 -0.0015,0.7089 -0.0027,0.12889 -0.0027,-1.2889 z m 6.363119,0 c 0,-1.38891 0.001,-1.9571 0.003,-1.26265 0.002,0.69446 0.002,1.83085 0,2.5253 -0.001,0.69446 -0.003,0.12627 -0.003,-1.26265 z m -1.918411,1.75625 c 0.03632,-0.002 0.09302,-0.002 0.126002,5e-5 0.03298,0.002 0.0033,0.004 -0.06604,0.004 -0.0693,-2e-5 -0.09629,-0.002 -0.05997,-0.004 z m -0.157915,-0.01 c 0.0072,-0.003 0.01903,-0.003 0.02625,0 0.0072,0.003 0.0013,0.005 -0.01312,0.005 -0.01444,0 -0.02035,-0.002 -0.01313,-0.005 z m 0.409508,0 c 0.0072,-0.003 0.01903,-0.003 0.02625,0 0.0072,0.003 0.0013,0.005 -0.01313,0.005 -0.01444,0 -0.02034,-0.002 -0.01313,-0.005 z m -0.482353,-0.0107 c 0.0076,-0.003 0.01664,-0.003 0.02013,8.2e-4 0.0035,0.003 -0.0027,0.006 -0.01378,0.006 -0.01223,-5.1e-4 -0.01472,-0.003 -0.0063,-0.006 z m 0.567011,0 c 0.0076,-0.003 0.01664,-0.003 0.02013,8.2e-4 0.0035,0.003 -0.0027,0.006 -0.01378,0.006 -0.01223,-5.1e-4 -0.01472,-0.003 -0.0063,-0.006 z m -0.672013,-0.021 c 0.0076,-0.003 0.01664,-0.003 0.02013,8.3e-4 0.0035,0.003 -0.0027,0.006 -0.01378,0.006 -0.01223,-5.1e-4 -0.01472,-0.003 -0.0063,-0.006 z m -2.409826,-0.0112 c 0.07975,-0.002 0.207331,-0.002 0.283506,1e-5 0.07618,0.002 0.01092,0.003 -0.145006,0.003 -0.155928,0 -0.218253,-10e-4 -0.1385,-0.003 z m -0.183096,-0.021 c -0.01306,-0.0166 -0.01269,-0.017 0.004,-0.004 0.01749,0.0137 0.02305,0.0223 0.01441,0.0223 -0.0022,0 -0.01045,-0.008 -0.01838,-0.0184 z m -0.01456,-1.42015 c 0,-0.77098 0.0012,-1.08638 0.0028,-0.70089 0.0015,0.38549 0.0015,1.01629 0,1.40178 -0.0015,0.38549 -0.0028,0.0701 -0.0028,-0.70089 z m 3.848475,1.23506 c 0,-0.002 0.008,-0.0104 0.0184,-0.0184 0.0166,-0.0131 0.017,-0.0127 0.004,0.004 -0.0137,0.0175 -0.0223,0.0231 -0.0223,0.0144 z m -1.786372,-0.0459 c -0.01306,-0.0167 -0.01269,-0.017 0.004,-0.004 0.01749,0.0137 0.02305,0.0223 0.01441,0.0223 -0.0022,0 -0.01045,-0.008 -0.01837,-0.0184 z m 1.912372,-0.0801 c 0,-0.002 0.008,-0.0104 0.0184,-0.0184 0.0166,-0.0131 0.017,-0.0127 0.004,0.004 -0.0137,0.0175 -0.0223,0.0231 -0.0223,0.0144 z m -2.038375,-0.0459 c -0.01306,-0.0166 -0.01269,-0.017 0.004,-0.004 0.01749,0.0137 0.02305,0.0223 0.01441,0.0223 -0.0022,0 -0.01045,-0.008 -0.01838,-0.0184 z m 0.949183,-0.1674 c 0.01022,-0.003 0.02439,-0.002 0.0315,3.9e-4 0.0071,0.003 -0.0012,0.005 -0.01858,0.005 -0.01732,-2.1e-4 -0.02314,-0.003 -0.01293,-0.005 z m 0.167804,4e-5 c 0.01011,-0.003 0.02664,-0.003 0.03675,0 0.01011,0.003 0.0018,0.005 -0.01837,0.005 -0.02021,0 -0.02848,-0.002 -0.01838,-0.005 z m -0.235599,-0.0104 c 0.0076,-0.003 0.01664,-0.003 0.02013,8.3e-4 0.0035,0.003 -0.0027,0.006 -0.01378,0.006 -0.01223,-5e-4 -0.01472,-0.003 -0.0063,-0.006 z m 0.325507,0 c 0.0076,-0.003 0.01664,-0.003 0.02012,8.3e-4 0.0035,0.003 -0.0027,0.006 -0.01378,0.006 -0.01223,-5e-4 -0.01472,-0.003 -0.0063,-0.006 z m 0.28547,-0.13459 c 0.0196,-0.0202 0.038,-0.0368 0.0409,-0.0368 0.003,0 -0.0108,0.0165 -0.0304,0.0368 -0.0196,0.0202 -0.038,0.0367 -0.0409,0.0367 -0.003,0 0.0108,-0.0165 0.0304,-0.0367 z m -1.638028,-0.002 c 0,-0.006 0.0083,-0.0175 0.01837,-0.0254 0.017,-0.0133 0.01722,-0.0128 0.003,0.007 -0.0085,0.0115 -0.01674,0.023 -0.01838,0.0254 -0.0016,0.002 -0.003,-5.6e-4 -0.003,-0.007 z m 0.702174,-0.0109 c -0.01306,-0.0167 -0.01269,-0.017 0.004,-0.004 0.01011,0.008 0.01838,0.0162 0.01838,0.0184 0,0.009 -0.0086,0.003 -0.02234,-0.0144 z m -0.0735,-0.0735 c -0.01306,-0.0167 -0.01269,-0.017 0.004,-0.004 0.01749,0.0137 0.02305,0.0223 0.01441,0.0223 -0.0022,0 -0.01045,-0.008 -0.01838,-0.0184 z m 1.797704,-0.0613 c 5e-4,-0.0122 0.003,-0.0147 0.006,-0.006 0.003,0.008 0.003,0.0166 -8.3e-4,0.0201 -0.003,0.003 -0.006,-0.003 -0.006,-0.0138 z m 0.0105,-0.0525 c 5e-4,-0.0122 0.003,-0.0147 0.006,-0.006 0.003,0.008 0.003,0.0166 -8.3e-4,0.0201 -0.003,0.003 -0.006,-0.003 -0.006,-0.0138 z m 0.0113,-0.0674 c 0,-0.0144 0.002,-0.0204 0.005,-0.0131 0.003,0.007 0.003,0.019 0,0.0263 -0.003,0.007 -0.005,0.001 -0.005,-0.0131 z m -1.978323,0.004 c 0.0072,-0.003 0.01903,-0.003 0.02625,0 0.0072,0.003 0.0013,0.005 -0.01313,0.005 -0.01444,0 -0.02034,-0.002 -0.01313,-0.005 z m 1.306303,-0.0245 c 0,-0.0144 0.002,-0.0204 0.005,-0.0131 0.003,0.007 0.003,0.019 0,0.0263 -0.003,0.007 -0.005,0.001 -0.005,-0.0131 z m 0.68351,-0.0788 c 1.1e-4,-0.0231 0.002,-0.0313 0.005,-0.0183 0.003,0.0131 0.002,0.032 -2.1e-4,0.042 -0.003,0.01 -0.005,-6.4e-4 -0.005,-0.0237 z m -0.67052,-0.14701 c 2e-5,-0.0808 0.002,-0.11254 0.004,-0.0704 0.002,0.0421 0.002,0.10827 -3e-5,0.147 -0.002,0.0387 -0.004,0.004 -0.004,-0.0766 z m -0.747032,0.1235 c 0.03321,-0.002 0.08755,-0.002 0.120753,0 0.03321,0.002 0.006,0.004 -0.06038,0.004 -0.06641,0 -0.09358,-0.002 -0.06038,-0.004 z m -0.141753,-0.01 c 0.0072,-0.003 0.01903,-0.003 0.02625,0 0.0072,0.003 0.0013,0.005 -0.01313,0.005 -0.01444,0 -0.02034,-0.002 -0.01313,-0.005 z m 0.368164,-2.2e-4 c 0.0076,-0.003 0.01664,-0.003 0.02013,8.3e-4 0.0035,0.003 -0.0027,0.006 -0.01378,0.006 -0.01223,-5.1e-4 -0.01472,-0.003 -0.0063,-0.006 z m 0.458721,-0.20283 c 0.0105,-0.0115 0.0214,-0.021 0.0243,-0.021 0.003,0 -0.003,0.009 -0.0138,0.021 -0.0105,0.0115 -0.0214,0.021 -0.0243,0.021 -0.003,0 0.003,-0.009 0.0138,-0.021 z m -1.350609,-0.008 c -0.01306,-0.0167 -0.01269,-0.017 0.004,-0.004 0.01011,0.008 0.01838,0.0162 0.01838,0.0184 0,0.009 -0.0086,0.003 -0.02234,-0.0144 z m -0.07273,-0.063 -0.03619,-0.0394 0.03938,0.0362 c 0.02166,0.0199 0.03937,0.0376 0.03937,0.0394 0,0.008 -0.0089,4.6e-4 -0.04257,-0.0362 z m -0.06868,-0.0683 -0.02,-0.0236 0.02362,0.02 c 0.0222,0.0188 0.02841,0.0273 0.02,0.0273 -0.002,0 -0.01262,-0.0106 -0.02363,-0.0236 z m 0.89089,-0.19361 c 0.01011,-0.003 0.02664,-0.003 0.03675,0 0.01011,0.003 0.0018,0.005 -0.01838,0.005 -0.02021,0 -0.02848,-0.002 -0.01838,-0.005 z m 0.147003,0 c 0.01011,-0.003 0.02664,-0.003 0.03675,0 0.01011,0.003 0.0018,0.005 -0.01838,0.005 -0.02021,0 -0.02848,-0.002 -0.01837,-0.005 z m -0.214598,-0.0104 c 0.0076,-0.003 0.01664,-0.003 0.02013,8.3e-4 0.0035,0.003 -0.0027,0.006 -0.01378,0.006 -0.01223,-5.1e-4 -0.01472,-0.003 -0.0063,-0.006 z m 0.304506,0 c 0.0076,-0.003 0.01664,-0.003 0.02012,8.3e-4 0.0035,0.003 -0.0027,0.006 -0.01378,0.006 -0.01223,-5.1e-4 -0.01472,-0.003 -0.0063,-0.006 z m -0.534881,-0.1057 c -0.01306,-0.0167 -0.01269,-0.017 0.004,-0.004 0.01749,0.0137 0.02305,0.0223 0.01441,0.0223 -0.0022,0 -0.01045,-0.008 -0.01837,-0.0184 z M 100.1,144.88425 c 0.0226,-0.0231 0.0434,-0.042 0.0463,-0.042 0.003,0 -0.0132,0.0189 -0.0358,0.042 -0.0226,0.0231 -0.0434,0.042 -0.0463,0.042 -0.003,0 0.0132,-0.0189 0.0358,-0.042 z m -0.857105,-0.0394 c -0.01306,-0.0167 -0.01269,-0.017 0.004,-0.004 0.01749,0.0137 0.02305,0.0223 0.01441,0.0223 -0.0022,0 -0.01045,-0.008 -0.01838,-0.0184 z m -0.774847,-0.13476 c 5.04e-4,-0.0122 0.003,-0.0147 0.0063,-0.006 0.003,0.008 0.0027,0.0166 -8.28e-4,0.0201 -0.0035,0.003 -0.006,-0.003 -0.0055,-0.0138 z m -0.0097,-0.0569 c 0,-0.0144 0.0024,-0.0204 0.0053,-0.0131 0.0029,0.007 0.0029,0.019 0,0.0263 -0.0029,0.007 -0.0053,0.001 -0.0053,-0.0131 z m -0.01011,-0.0893 c 2.14e-4,-0.0173 0.0026,-0.0231 0.0052,-0.0129 0.0027,0.0102 0.0025,0.0244 -3.9e-4,0.0315 -0.0029,0.007 -0.0051,-0.001 -0.0048,-0.0186 z m 1.805642,-0.0157 c 0,-0.0144 0.002,-0.0204 0.005,-0.0131 0.003,0.007 0.003,0.019 0,0.0263 -0.003,0.007 -0.005,0.001 -0.005,-0.0131 z m -1.132816,-0.063 c 0,-0.026 0.002,-0.0366 0.0046,-0.0236 0.0025,0.013 0.0025,0.0343 0,0.0472 -0.0025,0.013 -0.0046,0.002 -0.0046,-0.0236 z m 1.145106,-0.0998 c 4e-5,-0.0404 0.002,-0.0557 0.004,-0.0339 0.002,0.0218 0.002,0.0549 -9e-5,0.0735 -0.002,0.0186 -0.004,8.2e-4 -0.004,-0.0396 z m -1.145318,-0.0945 c 1.17e-4,-0.0231 0.0023,-0.0313 0.0048,-0.0182 0.0025,0.0131 0.0024,0.032 -2.12e-4,0.042 -0.0026,0.01 -0.0047,-6.5e-4 -0.0046,-0.0238 z m 1.132198,-0.0639 c 5.1e-4,-0.0122 0.003,-0.0147 0.006,-0.006 0.003,0.008 0.003,0.0166 -8.3e-4,0.0201 -0.003,0.003 -0.006,-0.003 -0.006,-0.0138 z m -1.804812,-0.0411 c 2.14e-4,-0.0173 0.0026,-0.0231 0.0052,-0.0129 0.0027,0.0102 0.0025,0.0244 -3.9e-4,0.0315 -0.0029,0.007 -0.0051,-0.001 -0.0048,-0.0186 z m 0.681295,0.01 c 5.04e-4,-0.0122 0.003,-0.0147 0.0063,-0.006 0.003,0.008 0.0027,0.0166 -8.28e-4,0.0201 -0.0035,0.003 -0.006,-0.003 -0.0055,-0.0138 z m 1.807257,-0.0306 c 2.1e-4,-0.0173 0.003,-0.0231 0.005,-0.0129 0.003,0.0102 0.002,0.0244 -3.8e-4,0.0315 -0.003,0.007 -0.005,-0.001 -0.005,-0.0186 z m -0.69424,-8.8e-4 c 5.1e-4,-0.0122 0.003,-0.0147 0.006,-0.006 0.003,0.008 0.003,0.0166 -8.3e-4,0.0201 -0.003,0.003 -0.006,-0.003 -0.006,-0.0138 z m -1.78503,-0.063 c 5.04e-4,-0.0122 0.003,-0.0147 0.0063,-0.006 0.003,0.008 0.0027,0.0166 -8.28e-4,0.0201 -0.0035,0.003 -0.006,-0.003 -0.0055,-0.0138 z m 2.46755,-0.021 c 5e-4,-0.0122 0.003,-0.0147 0.006,-0.006 0.003,0.008 0.003,0.0166 -8.3e-4,0.0201 -0.003,0.003 -0.006,-0.003 -0.006,-0.0138 z m -1.691363,-0.13434 c 0,-0.002 0.0083,-0.0105 0.01838,-0.0184 0.01665,-0.0131 0.01703,-0.0127 0.004,0.004 -0.01372,0.0175 -0.02234,0.023 -0.02234,0.0144 z m 0.870723,-0.0459 -0.0255,-0.0289 0.0289,0.0255 c 0.027,0.0238 0.0337,0.0323 0.0255,0.0323 -0.002,0 -0.0149,-0.013 -0.0289,-0.0289 z m -0.802472,-0.0236 c 0.01045,-0.0115 0.02137,-0.021 0.02425,-0.021 0.0029,0 -0.0033,0.009 -0.01375,0.021 -0.01045,0.0115 -0.02137,0.021 -0.02426,0.021 -0.0029,0 0.0033,-0.009 0.01376,-0.021 z m -1.01327,-0.067 c 0,-0.002 0.0083,-0.0104 0.01838,-0.0184 0.01665,-0.0131 0.01703,-0.0127 0.004,0.004 -0.01372,0.0175 -0.02234,0.0231 -0.02234,0.0144 z m 1.2784,-0.045 c 0.0072,-0.003 0.01903,-0.003 0.02625,0 0.0072,0.003 0.0013,0.005 -0.01313,0.005 -0.01444,0 -0.02034,-0.002 -0.01313,-0.005 z m 0.231005,0 c 0.0072,-0.003 0.01903,-0.003 0.02625,0 0.0072,0.003 0.0013,0.005 -0.01313,0.005 -0.01444,0 -0.02034,-0.002 -0.01313,-0.005 z m -4.077427,-0.2503 c 6e-6,-0.13861 0.0015,-0.19386 0.0033,-0.12278 0.0018,0.0711 0.0018,0.18448 -1.1e-5,0.25201 -0.0018,0.0675 -0.0033,0.009 -0.0033,-0.12923 z m 3.961924,0.2398 c 0.0072,-0.003 0.01903,-0.003 0.02625,0 0.0072,0.003 0.0013,0.005 -0.01313,0.005 -0.01444,0 -0.02035,-0.002 -0.01313,-0.005 z m -0.979144,-0.18205 c 0.01045,-0.0115 0.02137,-0.021 0.02425,-0.021 0.0029,0 -0.0033,0.009 -0.01376,0.021 -0.01045,0.0115 -0.02137,0.021 -0.02425,0.021 -0.0029,0 0.0033,-0.009 0.01376,-0.021 z m 1.983544,-0.0131 -0.02,-0.0236 0.0236,0.02 c 0.0222,0.0188 0.0284,0.0273 0.02,0.0273 -0.002,0 -0.0126,-0.0106 -0.0236,-0.0236 z m -0.0945,-0.0945 -0.02,-0.0236 0.0236,0.02 c 0.013,0.011 0.0236,0.0216 0.0236,0.0236 0,0.008 -0.008,0.002 -0.0272,-0.02 z m -1.773532,-0.008 c 0.01045,-0.0115 0.02137,-0.021 0.02426,-0.021 0.0029,0 -0.0033,0.009 -0.01376,0.021 -0.01045,0.0115 -0.02137,0.021 -0.02426,0.021 -0.0029,0 0.0033,-0.009 0.01376,-0.021 z m 0.538792,-0.25917 c 0.0076,-0.003 0.01664,-0.003 0.02013,8.2e-4 0.0035,0.003 -0.0027,0.006 -0.01378,0.006 -0.01223,-5e-4 -0.01472,-0.003 -0.0063,-0.006 z m 0.0525,-0.0105 c 0.0076,-0.003 0.01664,-0.003 0.02013,8.2e-4 0.0035,0.003 -0.0027,0.006 -0.01378,0.006 -0.01223,-5e-4 -0.01472,-0.003 -0.0063,-0.006 z m 0.556511,0 c 0.0076,-0.003 0.01664,-0.003 0.02013,8.2e-4 0.0035,0.003 -0.0027,0.006 -0.01378,0.006 -0.01223,-5e-4 -0.01472,-0.003 -0.0063,-0.006 z m -0.483666,-0.0103 c 0.0072,-0.003 0.01903,-0.003 0.02625,0 0.0072,0.003 0.0013,0.005 -0.01313,0.005 -0.01444,0 -0.02034,-0.002 -0.01313,-0.005 z m 0.404458,-3.2e-4 c 0.01022,-0.003 0.02439,-0.002 0.0315,3.9e-4 0.0071,0.003 -0.0012,0.005 -0.01857,0.005 -0.01733,-2.1e-4 -0.02314,-0.003 -0.01293,-0.005 z m -0.252205,-0.011 c 0.03321,-0.002 0.08755,-0.002 0.120753,0 0.03321,0.002 0.006,0.004 -0.06038,0.004 -0.06641,0 -0.09358,-0.002 -0.06038,-0.004 z m 1.898742,-0.82788 c 5e-4,-0.0122 0.003,-0.0147 0.006,-0.006 0.003,0.008 0.003,0.0166 -8.3e-4,0.0201 -0.003,0.003 -0.006,-0.003 -0.006,-0.0138 z m -6.342125,-0.021 c 5.04e-4,-0.0122 0.003,-0.0147 0.0063,-0.006 0.003,0.008 0.0027,0.0166 -8.29e-4,0.0201 -0.0035,0.003 -0.006,-0.003 -0.0055,-0.0138 z m 6.203455,-0.29576 c -0.0131,-0.0166 -0.0127,-0.017 0.004,-0.004 0.0175,0.0137 0.0231,0.0223 0.0144,0.0223 -0.002,0 -0.0104,-0.008 -0.0184,-0.0184 z m -6.046781,-0.0269 c 0,-0.002 0.01536,-0.0172 0.03413,-0.0341 l 0.03413,-0.0308 -0.03084,0.0341 c -0.02875,0.0318 -0.03741,0.0389 -0.03741,0.0308 z m 0.417383,-0.22417 c 0.0072,-0.003 0.01903,-0.003 0.02625,0 0.0072,0.003 0.0013,0.005 -0.01313,0.005 -0.01444,0 -0.02035,-0.002 -0.01313,-0.005 z m 5.176598,0 c 0.007,-0.003 0.019,-0.003 0.0263,0 0.007,0.003 0.001,0.005 -0.0131,0.005 -0.0144,0 -0.0204,-0.002 -0.0131,-0.005 z"
         id="path1117"
         inkscape:connector-curvature="0" />
    </g>
    <g
       id="g1119"
       transform="matrix(7.08195,0,0,7.0788691,-676.88536,-886.00517)">
      <path
         style="fill:#d21a2d;fill-opacity:1;stroke-width:0.01050021"
         d="m 108.63353,148.19652 c -0.0375,-0.008 -0.10841,-0.0343 -0.1575,-0.0584 -0.0708,-0.0347 -0.10659,-0.0613 -0.1733,-0.12888 -0.0922,-0.0934 -0.13644,-0.16672 -0.17488,-0.28988 l -0.0246,-0.0788 v -2.60405 c 0,-2.86986 -0.005,-2.64886 0.0686,-2.80355 0.0813,-0.17005 0.22052,-0.2905 0.41547,-0.35953 0.0482,-0.0171 0.21532,-0.0184 2.66077,-0.0213 2.92048,-0.003 2.68128,-0.01 2.84857,0.0734 0.11635,0.0577 0.23779,0.17844 0.29341,0.29161 0.0765,0.1556 0.0708,-0.0705 0.0708,2.81405 0,2.89909 0.006,2.65942 -0.0757,2.81811 -0.0917,0.17711 -0.27059,0.31152 -0.46302,0.3479 -0.11994,0.0227 -5.18283,0.0219 -5.28856,-7.7e-4 z m 4.24733,-1.42782 c 0.13536,-0.0214 0.238,-0.0521 0.34896,-0.10456 0.33097,-0.15644 0.51789,-0.40493 0.60401,-0.80297 0.0204,-0.0944 0.0219,-0.14141 0.026,-0.82464 0.003,-0.51775 8.5e-4,-0.75296 -0.008,-0.82419 -0.0392,-0.31493 -0.19345,-0.5743 -0.44222,-0.74339 -0.34047,-0.23143 -0.90593,-0.28467 -1.33032,-0.12527 -0.25897,0.0973 -0.47973,0.29287 -0.59432,0.52657 -0.10045,0.20488 -0.12665,0.34781 -0.11818,0.64486 0.004,0.12967 0.0121,0.23374 0.0225,0.27992 0.11514,0.5085 0.46327,0.8083 0.99496,0.85682 0.27993,0.0255 0.54376,-0.0456 0.72582,-0.19579 l 0.07,-0.0577 v 0.17653 c 0,0.24829 -0.0318,0.35696 -0.13573,0.46366 -0.10291,0.10564 -0.24058,0.15197 -0.45228,0.1522 -0.16624,1.7e-4 -0.2346,-0.0146 -0.36661,-0.0793 -0.10708,-0.0525 -0.20932,-0.1496 -0.26172,-0.24858 -0.0357,-0.0675 -0.0679,-0.0918 -0.10397,-0.0787 -0.0474,0.0173 -0.44,0.22843 -0.4516,0.24286 -0.0309,0.0385 -2.7e-4,0.13343 0.0825,0.25566 0.25753,0.38028 0.81819,0.57631 1.39015,0.48605 z m -0.378,-1.66002 c -0.32284,-0.0502 -0.48242,-0.28647 -0.46356,-0.68641 0.003,-0.0722 0.0138,-0.1593 0.0231,-0.19359 0.0532,-0.19647 0.1814,-0.32253 0.37406,-0.36795 0.0859,-0.0202 0.26789,-0.0202 0.3542,2e-4 0.17614,0.0415 0.30395,0.16405 0.36536,0.35029 0.0252,0.0764 0.0311,0.37814 0.009,0.47599 -0.02,0.0901 -0.0662,0.19273 -0.11359,0.25258 -0.0442,0.0558 -0.14229,0.11814 -0.22787,0.14483 -0.0683,0.0213 -0.25082,0.035 -0.32101,0.0241 z m -2.23714,1.6003 c 0.0146,-0.0208 0.0163,-0.17267 0.0163,-1.41753 v -1.39419 h 0.46201 c 0.44801,0 0.46265,-6.4e-4 0.48301,-0.021 0.0198,-0.0198 0.021,-0.035 0.021,-0.27067 0,-0.20897 -0.003,-0.25347 -0.0163,-0.273 l -0.0164,-0.0233 h -1.26792 c -1.07827,0 -1.27097,0.002 -1.28831,0.0149 -0.0192,0.014 -0.0204,0.0296 -0.0204,0.27189 0,0.23799 10e-4,0.25863 0.02,0.27911 0.0198,0.0218 0.0256,0.0221 0.48028,0.0221 h 0.46026 l 0.003,1.40263 c 0.003,1.37468 0.003,1.40292 0.0231,1.41752 0.0165,0.0121 0.0781,0.0149 0.32229,0.0149 0.30007,0 0.302,-1.4e-4 0.31825,-0.0233 z"
         id="path1123"
         inkscape:connector-curvature="0" />
      <path
         style="fill:#ffffff;stroke-width:0.01050021"
         d="m 108.57053,148.75376 c -0.33372,-0.057 -0.6262,-0.24647 -0.81933,-0.53087 -0.0585,-0.0862 -0.12789,-0.23438 -0.16441,-0.3513 l -0.0295,-0.0945 -0.003,-2.70381 c -0.002,-1.90097 3.8e-4,-2.72357 0.008,-2.77039 0.0837,-0.49123 0.48041,-0.8921 0.97941,-0.9896 0.0995,-0.0195 0.18598,-0.0201 2.73655,-0.0201 2.28721,0 2.64562,0.002 2.7236,0.0157 0.25381,0.0443 0.47681,0.16001 0.65915,0.34212 0.17177,0.17157 0.27879,0.36869 0.33875,0.62399 l 0.0222,0.0945 0.003,2.5778 c 0.002,1.75514 -7e-5,2.61504 -0.008,2.69449 -0.006,0.0642 -0.0202,0.15253 -0.0315,0.19633 -0.12166,0.4757 -0.5078,0.83213 -0.99152,0.91524 -0.082,0.0141 -0.40975,0.0159 -2.71956,0.0149 -2.08218,-8.5e-4 -2.64261,-0.004 -2.70505,-0.0145 z m 5.35156,-0.55647 c 0.19243,-0.0364 0.37132,-0.17079 0.46302,-0.3479 0.0822,-0.15869 0.0757,0.081 0.0757,-2.81811 0,-2.8846 0.006,-2.65845 -0.0708,-2.81405 -0.0556,-0.11317 -0.17706,-0.23387 -0.29341,-0.29161 -0.16729,-0.083 0.0719,-0.0769 -2.84857,-0.0734 -2.44545,0.003 -2.61253,0.004 -2.66077,0.0213 -0.19495,0.069 -0.33414,0.18948 -0.41547,0.35953 -0.074,0.15469 -0.0686,-0.0663 -0.0686,2.80355 v 2.60405 l 0.0246,0.0788 c 0.0384,0.12316 0.0827,0.1965 0.17488,0.28988 0.0667,0.0676 0.10246,0.0942 0.1733,0.12888 0.1606,0.0787 -0.057,0.073 2.79475,0.0739 2.22796,7.3e-4 2.57993,-0.001 2.65131,-0.0147 z m -1.4632,-1.4123 c -0.42169,-0.0372 -0.77856,-0.22235 -0.96818,-0.50234 -0.0828,-0.12223 -0.11342,-0.2172 -0.0825,-0.25566 0.0116,-0.0144 0.40421,-0.22556 0.4516,-0.24286 0.0361,-0.0132 0.0682,0.0112 0.10397,0.0787 0.0524,0.099 0.15464,0.19608 0.26172,0.24858 0.13201,0.0647 0.20037,0.0795 0.36661,0.0793 0.2117,-2.3e-4 0.34937,-0.0466 0.45228,-0.1522 0.10392,-0.1067 0.13573,-0.21537 0.13573,-0.46366 v -0.17653 l -0.07,0.0577 c -0.18206,0.15016 -0.44589,0.22133 -0.72582,0.19579 -0.53169,-0.0485 -0.87982,-0.34832 -0.99496,-0.85682 -0.0266,-0.11765 -0.0328,-0.46028 -0.0106,-0.59279 0.0336,-0.20106 0.10698,-0.37001 0.22378,-0.51539 0.2851,-0.35482 0.7944,-0.50815 1.3422,-0.40408 0.50878,0.0967 0.84663,0.44286 0.90714,0.92957 0.009,0.0712 0.0111,0.30644 0.008,0.82419 -0.004,0.68323 -0.006,0.73022 -0.026,0.82464 -0.0861,0.39804 -0.27304,0.64653 -0.60401,0.80297 -0.0533,0.0252 -0.13239,0.0557 -0.1757,0.0677 -0.17172,0.0478 -0.4123,0.0692 -0.59523,0.0531 z m 0.36498,-1.70037 c 0.0856,-0.0267 0.18369,-0.0891 0.22787,-0.14483 0.0474,-0.0598 0.0935,-0.16244 0.11359,-0.25258 0.0218,-0.0978 0.0159,-0.39961 -0.009,-0.47599 -0.0614,-0.18624 -0.18922,-0.30877 -0.36536,-0.35029 -0.0863,-0.0204 -0.26831,-0.0204 -0.3542,-2e-4 -0.19266,0.0454 -0.32081,0.17148 -0.37406,0.36795 -0.009,0.0343 -0.0197,0.1214 -0.0231,0.19359 -0.0189,0.39994 0.14072,0.63624 0.46356,0.68641 0.0702,0.0109 0.25276,-0.003 0.32101,-0.0241 z m -3.19869,1.63279 c -0.02,-0.0146 -0.0204,-0.0428 -0.0231,-1.41752 l -0.003,-1.40263 h -0.46026 c -0.45465,0 -0.46052,-2.7e-4 -0.48028,-0.0221 -0.0185,-0.0205 -0.02,-0.0411 -0.02,-0.27911 0,-0.24228 10e-4,-0.25785 0.0204,-0.27189 0.0173,-0.0127 0.21004,-0.0149 1.28831,-0.0149 h 1.26792 l 0.0164,0.0233 c 0.0137,0.0195 0.0163,0.064 0.0163,0.273 0,0.23567 -0.001,0.25085 -0.021,0.27067 -0.0204,0.0204 -0.035,0.021 -0.48301,0.021 h -0.46201 v 1.39419 c 0,1.24486 -0.002,1.39669 -0.0163,1.41753 -0.0162,0.0232 -0.0182,0.0233 -0.31825,0.0233 -0.24416,0 -0.3058,-0.003 -0.32229,-0.0149 z"
         id="path1121"
         inkscape:connector-curvature="0" />
    </g>
  </g>
</svg>
